<mxfile host="app.diagrams.net" modified="2023-09-19T00:40:13.324Z" agent="Mozilla/5.0 (Windows NT 10.0; Win64; x64) AppleWebKit/537.36 (KHTML, like Gecko) Chrome/116.0.0.0 Safari/537.36" etag="UWm2mslcUkFrFeS-4CHo" version="21.7.5" type="device">
  <diagram name="PÃ¡gina-1" id="ipfCKntAwts9SYMEUm8b">
    <mxGraphModel dx="953" dy="149" grid="1" gridSize="10" guides="1" tooltips="1" connect="1" arrows="1" fold="1" page="1" pageScale="1" pageWidth="827" pageHeight="1169" math="0" shadow="0">
      <root>
        <mxCell id="0" />
        <mxCell id="1" parent="0" />
        <mxCell id="FMFuPpXYhe9ffQqv8BKt-3" value="" style="shape=image;verticalLabelPosition=bottom;labelBackgroundColor=default;verticalAlign=top;aspect=fixed;imageAspect=0;image=data:image/png,iVBORw0KGgoAAAANSUhEUgAAA5MAAAN3CAMAAACY5P4vAAAAAXNSR0IArs4c6QAAAARnQU1BAACxjwv8YQUAAAL3UExURQAAAAAAAAUFBQYGBgcHBwgICAkJCQoKCgsLCwwMDA0NDQ4ODg8PDxAQEBERERISEhMTExQUFBUVFRYWFhcXFxgYGBkZGRoaGhsbGxwcHB0dHR4eHh8fHyAgICEhISIiIiMjIyQkJCUlJSYmJicnJygoKCkpKSoqKisrKywsLC0tLS4uLi8vLzAwMDExMTIyMjMzMzQ0NDU1NTY2Njc3Nzg4ODk5OTo6Ojs7Ozw8PD09PT4+Pj8/P0BAQEFBQUJCQkNDQ0REREVFRUZGRkdHR0hISElJSUpKSktLS0xMTE1NTU5OTk9PT1BQUFFRUVJSUlNTU1RUVFVVVVZWVldXV1hYWFlZWVpaWltbW1xcXF1dXV5eXl9fX2BgYGFhYWJiYmNjY2RkZGVlZWZmZmdnZ2hoaGlpaWpqamtra2xsbG1tbW5ubm9vb3BwcHFxcXJycnNzc3R0dHV1dXZ2dnd3d3h4eHl5eXp6ent7e3x8fH19fX5+fn9/f4CAgIGBgYKCgoODg4SEhIWFhYaGhoeHh4iIiImJiYqKiouLi4yMjI2NjY6Ojo+Pj5CQkJGRkZKSkpOTk5SUlJWVlZaWlpeXl5iYmJmZmZqampubm5ycnJ2dnZ6enp+fn6CgoKGhoaKioqOjo6SkpKWlpaampqenp6ioqKmpqaqqqqurq6ysrK2tra6urq+vr7CwsLGxsbKysrOzs7S0tLW1tba2tre3t7i4uLm5ubq6uru7u7y8vL29vb6+vr+/v8DAwMHBwcLCwsPDw8TExMXFxcbGxsfHx8jIyMnJycrKysvLy8zMzM3Nzc7Ozs/Pz9DQ0NHR0dLS0tPT09TU1NXV1dbW1tfX19jY2NnZ2dra2tvb29zc3N3d3d7e3t/f3+Dg4OHh4eLi4uPj4+Tk5OXl5ebm5ufn5+jo6Onp6erq6uvr6+zs7O3t7e7u7u/v7/Dw8PHx8fLy8vPz8/T09PX19fb29vf39/j4+Pn5+fr6+vv7+/z8/P39/f7+/v///2GjGyoAAAABdFJOUwBA5thmAAAACXBIWXMAABcRAAAXEQHKJvM/AAD8lUlEQVR4Xuz9dXgUWd+oC5/zXftcZ5+99/tueZ/neR+ZGQIMAzMMMoMNMDC4DG6BECHuxN3d3YgbCUmIESPE3d3dXTqd7rT374+vqlPBEgiSEDpZ9zVD/aq6WqrTdy1f6/8CBB9CEfv//d/8yYku4hIQ7+D/Qk7yJeO/mpfwJY+3lxCXgHgHyEn+ZHhLIhHxGX3f5RAR4h0gJ/mTkR8eExGfUS+QR0SId4Cc5E+Qk+sX5CR/gpxcvyAn+RPk5PoFOcmfICfXL8hJ/gQ5uX5BTvInyMn1C3KSP1lRJ5utRG7evKldR+wSsGsaiGglQU4uC3KSP1lRJxN3bxYSFTVpJHYJMvWziGglQU4uC3KSP1lRJ5MvWfC2zIq00uACVm+kbyINyi5s12uC2aePovt4D64QyMllQU7yJyvspDlvOyXyN5nDlnXmP2/bEzsR+MN/OxQ1Fbbjh90WY7xHVwbk5LIgJ/mTFXUy5bxCU2fXFIck8u8+pBmbW0kjJueLSZrnn9HTTtqPRd30ZBMnrgDIyWVBTvInK+rk80P/c/OWH9wpVJGtFTB8814jO+hgAsXkWiHD4UA8u1xQlUKcuAIgJ5cFOcmfrGw6eUYwISWtnTUjvKMRavb+75/2fPd/Ho0bXc6fVPn3rXu2/4f4MHHiCoCcXBbkJH+ysuXJy5a87ZTw9jpoOnbI2CMkuXNG73IeSf97RXe/2Boq7+EVATm5LMhJ/mRlnfzTgIZvp4W318CU7P1BaIscmtO4VgnBB9NgNqmSd9bKgJxcFuQkf7KiTsb9rjaHb6eu/Wc5cJ/fFzc4Kd7MtN8tnl8jd9Ho3s0kDu+0FQE5uSzISf5kRZ0s0Qtg4NtZK7F2bBN9Yd/dNoBy0cNec43X9l1Jwh9bKZCTy4Kc5E9W1Engct/Yspm8hJHDwjZs5go2hGAgJ5cFOcmfrKyTXxDk5LIgJ/kT5OT6BTnJnyAn1y/ISf4EObl+QU7yJ8jJ9Qtykj9BTq5fkJP8yci2WCLiM7oEcokI8Q6Qk/zJ6E+uPXzJc4EC4hIQ7wA5yZ+Q/vjrVr7km631xCUg3gFykj8Z36OeyJe4bUbrai0DcpI/Gf7+GRHxGf0CaF2tZUBO8ieo3nX9gpzkT5CT6xfkJH+CnFy/ICf5E+Tk+gU5yZ8gJ9cvyEn+BDm5fkFO8ifIyfULcpI/WcpJ0hPp+0JCQgbNxD4PamYUmQg/ANoLBWEhofuOs8T+yoOcXBbkJH+ylJMdD364cufOHd0mYp8H01RwiAg/gHGT787fuXP5YhhvbsnVADm5LMhJ/uSVk9zeTmIWqxZdVyYvoDW3Joe+mMQeqwiNM5EaBVZ2SEIfsFvLY7KYnKqwsDbsJGZ+aOIIwMzzkNQp4PaV8lLTURedcWzj+6CH3DAMrL4WJlCzQsJL6fiDKwJyclmQk/zJa+lksBsRtOi6sXhBv7ryyW2/+DKZRUJbb0jIjjNzz+341WJy2vDWboXRaqkdAsrtQCsQ2XHIlzQbdmzbb8FkToZFL/7MUVeek9HSrY2KcUDy0xunRJ/eseVm6YpNXoecXBbkJH+y4CRjpNdav32Qgk8C2aalX9/fPzDN6VcWyelRvjfQK6PfXiwiP9oi+4icLuc/YCSVPVOv7zrUeM+EUa2dPPzCrjBTMLgvSCyGy5jlWTfmLF3UP9hqrTrSIh+LOznarBpMrtJ2nsEfXQmQk8uCnORPFpysvrD1L/9ny/4ovPzXK/fXzd9/v9Nspl/DahwCFDurJJKA4a7ZlyjxArPNsMXUdBAS7qQB18yoJ1GuEzjjE2HSvTAoa7pQpzNl/ZdN32/ZrtTMblaMB1KAwRitfwaGneyniBM+G+TksiAn+ZMFJyczYmRFI5O68VSuQ000JDY2oZbZqxU+C+HabZn3M4EdptP/5Oftv/66TaLaxGcSkg7u2HfgX4LFAQ+6sKdQXaVHgGFiNs17MYBxx6vesaonAgAaMSdnAvUn4cXtX3fvsV+xiljk5LIgJ/mT18qTgc5E0KLrOR/0aEVTIUSzPU8sC3eyJ0pQ284puKLXMHAGnl3XtbcPLBgKlenGzmT6KIwCVdd4wclRVz0SkCy0u6BZ+Rm2ZzRapypvZyzqSCJO+GyQk8uCnORPXjnJqSicr2193cknFAhR7+lQfAwzOsoDOQ9rAMoL+oz8pyFbqRig8AU1/l4zzCSVRtythbr7Dgv1qqMualjymfvAkdV4IxhaZIyHYqRroV/VEZUnvxzISf7ktXTyJW3SZy1cXFyC27uUQ2fBV6aHEihtai8oOzZmKeWidS+oU8tzEoZ9FW3Nz1rNNGkbuOuq59Q8lLWV0qiAjmxeUjlsI9uBpZ5+N3J6Hl61dxbSGK2UkvZxuKs7xnuHFQA5uSzISf5kKSdHbQ7s2b1795UXwz6ZNEh1HYZxoz0ygUEkGJTafdSTNev7jIydZf7rHqtxgLqb317B9Ki8t/t2MXCyrPvwl5iKcsN7GNSZR9Aa7/5iEu5HZnodPuac4j2CP7oSICeXBTnJnyzlJLDpc1QqlcbmsjlYnpbNBWDNMTj4GlkM7Cj2OG+5LNbcHF4jxGlPrMNXnWTM4evcsRnzS2rxnoXtsvAHmBz8SbQ5Fnf+6EqAnFwW5CR/sqSTHwcl1qGWCL8gyMllQU7yJ5/v5JjFFs1RIv6CICeXBTnJn3y+k9TCsDc6q38hkJPLgpzkT1Yg77o2ICeXBTnJnyw4SSt0NTM1tSvj1d68Bbs7fRDfTmU0Ey2YL+kv6yciHpwmPwtTU9MgXj90DGZbCYUI38VQiKn1cwbAeKSpC9774A2K7U1tcrAPUOllbmpqkYNXIi2AnFwW5CR/suDkmNSmXw8dOqTavkTFKKvGDx+UBe3Xvd/uGpdj9IYZDHeBn7FXka0h9meCVHlNI++GFPznoX13i1nU6GuHfrMYeOPdacVKRw79Jpk7x9AV2Hvo0AHJqvnhKjyQk8uCnORPFpwclbKYAOjVezw50dHUxYaekipsH8aqS1oZQBmeA3pzRcbdQApMV5V2cYA5NdBS2jw3FyL2aBq4LSV1833m6O4ivMkJuKQhJjBGSeQw7UEYq8QfZo0NNJY24SldX2nlqzqh9oAiGLTU6x0JyYZqsYg3UtV2IesJGLe7UsXQUsOS42kz79fqkpCTy4Kc5E9eOinjgPkya+nZ5HT2uv5oq8ymn2xmuNP2ewUuFTMLjWpYqSf3Sl0IpVO99gjcqWaPOgsJCvyWUif07wez2NXnBA56U/FXoXtI8vKyrBjtIWg3f0qN0B0gWe4S2OtDGzKQvvrNvjwOt0P8u5+MRxYSRBaNC5zoO8UcbDtp7PNGN5+a286Yo2Xi6SRdXdx5F9vO+QdwkJPLgpzkT145aTnOZtc/CO1RvJzZ06FqWxEm7T+ZYhBf7eIykaFcWaxgXO79nRs9UCE9V1urmXR35/N0ce3WOMkgUpuSbbWPxBM8X0n3EG1iszlcRqhsPzRrhlEjDFp9DVKqrcQau27dyYoXMh6bVhXNiJJwm+S96zwzvrL4GlmcSrEnPLMXGNPcZEji0IbIFC31Pja7T9YJT7oJkJPLgpzkTxacHFfa9suBAwdM+0iqD+cg53o2gKtOb6jxGNA6ZzM1KkI16qFVKKhTXQ+gVDJ7SuE+A8K0O6qtytkJ4pUw62CM9y5nPtrx84EDMtXcSOUBaNWPxNLJ7rYhgEKpik5RI+AEqPd2y/kAy1NoocSJkyMei7k4brNT+LV0EIPT9ejY3gP3B4Bp/MOeAwd+UW3kjZeeBzm5LMhJ/uRlHY/CnwaWlm6dMG1gweI+237k6rXdtzq77G9ddQfI0ii01RmCYZOYBpFt166d3BM1YG0DrATTtmKjPFro3uNXL/0qjvdkZXgfU7W0DOtjR2BOthvgTo5wHG9ePXqrtuthIMzF6PUUq8VhLyj62kJ1L+674v3WZ1MtbUPxGqFhl+tXvfGZQzCSrSykDDrphme0LS3t6+aPzYOcXBbkJH/yMu8q7cLbwpiJI7CTjt2UkNaNI0OzvrhUzFi2ZhHu5IhJTJ3iH1ISyp4tvfYuwHhqgjs5F3b2rrisYSpePUP3kOaVCOmRaiNQq/WEGqHfGnbtnuSVuzVd6o+BEqHXU6qOOZkp8tJJdqKYLSEgJN98gf075i8pHorlbVnd5XhWtlbsOUnHYNH8d8jJZUFO8ievypNW80W8cWN7LitfthKgp3amfhAgXqktS7MiTrcKGq/6d5k5Yalh+ciQjRPPyULTSnayWjtAexPedEn3EGvBX4TpLzQEsaJP5yINiu97ATwVqepSC8Oc1O3rlfYApovwwiLLzCylQHw7VDUFEH0vl3dwHmahDL7EZPHdlGk9jYH5Y69ATi4LcpI/WXByRNR4vgJlTMeSBQNapqmhEpY9QSZRGfa+ky8UK7qN1F84C7jSH8tHJhs+KB42swHGE93mSgXnsS51owzvBx540yXd6Q6vnx0n5rztC/Or0XOhmtW6ikkvVM8XtSsEwmyISu+Mzr0Y3we+pOle3kDL9uu3kjJeVJIrrZzSYzR5A7xeMqRv/iw9yVi0ek5F6Y2uCTjIyWVBTvInL+t4dNzn5+2YdPRhAXQqbPled5Azov3jZolBdqFZLeRc2Ktu9nyOGbhv88Uc9pinHzBTnDrGpA9lcJsub95tNY23bjCC1Tp4rzLltO24k0UyLcFuqPjCZiFv85JO81igJlgNwqC8wG7raSizTsNPLL3w3dbN34s1s4vvbP5R/61Znacsd2/eKtXMYViYDxOHXoKcXBbkJH+y4CRnijzfrY4zw5s0eaytHZ9ibqKjbQRL/qYZwBzsGJ+lc4Ha1TbABjaZDNy5GSZ3rAcrRw62dc3P6cGdnSS62sx2ds/MzHGpJA5rsG1gdobOJFEB22Vjr8k7eyIyEz+PNtTV1tY2QAfWUFvHokntpjva2kbxLgj4894EObksyEn+ZMHJL07X8zeWI/lokJPLgpzkT9bMyekRfHKCTwc5uSzISf5kzZz8XJCTy4Kc5E+Qk+sX5CR/gpxcvyAn+ZN3ONlfVd742hKwtNG3hiZzJscXRj/P9vM6jlP7ibGV7PHpRZWkBHOjeK3sRBUxsgtgtKpiEIDSUlFeUdv+cVOkIyeXBTnJnyzpJKdF7nuB46/Wc+VUG2UQIcGspzVhKTdfIh3Tk5MmUTh/gGQT9Pqgj9cg++mNAoxbb93rxdOYO2q+fZNiO7dacLOAwN+OpvJO+lCQk8uCnORPlnSyTtY4syzekGcOh4v9X6qchIXcV7MAzNjo4MkofqBJ2m0CM81NphW4eNo5pes+/upcbLvwrDmvXeIjwLBVTY9UjsONnn1umVmqZDY821xWlnFH5M1BIcuBnFwW5CR/8spJblocMd8NKUC0AtuEytbBqOKhw3IDUKmRChO2vx1Og+yQARjzzptyNqJCt+hvwnkw46VeC1Cj9oiUdPXQjQQgG/uQ4OmR38xHoOmRwoUnOcHz47IGjERkHo7CuLIDzFjp4jP2MAexf0M18feCSsuUpaYCejfIyWVBTvInr6WTL9fVqtNwxRPBkcKhXqP7psrXAmerNV9MR6sbySqUB6g1QY9E6ISLMbVL7YbRg4fV3HyhWC4kKBQnKKuYCkp2kUx9J5JvS2nc9ZwsFb5hXtqcPz9j1lT881D1UejUCYe5xyJVvGMYPuoN2L+zph+7WixyclmQk/zJgpO9DupnjqsYl+KjO/IU8InkcAbCBwCCdUZrNLNKDV4A52lNiGEr9ClHTbiYkrKupEOjtCljQNqfQ35kOpaTA1AqWzxh5t9pLkGDkHs5lbLu869DEKI6BkWq0cB8emt+rBan3vikBwtLo3O103kHPhzk5LIgJ/mTBSebHvzxw5ZjV5PxxepylbIW5oycevbIWcZkokYzPUyZ1xcu2KAV+h9iTpoPx2o0AsVRgURzdR8v047iQlXwI5W7FZNmAWW2TlxoFo8q1Ip8PUNKD8aczFWOec3JPME7YVgySrFyXdTJfBmQk8uCnORPXsu7+tgR/ccrHvrjtTuM0Zlpx4M7d+42narRSvOTnnfSqAN6FJ5MuFgMhKo1At1LZRpeaGcHSXSySkV+3Ln1aOWUeWCeiTMHuhSe5pvgVbIvwZwchRadCKA/uVdOHIMmFVsudCvzpvP5GJCTy4Kc5E9eczLSj2hXHHFVwudzLbQpz7oXSe+yMxmv0cxIwGtyJskB2u1QcTtsysVsPE2+CsYNFWegQULNzJk7pmvZOfdYEksn/evtzbhQKBRbaPy2kyMwrOYJM66q7dg+e4aCZY+V9VicPLX8+VM+HOTksiAn+ZPXnJydIVotOAWCnsPUZm3l3rzbMVD0wGC8Wj2rTD2Y0qQWEyr+ZDrsaNC0kxG5+E/vmXgxfw6QNP/7iUIY07QY5OjsLpkyeTRgf6NmwFS+sVQ/jQNs5oKX9MCHwzCnrT1YoeJP4jDZo+HeI9QEpSjuXKRhI3HOB4OcXBbkJH/ympOvmMsU3rN7v1YTa1Tz5/06hqp9lSqp1JSbu7437B0x++G4wa2oCQc96mz4/l2HHScBuIHf3h0FZvKhHeI60skjxp7TPWpbdtzMYuTqpAAUeS3UsdIDFIeA26i9a7/5KKfSu4DeoPHr7rMhJJhydFhmuvTFICeXBTnJnyzpJECel1sgPotHc7BncVfl7FT1IFDS3Ty7AbqC/KsqB+mtdWygxrhF8ebJGcqqxbK95DiP2JaO/rmGdha0ebrnMmC0bhigt4S32AgGp6sK7xrU4BXUATBY2gNQ4+MWP47J2ti+aA6s5UBOLgtykj95h5NfP8jJZUFO8ifIyfULcpI/QU6uX5CT/Alycv2CnORPlnCSSx0fn5yaGF88V9z74dDeXDGW9db+Imjj4+N07P1oU1gwPsUAJmmCtwUufXr+EIcyPziTsqiDOnJyWZCT/MkSTtK8t2/f8eP27WILqy1/IL02+MoCryizSiGipRkzx97HaRqmnLE32779cg4r/jC2/T2ACXSv3/BD51+MWmmOAUzomL6xCB4OcnJZkJP8yRJOsupCHt08bhKS/pETy3XLxxDRPNkSQUS0JL02Ej4h7iKuEyN6J11CQkISByg+JwxDQuzkA2bpyuecsUPxvdRYyQAOBEtGLfosyMllQU7yJ6+c5BS97HkOEGCIJZItnlbm9RAjKChTCzN5IRb3jNoA273rMgHFaUnykgVcgFKFuy5TQM60NnLX3XkxD4ru3xHGh3hUSShZy0cCO1Hk7hMm1LlbWrbAY0FBxSagxcfx3ufFA3yhENc7GSN2ZvNvPBOk3gHA9rldQdEwIkam0MPkKqsVghc3XyInlwU5yZ+8lk4GLYyfBKC4atQAJ+JXMcuKhLs3bh+0HBuX3qt2db/zRLnczVuiSeSAawrS5+SboVz50o2rARMTartVvQx2XcktkLlw75BiM9TKnZCXF4yjZwr+eeVyHD14r4R11dM7t28eshunJSbwFCy/d7sSYDqhemDBSXKQIj6+uVHuyYj2gpPQZyv+wLqH2HkN5OSyICf5kwUnx2L9RG97h7fO1+vwnORGnMkBRsBTgBzFCpLgH1MMB7UaR32AhszJiHMu0CcTMm33oA9CBTMnVUTIMKCRDM8eAbSqPOV4X22FyPuJA4ZqM1xV6frQ80Uw55sA8Fzx5WDmOZffRNwDsLR2wOyCU0BAQAZ1dt7JAfvgPqOrjgEBgVn4EiYlh/YX8J7wJsjJZUFO8icLTtZe+fHvf9txOAYfP0k4yX56H1OE2Zaf5aJQO6Gnz2HGmtbG6icXYtlaX41KmHNzq7QxY0OLWFiviSYN2h9GA7evIC9QNoXkaTQDbQZPa/WfsiFJPTZGtBaA0ZKX6aD42sKunSo//ng9dW5C/z+2/fjjj0pjlGCekz3mQf0Wm7FDP/MWBKoSFipfmNLnNZCTy4Kc5E8WnGSRJxxNhkiM+V8/z0lWvEI7sPOuCwh8J9QyZu0C9BiTJm7I3h80u9i+Jp0w6+pWoG/EhkHFx12OdmxoU47itshsEvj2TN6QlfEMdBhGFyrHsaDIJCpeuRvYmZcEBDaJtfLeAIPKANr0VJBa8YSNSsv09DSFQ+RdGxQDB/XmD2Gpdr+juLg9yrt+CshJ/uS18mSIBxG8dFKxEwY0VZtrfZVqxmxcgR5tUg8z7RXeTj1hqmUwoedQa2vKhgaR8B4nB9zJOLKzWFFTtELKjLc+CVr0YusNotgQpxoX/7AXelS0mqu9lF+mk3GB+DJatWqxI3bG8/NSkoOUqrFNruCzSW19YrZYZohEQZFk4ELp8hXIyWVBTvInr5zkDg+8bJinuKjjTsp3QKekFbCspWvHrJwxJ00LHscAxLr0PrkRBk1CoWQHkTa2v1DuqB2WTrYqJc4YyQEECSdzYoTrIFgwcchYaZSmKNv4VKkXy+I6AtVUdmGBZshSDcf+DZDMHrM1mF/6khykjD06ZCLbSVPXJda9i7vvz+YEKuMLNr8JcnJZkJP8yWvp5GvM2spXAisKy2hSXA6ff2gkVDBkbAO0cJ2KjFvnL2hW0MIeiJ/73bIf6jX+OHkpgjRsas6CQYlLyU9Pn5I2vxcK/Qa/nFaUimYUCv1+/FoaPUyiC8h2v51XNbhfQot+wkv1ZtKkzp4/fS96akzjP/84f/682PMZ780HsEC1lEVT3Xoci87Hpt55OAYwridbxvtcr4GcXBbkJH+ytJPM0hcjwGlJmQTodJb3bkjtJheWALsxZ4oZJa8SRwc/fU8FHXyS5FoDxUAykAuLOEBPdSgdC1a0qs7AcqBNagqpxc3AzVRVTMayt6kkgDZ7eb/6lD56etp80wfrmYK8QjQNKC+0FOXl5Q2LGNXmyvLyBsXY++ea4ofkMwvCeZPDVj3BJ5x8A+TksiAn+ZOlnVwWVx3eYOY1BDm5LMhJ/uQTnUwMGiKitQI5uSzISf7kE53krQyypiAnlwU5yZ98opNrD3JyWZCT/Alycv2CnORPkJPrF+Qkf4KcXL8gJ/kT5OT6BTnJnyAn1y/ISf4EObl+QU7yJ8jJ9Qtykj9BTq5fkJP8CXJy/YKc5E+Qk+sX5CR/gpxcvyAn+RPk5PoFOcmfICfXL8hJ/mTkhzcXFOAb2jcjJ5cBOcmfjPzgR+JLijflE5eAeAfISf5kcsc/f+JLtvxbJXEJiHeAnORPxrZL+vIlJv9ZTFwC4h0gJ/mTkR+SiIjPGNiSS0SId4Cc5E+GtzwjIj5j4NvF8zAj3gA5yZ+M/yzzeNWISySCVcDq2xLiEhDvADnJn8zp//zDqvHv/y8RrALbxdd6htmvHuQkn0KbGF01HvxGBKvAGGWJBfAQr4OcRCxC/RwRINYC5CRiEcqniQCxFiAnEYtATq4pyEnEIpCTawpyErEI5OSagpxELAI5uaYgJxGLQE6uKchJxCKQk2sKchKxCOTkmoKcRODUBw4TEcZrTvZaXDx58uT9UmL3HQx6ZhMR4vNBTiIwSm9cbyNCjNecLD95UkVNTcKw67094qYymogI8fkgJxEwmyx3SqSL2MF4zclKoXjs33a55xzIsHatAGAlWTpks4ARa+mUD6zKZjr0F05S6vrnT0esAMhJBIzbmYYqdxA7GG84GYf92yCVRM2/ume/fAOt+M7+/TJ11JyrBw4od0zpu0/CM6nqVvnQ+dMRKwByEgHAZcYrtBMxxmtOVt02Kykvc5WtGJRQnWx6aNBo6AIziend6r4wGZc9bOY9BSnyNe0P+XRmy68S5CQCg/suJ2su/HWTwKYjuaxG1XBgR97PtHQenJphjut6DU+RmdPGPlOQpljbrhpBnI/4fJCTCAxm3DvTSdOisrJGJmQpxwLkSJb2Gm4/5MvkNGt8fyQcZo0fISdXHOQkAuOdTlYKYSrilGk8BU7yvXLoivazjqBCS9Qj6/hhcz8yRInXICdXEuQkAuPdTt4LY/GCbhELmDGRKYxpAwhyaXzSB+D9qM9QfwrMLlV3ICdXEOQkAoMZKdpChBivOVn6p9+8k7Nel+UkxNL6nO9rqNlW9VphG/uG2dibd21l/6xslQrinYRYCZCTCAx2qd/S/Xg6XfLY8xHN8eS1CDb0aJ24GcWBNuUTggmYqZ6nVZ4E9w0HFcyfhFgBkJOIRbzmJOLLg5xELAI5uaYgJxGLQE6uKchJxCKQk2sKchKxCOTkmoKcRCwCObmmICcRi0BOrinIScQikJNrCnISsQjk5JqCnEQsAjm5piAnEYtATq4pyEnEIpCTawpyErEI5OSagpxELAI5uaYgJxGLQE6uKchJxCKQk2sKchKxCOTkmoKcRCwCObmmICcRi0BOrinIScQikJNrCnISsQjk5JqCnEQsAjm5piAnEYtATq4pyEnEIhY7yZmgERFi1UFOIhaxyElOvnoJESJWHeQkYhGLnMw9eyyfCBGrDnISsYi3nKSE3lW8V0jsIFYd5CRiEW85ScuNyFBE6eQXAzmJWMTiOp5y2TwiQqw6yEnEIhY5yS1GTn45kJOIRSAn1xTkJGIRyMk1BTmJWMRiJ4ukc4kQseogJxGLWOxkwYNsIkSsOshJxCIWOQljRSNEhFh1kJOIRSx2EvEFQU4iFoGcXFOQk4hFICfXFOQkYhHIyTUFOYlYBHJyTUFOIhaBnFxTkJOIRSAn1xTkJGIRyMk1BTmJWARyck1BTiIWgZxcU5CTiEWonyMCxFqwuk4yJgb5k0kmcQVfLdQR4qOuAqKHiGAVGCJziCtAvIPVdTLq0Pf8ye8pxBV8rczp/Eh81FXg3/8rEawC20T7iUtAvIPVdVJmfwx/8pMOcQVfK2M7FYiPugokpxHBKmD/bTFxCYh3sLpOCt4jAn7jnBwRfK0Mb3lGRHxG/7c5RIR4B6vrpPAtIuA3TisTwdfKyA+PiYjPqBdAs4gsA3JySZCTqwVyclmQk0uCnFwtVtXJ8eI0/qSCRFwBDnJySZCTq8WqOukssJk/+SGKuAIc5OSSICdXi1V1UvBSG3/yqy5xBTjIySVBTq4Wq+rk9QdEwG/8oU4EOMjJJUFOrhar6uQtYSLgN45pEQEOfzjZa/pAzKABYNQlbLbUKpdOHH5Ff8UcEa0MG8XJWhu5B2KyT9/88obCo8ltdvEzeDz9JGqId3ClQE4uBd85yanR+OPa9VPiGZTmTaeGy+3yFzk57WLLJsKVYaM46Sew/fr1H46lvNEHtfH89YF2p2dkPB69cb2Cd3ClQE4uBd852St74gVApbLrZMeeq6PjDaNcGEyLzpwDZmNDW3pyD5Bcdp1PJ0PHs5jSFergvGGcPBMEkHVcdgxIydGZE9iRvpRnsTdEhsiNfSwYeR6fel+iGmA2Ozq2e/4Znwtycin4zUl23BEn/J7N5ULznhsjkb/7z81Y/rx519O5cfHLFue/VR9pu/Ff/5dMe8/D7ZtO5jPmn/SZbBQn/U/7AkyJX6mh+G7ass+bDP1y/zyocEpiuOCU8eSc1b/2yJwUr4XpkGNb//Gwj3jO54GcXAp+c3LK7sjCKA3cyfCDvlO+N8M7jS7kj0jsCuo0O/yMlXxOZmjUWCi9SfpOC3Hq57FhnDzjDzAucrMi7oxrt9vtGJb/P/U6w/ZJDuceNRhPOq3Y+mzz5Rau76mAnvhzRrwC5ueCnFwKfnNywvL3dCLEnYz43b/1we1miPotekDmcBpE/t0DSm7qMuvPqYyC9bECLnHuZ7Fx0klvNufpEZ1m46NFUHDDvkftVDlUXX4wlH/SpNPwVAb0XhNqnVA62QD0h1dWpPP41+okl7MiP5xPhN+dPOZXcvw/fjm09d9cO2QuV8Lj/3CB/KuapIzv/rnvt39+E7MilT0bxcnwnZsOHvy7UEf3g3/bdeinv+hVKt5tgcY7YriTreoXymFI4kFri5DYMLCMLiQST/osvkon2zSPHzp4WLKH2P1IqDmVRPTJ8JuT9KBDIcSwf8LJivO7VS3dI5v6JG42QNhf3XAnZ3J/OqZj6RPftSK1PBvFyZD9l03M7SqhX3aznIVzWF2j7PlSaBKcd1Lj9+cwLCHe2iV6tw/YRhcSiCd9Fl+lkwW/7NM0F/rRdprY/zgiVT77kvjNSai/frMeYDQkebZtL553DehTFeyFgcSh0QfX63hOZl82gN47D+lQn/J6Z95PZ6M46Xdu/mXItkeqYDqjbVr7X1FQdEIcd7Lfaa8ntB6+0UrVPlQGk/fu1PJO/Uy+SieLTlqwYFzu1xLo9dAwy2ADJ8/Q5lliERXGQjQM4uegKDEvyDim0083bBJLF/21LEoABnxTUw3c+xmp+7+RLQV4pqcZ88mN5HznJC32hpSPj9wJj6nWzWeHgnd5kjPvy9n/ea9m5M6Zagj4f+yg7vJvQZ0ht7UsTyr1Ek/6PDaKk54HXeezIEX3BB3v38uCF/svepvvuDuYvU9zokb0jJvDP87VwwsRZXetO49XpFTwlTqpNwxg/z9jxt0uXPn1UjGj9sa/7optUxunBl+5/NvxZxSTfSpaP27Wkdi12586G3Lw0H6pBnb+X07aHPnebTxs5/85n0ROuX30yAGvxb1ZPgy+cxKg+OrOnSeCmdBzX3vyuWQ8HaJO7fyzBqZNtdoh9WwUl2a352wl1f3wz1IrNNnLRnEyQTGWNR/lHNl5GSu2s58dP2aiYj5RI/doCvIu/6ajYdMGUHpz56mk+fM+l6/USRMK0HQ3pbYH5TRq/GDRZ344lOvzN/WpidCkDrvtip1Ou+wZKf+42NVw+WZH0WkLqBcxIJUKHG0flL3ZTte8ng/ZR/VJTLFfiz6x5MSHTsIcmUzBbtNcOoPLZmABh0rG8glcJoMLbBr2q2JRZtnYP+RPvU+9zUZxkvdl8uBSyHN4zSOXOktnMLkcBosL3LlZOpOF/8zmyJQV6o3xVTpZfFKuuD3yonQPrTfh9j/+Zll191IF5J7TG2P1Z8l8+9+Vu+3PJULxMb2ZfrE79QH7rLvzhIX7S7bcHJ/WPVVO1b5eCO7/DAOIvmRDJV7xI+FHJ780G8XJL89X6WTZH//zu83f3m1g55489yzklHXZLbEOKLxsMN5y87fQxAvqHfYXU6DwpAmp94FQteVf/7ZF4O/32gq3yNLHdU+VzWpeLaCa73+BFSlvmFGIV/xIkJPLg5xcLb7OdPLEnfCUF21AsT7izi64Yl1++3oN5qTh0OPf9aldghrt9heSoOAPo+kesXt1XrvVUl4UtlELBBRYYzqny3En2Y7fRmElgWvmKJ1cNZCTq8VXWp4055V6qFZ/5oL5t9Y92oeTwOVbnYnw848hdJNSzysnb7dnHXMDcmASo1hAnok7SVa9UQkpP5tzQWn380+sB0NOLg9ycrX4Kp3M/eXhIL7lZp85JLbvLw9Hau4cVL6/XWeqTXCvyPH/uFtrciQWsveoT3XeON054XhU8PzVFHrev4swR5T2FTMct19IGAq8IyR8zH6W93IfD3JyeZCTq8VX6WSHfex8uzYl5I6QiWvkeKnsaUOr02aT8Ez0tp5LUFeqSy202yVQJwI8J2DK8KpYEkC7dhib/NShGxq0BcO5TN9bV/w+uXsecnJ5kJOrxVfp5NswvI/rpGiciKER+6vOF3RS6C4R8BvnFInga2Vk21Mi4jM6BHKJaBVYKSehS+yH7b/aThF7q88XdFLs8jh/clyVuIKvldEdPsRH5TPyBAqIS1gFVsxJLmmof3hlp5N5L1/QSeP/sZ0/+Xdn4gq+VkjH/058VD5DYGs9cQmrwIo5+aX5gk4qHgjjT342IK7ga2V8rzzxUfkM682lxCWsAsjJ5bl3nwj4jQsKRPC1Mvw9n66rNSCwiutqISeXB9W7rhao3nUpkJPLg5xcLZCTS3Fdkgj4jZNoHvRlQU6uFqvqpOiZHP5kjzFxBTjIySVBTq4Wq+qk7n8T4E/+zZu4Ahzk5JIgJ1eLVXXy/qUG/mT/6/X8yMklQU6uFqvq5A0JIuA3TmgQAQ5yckmQk6vFqjqJ6l2XZwknWWWPmwG4/c8+ZDJNapKuvKyscsTCHH/k9JVdUOad8KWTkylx2BfFrHz+oYPduaUWCrKyck94q/W8pCu5qT2WNyUnvTR2qS6fPfE9vIlAOp72A5Sbycnad3TYy8oqqDs1cbEnldXhYxH7U8fwcxaBnFyKtXWS7vAvfTpwC4QziQPvY/j+D6cvXrzuiS8ug9Ov6EJEqwxfOtl59/vn2H3MQ36EOLAcLLNtv1+8eEY4841pjHLEQ1uftOPWcZ2ut88fe51Z4z3p+KPjhifygWmx5/xFjcYmzYsXT31zIIcLjMCzPtg9oefh9br5098CObkUa+LkTBfRo5fhsfVUPnBLZLA/zeiLhCom0Ee6q5PKya0JxVTsZ1ISnzUCnK4O3iQKQ+KOvOEy3L5+Bsy0zQxoeQMMJsdnDsFMR0dqYi32KK0kIWfFO/DzkZPcoX5i+qoeyX+p9APNT2OM2j4BrKFuJqW/Iy+lY6boWQsbT0YTyudgprUyuRNmixIyKcA2UcYXl3Sx74OZnIQiPHmdSH0RrhBJ7psFaE1MsxPpBqhJeIGlh2PNxI2Rm39kexaWHjJSTp8uhXEzv/nD2A1T32cSBuIv7QigsWrMD91oIo6/CXJyKdbEyWojYpZHmpfmbbMxKJHNgwnHXZuv5jNH7R8obD8doCdwNJnNyj+79VeHGXpYEO/0IQkX3lSHNFvnESiWL+rXfcTuM9m29UeHuQollV3fns8G2rPTm/f5feLURO+En9LJEA8iaDNWvhXFZvtpjTUpPYNpf5PxWmWlm5tlQ299K9EMM4++33IxhV4mdeXn4NmYE1t+Cp8Dk4ej2PO8TNso4ce2HI+bgynnLb/LiSfka5exmmU2XZQT62OXX928y3iMW+BC9FNtcbslmI8pXmErdaccujSMGzp4a5mx4tQ7AZ4Z2JlEUmYNdNyUkJMfzpd3kkuZSlUsm6Li9/M5T7dQixgoky2AR0KJdSYKNeT7u4prlC9E1uuqjrfIeQ49lQqik2d4Lg5JmHRNTVE4NAv7YSiQzO/X9Z99LFc+5KNSVC30sCz/ij69UMi1JehBxAovwMI3TrJmxh1MBqfp+PU3WQb6mdUB5mSjbDxM++hPVP0k0Zt4TbwkU8Sf9VQ8o8dOobRcxLiZnCzl2u51MY1lKVU1NdWhYDsZJ57Z6yGTAeF/RrXb33qWo1oypPGwvFBCrG/ggXJTkoTbDG16foAvw93aUyiXA9MuZn73yqDi9H8I/BKGP1RvGollhShTDZbhZM7EdIJiI+/8t0FOLsWXd3LKYMem/7Nlh8kwFs95urR6KbaXKhRQLXQYUCT4ZEhdhA4u+h3gq94XL1EI044GC3U6o7Lf/bBjr8E4y9ZpBIrkCvF0crQXoFD/RaWMHxf0zCYTHjTCqJLOp6308E74xsnayzv+86/bf4vBS4RNZjEtym5jwVg6qZgI037GE9WXPKBd04dBUvUfsFGbhTr1qGI57Inuuu3QIeE+6rlt644d25TbqNYPSNAhH0z2UZ6CCrWnuVrFDbLhwPZV7K6TewJUV5GXSwhWuOYn38W0eu5aHn+vHOJFHfNsL6WygPlYdX7V2C6zMLzO6JkCcvLD+fJO0gqC9C9YB/EKLHMejgOtpl55yoUj2iYc6JcP77K3hjl3r2Hw0+9//POeo0d+FFtYQn9Y6p5HUGjBHMMGc7JYHnPSG0gep47uvlZSppbJZls6DgRJ9ADHRgfPg60gfOPkWHyAmOCjiDZ8vrQm02hyqk5SuDbPSVKA8ViNShI0mD1jjGqFDWh989vvB3b5ZKtlc5h6eiMwaeve6/SnbVBQcBPMav/tt98PbXVpszcjQ6dRVK52Qf6DeODEqrWnq6QD55nEQoXN+KPnkClcAcOeWZAqXAsDTTQYkDMdgj57u/nleNvmnUz4Opzkllw9euLMiaNXolxKiEMvKZH94+jRo5pLVGMty2DsohnqZgOu/H706DkszxD/eG7IPXQK+/n6PvrANTvXpDxZq01YgznZDc8knWRKxw3MudAtFdrl7IjdiV36ub56vRHXlPRNPAoWZskcknDnbWk2bhOQJV6A5V0nn4io6kuIF5ZpFHCYZvZD4dK9wDTX2qhOYgQujL9uMn1CY1hqmOiNNT1MgVFXzEmt51Bv/JQ2ohnaY3JZT98ytD1Lo5jLNjEegTEL115rtfn8xbjFaV1986CWHidTMnThThYWSSQAN061I1c9HdhxIoST3OyjR4WPfHOtOO748fuHv5HkLetDcrHqhReGREX6V+Zkq43+5R8u6VuV5ixa/D1wn7Cevr64zyfUEHbb+xPRS8bFjqjo6ysrlNCsNCanAm+lAUTdfPKBcxWsiZPdz4jmKszJDugzPnG5nGGhSIbkWwlDDvaEkzoDL1SaMX/LFhZAH5KYnxOFZqo7Br4Xcwd1g9sNzABiFPPL1PMwJ+1ISYKl0CVhvMKVPHzkJKcom1gJsMk0kgr5Ege0JupuPoZmOeOJGo1UwsngUQ9TrDBY2JmnVsCBR8qVUHf90ZS1QifvmWRP/DeR20ALkRmDF1KxeZolXWr+wLCS7mm57wskYyniB82tMxK9e/SbqyXFhiKCh7+Vrioqx3KrCo8pEKTZNX/K1+HkYOGrBdayNbHbBbV8kNpSlGASNI5d7lMDEywzHiCKJ5EJ+tUwbK9vnIYlfJ2OFs+KW7GykZW+dyeM5Ja4m5T2PzLPwX6PbQ4GETNAbUwPM/bqpQWeuJHL4UbqO2H3qpZM3qry4zKO2L9MC98hD6NxoFqrttcpuBB/mWVZEydfQnW0bMOyDacP5kG8mLGnlGnXqJk5UOxse7nuimMDBg9DzIV9p1uaeDNlDtw1ncS3zMh7Wk80TmT3q3iNegt5xqvfSi2Uz8LyYCaUBiXlR+oKKz1Olp/SyZfU64bMAttn+4OJXklBf09B7bFKhUSo0YqYG1L05ObJmIU8lM7NksthQ6mKkr/8/Qqu3gMi45araBuofS8ByqQ0fHRux2cpFFFC5R18hEV6J3QFfUzFYmlDNS9bPZOuFfG2sTeqINroUYi2cj0w7VWIrEqLXgCeYYt5sKbtk+XYTXyBBMU4gDqJxAnTM/LHTkTOUaIuHdiu0QlBoph+8ES9bMDuwJEf79bAuNn+s3eFntBL5H8/st9uJu+65r2fROzu7r1fC12Wpw6ee0KaMvxN/Lef3Pqsv9sbMZVw6tBhrW5uUUAD/i7jMvaY1RR91wFPI+y9exXVlLTwCpQPYm2dpEeGYrcV6lPVCuBEH/1RtgPGA4OB9jh8hPvUkQRd93YccGHSI0IG8JPHjQPnM+QzDjuueVnWjbjGQJ3wT3eifVNrHKo4rEcBFKi5t+Mslk9YWfjSyS6fNCyr1GdnPgMlV3Ya+vtMtzoWQLtXBn3C6SlAyt4dlzKgwqEa++kU3NlxDBPLx2phHbLsP3ecSmJjJcefd9j5F1Q41sG02Y67Ph6jMKKw46g/C4rcsRRxnmytSl6L6AvteoCI4ztOYY/MBnkT2bTeR8l4piXbaj4Jfpsv4SSztcBDKKqgk8hu8ZxskE8hS/2QTwtTrS6XdadWX3agR1zzyy/IUTHpz9VvhXZtb2a6aDbb81rCVIA/FXzlG7NO2lDLr0kN1QlH0JxkJ+CxVAFNancT2UahYcDen9V63YZRJm2xkB5PyMsmFxSEiiVQXHEnIe2b7YXzj3wAa+skMBn4H5RNw34ZrOlJ7M/HZTDw/7nAxGv0ZyemsK+SRuP91bk07DAP+iSJTmdz6UzgUiZJLCaTTcdeAH8W9owZLFxZ+NJJ3lpY2BdM4wKXPEllMrgcOgs/Cvj3BuypiRkO8L434JAnSNi5jPmvGT9AmiDhD2An0Zgs3km0yRne90udmMaezaS+zIex5ua/b96WOc17JfyPOA+HwcQ/BevlS7/Jl3ByXFXgP//9XwLGRMo976RCyqSR/Ax0PnwapV6LlYaMu5L2/kNAYJN0M5c5NjhSpuM3+sh8GCqMI4A6NDTiqdaQK5gIzSaBMKgY06cp0TH84n78lKkcBZ7p1ww5BjFKldKB6iXaMf8mMKXyr28FBH72p3AdeU7W7Tu+8NDyrLGTfAFfOskXfAknWX21AQ+SaweIu8iCk2OOtizoVXnsKdMCXD/r1qgbj2tqa4e4MOO+Z6vAgegeU+sxqLOKhHbJH7b+/XJzgVwxb7dfObZf5n9t/X7LrogBVysWN9m4pt8uYPaZUi5wYmUWqm0n5JVza2uxMheb5+SMkfA92w+esxk5uTzIydXiS5Un9V7VxC84OWGpQ4MGsdBwtWZgOpq2PxZt5j1OS7zrnhAoFzzoajsKtZYx/VbaYYnaSg0FCqVQaxEOfUpPu4xlEhJTy8aGXGzZ3GdGuJNz+arZQA8WbeO9Bl6etJu/B7BwJ7nRcukJssm8Ax8AcnJ5kJOrxRdycqTi1WAXwslUssyRUYh7kJsnEwlDt0zJ4ffL8Vw2zHrdJkOJVAAtXqoBHgslNEpHAOhcai6QLyGcjJm218Ve079m3NmahTvZax8BjdceQc9D9YW6pHFZ8/kewZiTU1B235dBdZDh1ch+AMjJ5UFOrhZfyMnXiRaLBKgRTSBp79NTehAyPeZ6U/JP0SLwuVzMc5KZceWevrmgDXSrXDPUFo+ddDol5Xbvcn62SD5U6gVAj1gYt1RdWu6GYu2YlSGL+1S9fEbzxPNR54sygrKl7IYUXivQ6H2iqpdloTWWc0K2B7tWGY0PbPtccyfbAl288Q7NnVHuLi4uWXMwmuyJBSHzOYl5Zpt4fXkGW3jVWjXzA/aAU+jhEoFlSljpLi4R2COjsS6eecSC/J2+LqnYvZH+ws0HfyFKkkvQazV/7MpWXiUEo6x1voLi/fClk9RiX1cXF39ezfyy9Me4uYTM57tqGufHak2nerh4lzFh7Jmbi3fdyyqdlWUNnKwMrsCuN7hm1FNR54rdOMCQ9fk/sU+R59nFcxKmHl29l5QYz4E2NXVb3ThoFjtvnpZe0xLcAb0JhTARXMKFItFzSk1ATn3G5lY97YaIu1GsOZNzYukApWG83vbkwPj5le7YKfFTaWK85qJsU+zdPoS1drLV4NCeA6plNHD//oc9e3YJFrCf7xPYvWfP1STiBIwZJ8kMbNOjrNWKXWTazXDeL4RVrrx/zwFvKqvgzp5d+x7PUR6f3/PzvQpcSu6Q3YE9VxLmaLnie/cZtAI1+e6eQ7a8RQV5lJ20wltVuLl/Or8xWPAd8KWT3ZJ/27lnzwGThfaN98F6sufHPdde4GHTBW1eIzDknduy55g/FRL/+GHP79Ef2APlY1kDJxcYtLaYd/AdcIcyMzKMDJduV11d1sRJ+tTCfXdU+WEDbSxEoZxjJ1pDo5EdHIef3XxOodHobOb4NC8RY42E/PRHEdC7zP4l0QPT6Td3P+YdpwYkzMxFCheRvGNppBChik6/LFqnmSGeaWeVunXRAtQrhvxyyL1qJux+9yJatZbzwptO6f0vE7zD3oDmTrcPSQD4yUky3haB06ppMUij1dn40aZGWgaBO9zI63nB7m3sxu5D9M7GPhZwp4d5+YqpIKNx4OC5D4rN/3443wgcZl4LHOyL9jDvBfaH5CY+hTV0cszv0Xuvip2y94cf7pa+19tVYk2crLEhirusFKlYbNOjG0N2ksXv6CGmTcn3yniP9XvG8n4dk54qBnrZ0G5ioGbXATF3nR7E8ETizGC/rSqpUDIJy4cW3YijkNnAjRLEOxdzaVi+tVT/KQtvq7TXnmCROECz0Se63FGfy/7uhb00KULtlO96Sycj/YhfWquuK/a9TDtbd1pJ7dSitsgIfOc5C5zKO5vPvmCz4o4KXMrnMGMteBWSvY6247zMPD3n4RE7XjrJcrRox79mhqXJ0Ifctz6NNXSSQ5l9v2+U7s7OkdW6Gb2XNXGySJ1oQJ22MMJLMZzBcaaDFHaMrqs/lHQ3n/cYrWf+Js7s6UgzfwGU9m5fxxYYrm9SiVpokQbIvRvPsyr9Zhr+Dc8GSvE6QuNEaPD62I1q6/MyXq16xFAFKNXyF/YiAbfgYbCY93pz0puog4dWHQfsvlOh6df1UDy0ucHSLP3R1UCoMgtNd7WoyRCxT9ZRLuYOt/O+kzbx/9yxMxD7thu0/R/Y8SoMqUbf/7DPdBqm1L7ZccjlVbXlyrKGTn7FfHknp22P7/3mwHFH/A49pvNovvSC/Zj27D9+/LBYPuvF77uPHRdMIQ7zyDXilXX8rPGBe4NKT146OWit3Y+72Glozet+VygRRSwi3yK2wwnzjRb++0VcTeqjn28Sy6qNhbrXSLmSoN8juFzaY1052Sh2bNvm3y8n4xfVo7D1yPHjZ20GBjSwwvNjsWoALbvxJ8ojMFvX7y01DFX3PBa+x+w7st761x/DTLRTnbIFz8lBiav+1qJekz0iV/3NhENe9eFeUZCTS/HlnaTEaN0/KKXFWzN+TMdjoUXH/ZiklpZOFgdST9/V1LJ+2Z8SJ5PnJPORDe5kzysnB2xUqvBtp5EWr9IwT8x+QfF+R23rNBYwsk00QruxBDhV/2FkZ5SksHN7URBlTsGfw8zw40zLBRGnvxe+cbLXUfPcCTXTMjyp7FI+oayl5dIKfZpBJAg+eFlY+CeFKg8FvO6PbKlOwVJAp4XxM52ZY8BUUOmp8p/kajryblOk59gt7JFg6XR6IzCd7vO+5pXnSzvZHcKrs+kJrpvPt7Iyc5fMAjDSVYRF7XvxsDu8nXcuK0dFRNi8A2YfywqLB63wqPk3WZO8a602MayA7KjF+5Ka2+cc5Im+FnH3sFv6m7zDySZbTbw+FiqNDPBSJCddkjd5AQFXR5x3d0+XiubtR4glhQvfsivSO2aqtvtcapPKaROVXdezX6a574af8q4vx0+26HrOBz1a0VQIP3HttqBSVIe7Iu7krKUaBaZfOcnDwyzX+rChzq9/hL08nH8vG99ws4TmixMrzhJO1ld+dBmufOmBYEs4WXMLK1MDI+7K8/n9OUPLhRHzbzCus/fWHSt8gtMpiyO8UhFM6B69esuwHdpu/X5LyG/F52F7nTVxsjmIaJfgFIn6Ypu2h1FkJyl8rAxG/J3ctzssL+3kgJ0ZbyBfp4klnjqyCpS88F087MP+ShR91bYarEiVKJkwVYn9zCIe8P7+I1Z/HP7lL5vcasyOH97zl11BH1DLz0dOcp/HETeZVh27+R9Oj9YTCkQ9xDISrW20QKlRoFZ3esqMQLWQ+8L9qAcrhDN0nds8/ziy/6/fGODf5lQdlhREKrWMNVGAEai70GdshVnsZK6g6QfcJV+HnXjt9fU1XvHKyckWYlz8lLVBM8Cwre7AcFJYfCcwrB3HYCgyvJgGMy0F0fX9DfM/zFbrON4WGBl/HuPdl6BjvnqCXaq29HRfK8iaOPmKWQvZqJIsc6kKsBYhrjXmSibvTkkfHF+4Y6br4OOvmB7m+Cnd0uEMmBuYnHO65llaWjlGNrodUlpaMdl5VyizrLSFOjswPZemlVASrhnTZB5YUKKpO9iiE1SSo2Hwcsxf9117Xuaj+a7zh3QM5qd08iXNapbzvbu6VcLJ0GBqWZRw3Z7yQiq8xFcjK1nYNdtQsYA73sOrEUrRSCqJnM9OjD0wnICpblqLqUtJnKY/qcrCryRCMWaVKnnedpKcJ/azzUdV83Inn93Yu3QJ5JWTZYZE/omVLPUMy1cpRHa4HvrhR60xpq3z+ITVv7ZeSWfWq53d4535aD5DUKRiXd6Af45qG6Ubebx0sk7MqaRlDphpwgHlPfM539VijZ0EstuvAt+LN7DBQ4XoU58iWchzcaEtBCPPBr9HMUNc8VP6dLCkoM3t+ZDh5u82C+yL7lL7RmCzwN7UwrN/3yKwRby52jWbSw7YJXAwiMlqlN4qIFIHrDKhzZsku19+k6PK/rz8Wa9yENHv573wpZMdZu7z6WSfSRwFOLXim77V7uUynx3959lUBiP68KYLOWxmrDmvwDD39LjAbxG8HANZy5kC6ca9rOKbArttJoGZfklgt+sXqnfllIuYay1Uj38YrOeCjkrvdZIzNfhUrnCQN/gM2sTdWdyEh43RJvmkaKG8WXu3fv9LaZ0WcjXNcuqtVDp1/s2fHfrbpl3xDCB5GYfdzcZ/N9y8I38VOB7Joj/65h+brpcsPfRshVhrJ4HUUFmNt1ZOjhB/i9mh+YwGY3hyIZ2kTuCHuKRJ/BTmKJkLtOFpxkhTTWVl3QR9qKG6srJ2era7vqqyqmOOMoSpTK6rbMQ23N7qyj7s+2N3VVW91qGFOTzF+1IZw9MfcsfjSycZ48TXxxwj499AX1U1ryj5zKUUyxvMNVd1MrFEpn8+UaI2VTbNf+vskQkOTPfRgdVVWY8ntLT2yvpVq9F4O52c7eiytP4oJ7nTHa3ai6bD4UE4OaHx/b/+16bvzXh3n1ljZ/Koh/301DATShSyZ+zdGz00qVAhElKr5vbyt8B5JB1ZYXs1A3LcKtLv8fKsjMRrgZV2ki8m7WSTK2TFVykvP8+aO8kH8KWT74KbE8mrT/wqWFyepJh9nJMYIxovZ19/A8JJelmM2TWPmGpeKYUbZ1GbKZnGZXj8sf/HvTlUe89Ca6s5GFYNLDd81ezN7e0GaBd1qw9Mhhwh3gQBnNFGNlYM0JnsHgBIEo1YSC5WA+Tk8qwnJ4ft9uktWdW4Jix2cvLjnex/v5MYFTrzRWuMamXvYMURRqScpvXDa7mz9h5lzpiTffJ+5aaJb77xsGFA2Nl91w/+/XbJQgJKdtDgmV2pH46cXFvWk5NjPirFRPgV8IWc7H6+0GwNo2oH7gcDWdUGS+3OZVPs3dtdRaYh6W5CrTFWfiRgvijB7BVNrbSTfXBmkzjeOEspLQKo0gkfSekBiFSo/JAyz6eCnFyedZV3/ar4Qk6+Bsfrv+ysBprvXZNotT1PZ8xthp7fVrITsxio1sTyrgNlvHw9PVDT1UVbl1fpmHmtAMbKO2eeadl6KJp1D7qYuTlJuK5Sv6Z5kJPLg5xcLRY7OaFv8rFO9ioutEu/yZJOQpmC5RT2HPHd94JDM6ciImcgYc+uh+3Q7JvHhnKv+dnl6P6/7ZKb75NdbFgFTT4ZwAw9tkuiFvuARvt36a2qkmvt5GxvW0tLS9t8NehbzI3Q2CSi+ypepd3eTzQmsknvrZufxl6y9WVm5R2QJhi0lyPGloFPnSS1t7SMY18cefZl4YdOeld7LHuyE/tDtPQu6kIxR/qQLsFvQHvnu7zNYienXT0/qn0SY8gikojeZGknuSzet8GgzrG5HC4+Co1LpWC3AS4br51mEl8Vm3cMh8PiAIfJ4h3ifRNMKuVjP+FHsrZOMkP2b9q8efOuYKKfxetwKkzr+h3DiT2YMt8pTvQqGLdbGJC0BOwRy52bN/9giDeBvIdor+4cPbxb0AfAl05yJ2x+2iygOACzfqFEr0UskXB8Vye5UY0fBLC/xK1FS1+/cP7ovq7FTh86l+liJzlk8scW1dikN/oIvmRpJ/mAtXWS5nzDNT09PatvKcdm2sntOgvLKUK7rncVYe6Ipu07neQm3NFMy3iRYiyRThxZmuHe2aQHL8d1vR++dLLfQTEiPUH84TDJ3u3lDAs5ukRHz0X03ZWKS09/UbaoKTJO/8MnCybI1OMN4/kAFju5giAnl+eVk62Pib5ONA8dovdOWkzIdaH8tPu3MZXIjudPqbdAZ0RPl0nIQHg2np9qVdpyNic5aQq6/RpGjJyxP/z1k7cToTck7PZpoy6AQf1Twtjfl9uqbsprzx2wNm8EqL55yj6scCThmdkFkyqf09rYiXXKJ//0JUF+8nCa/PzorUmz06LF2Dson5Kthb64BIMLttWOp01eTRXCR05yMpOIPFeJeAD2b/jtkMhd22xnmIGnTsnW9CpvOp/V+LgBRpPSWaMPT958ArTYON7InL4Hj/ANlnl8Gm5z2qjR49z8ElMNdzYJldc4yurWMkNOnZQuh8oQ71NnvSZh3OnU6UczkBHkf14CHzTw4uwpq2HoCtW/5nxl051KqL1xUmvZfAhycinWxMm6hXW1aB6681NXcRxvG+n/+YeW/kWtvhEvKUXlCw4zOcJFPSZB4xnVeDa+32rvzRxLk34oF34+bOxKyxEVV7uq3Fp7X1RR/LAjs99SUPHOwwog+XlSZ+0lg1oqa8wfsbs1ryrJXA7pVLlvoXxW3EL6SsBsvb6YmvDVHJaHTtPzeSeHg3RUHpg0dujdVbyl39YsK2Yld0bGQuLa45c5In5KJ4NejguRPfsUKzaVFD8/cyJsPPy24sNLtnW2B2UqcuTSod3CadBfTF1Kt4aWn89LGvse4IMBMIYkrzvIXJAykj/vin8B3UqHdJqfHhLyrY24o6ByyXI46bq0/I0/EkgJkg/lpXIplke1Ve6ad0Pm/Zuytz0mqh9c1ohROKja3qwjpHLLZLnuLsjJpfjyTlKfmUv/rmKegndmpXuekzM3twge4HjfSYb0n3whTS1vKBK7vz562FcgX9ZjQty9sbyrQQnLw3oQquWyho3dKPlYQbNB51mTlOEcqCpP59xKgjZJY2qrce2Ir+BtZWXTbi/TwSSRJkgXi+hRFx8E3avNXA+jvuqYaZhTeDwXaNY67yQ3G0sdxxKq426XQLmQb72CPAkU7/bR7ec7Y+HwjZMDPmZXzhs5VOOdeOnPbvypbR41CzSvYNJcbCpAinZTg3UJlKplQ5eTd504dqi8aqHwNiB+Wd/c3DadMiEhOsmxvlINNqq8L+C5bRPEnckEelwKlpvRrsi86wsjd9w7re0BiqqmLU5mQINcLMX23iQ8vpdRr2AHUGpTzvaTpkCF0svagHeAnFyKL+/ktMXBH/+++6ANPkqD4fXzzoMHD8k0cD11myFfsQZSjfOA/iIqUlp7kOckcfcGqFV/QXHHnKyRx5x0AmiLe2Iu96L+YTQdHC2HEqSagWmj1vnCqsVfsx4K//SjBDtU+uuNQJ9FaIeRGwlsrWgzIZZ9MJj8xO16FP2lk7THUnhSzfBXGAKytlWevh+NZeLKHve1WxhtzT9ONtw9IPDt/rMJ8zWlVJtjB88FkEiOHgPAqIwK11RrLTfMZJZgTnY7e/e42oalvbxEGJLYtu/gwT+cpybUrNhTgfZj4MRb6ALijcvYSXjenlkVFa6lVp/2MB+mNYNHo3WDoweAZqs6DiStwBZHawa0S4WUaQdxINOoYMr8ss8T99sO769o++JOcnrToyMjYyrfN/KAM9Hy7mp9bv/8hDSryhrkXTnsXNUmvOYZz7uqlrHZbA6X42o5CDlylZBiXESL2vX99k1qQ4VvOZlOcbcdhioZzEkXVr3U9m0CZ/Pq1DNZXHvL/sciWOnRXb8mwLbAIBjLcRmXcIICmpx0eU62m0fMgrUFlRRk1T9pvHPb1m/CWS+dpPjxFl6Zc5MaAoaZfbZpHINu5MQc8/koJ2fxlW1WCfKyjRELTnI5DA/rWQ4v7ZudwL/pBNWMSWePIUbape+3fSvWU26YwSzRyIVOe08GSW/b4UcTC+lk3wOnKfwPAcO6njAZgN0x5xefwZ1kpqrVAT39yvc/fCvalqrdAOMaAUBx3va9xeCcsz4ZxlUDqs1s6DDwMLzE+BnuZP6M0d+3bfvxZNgyP+Av7STNddu327Ztf1D7ns9Ff662aFD9ApwchVcjvleNNSlPVlsQ89bRPLTn51bmulphTspWQIpJcfn94JEhs8XpZDrF1WIEnt95MWLs1e+q1jAeq5FeiztpZz6aKlkHs4YaDUG2qfoJACXG7X0OieQwjSFoMwybd9KcQgqy7g5WyZ4oEo+mvXSSGYOnkxRSqFwfjCrb5POcdGR8nJPDdj4fvLrgx8Gd64lIpSzTPPBaefKxD5E0ZZvh33Gd4eNxZ5/Jdl2LsSEf3ZYyoxx2sVI2VKq4z1JnJstsghd+nH0PvOafyHPS33p4wck40yp2qno9NOmZjQ4/0qnlOakeQKHNTHbohw7aSw9Ch5hvn7MRHapFw8uMkziQYVI85WLQMTnUs9xw/C/kJGuO+FIoTrLpQ0PNXnaDwJgYGacDlzYzReYCZXQMv/HNjEwwgJ6qXAVM7FEa5iBpZAzbUIg/AK3q5nf+H9r2+umsiZNzo0TlIM1dpYzD4XC5HBeLAciWLodk46LCG0kwKC49WCBb2mP8CLjz30eN6nOKt0Q+xfl42qiRZ6+t5iQ438moUX3B4tqakorv+FOyxTymU+zzDYI59eoWrWbmA5AhlDEXdvtJu1n4LFiZUUiBVl3eKk2QtN2PFWDamiZbB1zgpt/NYFVbJj67FUuNF46uNY5h0A0dGGPeth/u5ITpP3Renr2yMKPMjJXxCSvex2tOTi+kfDVqXtMcjp9wxqST+2izmhOQVGXay/XTWUUXvTlRf7pWWZVBl/tTFvH19ok6TuF/CRjWdodJP6thcDCcd9KwhJmiUg916g5AVpdqSNGswxLGkFr/ZGBYRo1bnM2mpUg/ZzldrSU5SpZXGyZiThpksqKlm6HIJJH32u/mCzlZ5UJUolNceR3mklSbuRHHt+3zolJc7wqaksgWO/cHsKFNetvhx8B8rlbDjTmxba8rGSqFt+3zmeN6P5rPzSZqqShGrNN08iUMl207Dh48eMxjws24HzLFSiFRp3DM/OcD2opqzTkSxV26/n2BL3h9S6oVkuntCttu6FzPGNJxoKWf2StkrhRWppjG4lroTc9EXvj1gPkQN1utOu3yQUX5f+3Cv/wp593nDBUiWg2CyWBqMDvta9LXcvvH64b3PCf99JuTJWsr/SphMvjygeO2PePeJ/YdcZ+s03nCoGtbM0bd56c+xVnOyWozBUGXVUonOd0Rijaty2SMX3PyJbQKtSMHD16JJNG8dxr2Bew7LGcuX9Bz71DWmNmucw8V3QZ8sNKm1+RcVBRv+oUBoU2/Yn+J09n9mk4w4W06BNbzleMlZy8UJCrXwKzv/t9kLeSz41VrYUzRdzL28sEDJr10j6tiv12OJkGr+rZfriTMlWjHsaHu1ImKcZdfDx4yIVZQfydfyMkSbWIoDOZkK5atd9btiFdxeqIrVD4ufv5x5bC3fbiTXnqnrkmEoVTS3Av1qkQVhyeGdwv7nbWeuGpWsxub5v8APVUFtpHL3B9XgLV1ktPob21ubm6dSWmuosBQ/hj0lY9Ch6t5Wl3NxHDB2GxFx2RBIy9RnSju40ClnXd54TC1og5IcVa+zQ1NY8UDHKipoAPlqYU3Vi5sV3s0nGieVOVs21cR2gbUx2GBDyNJle1MqK5kMVqrqZBu7V7a3EJpqyT1F0725PUAkMLNfbDNRKhF4BBMVnRx2OW1HFpTzctMynJO9qblufp8yBoAnwB3ONg6cFHnmrdYykmAUntz8/g54LZ7Jc0NBlhFd5X3M9I9mqHP1zGroZk76m/u3QzMsjLebA5zua4W2F/CvplS3gD0FuyLqi3nfQEzT/07+konAfoDLZ90VfT2YDGtuBmmn5pbVQHNUzXCGl+sBVqtLZIoMILPi0GJ8e2CYRdzP3ySqffyJZycdrn++7az1/3w3pY01wMnrl+/Ip9HqanD8gYS6cMKanSol84AblVN0q164JqaT2eoV9XWAIxKJtVpRgE0YL+wl/SYPl7vTq44zAwFog0jVt6js8nNylLe9gN70L2b5cuTNCc33vyyKw+3N6uxarnRVUs7+SWYsdR47Rf70XwJJ2ceiZ3/+YZYGN4MO+d65LKYmGIy9pnTdNSEr+SM6FozOM+FC/ATw368r676u2zfC/U6yNRVE72UPvZEUc2KqPqYpxU5+fGwo6XVHj3yeeQl4zoNxRInTmh8/jRjyzs55ei+Sk5+EGvnJC0p8gMm/nsnXyjvWrbQR4Xiqjc/2oOVefO3k7+dzR0xdgN2yn1eL+CIH4+cOH03dOiFRlXp3UMnDp9MhzmHE2ccel7ryImc/CQm1Hbu3PmzGK+PzsqAnFwtvpCTNV4vy5Oa832cyXJ6TMgXzRo2csWKm6LZWNa8LVEBy1EN9FDTNQq1tGhQKpo6OcCCIbWE12pakZOfBp2M8Tl377dBTq4WX8hJDouojKY4PqycD7QVq9vsTqQO6zlyoU3GtTnTIKBcLqArS9F+6rlKkYV8ZbvziYQSm8c9eaalrKmXYwlbDEORk18DH+CkvevX5iSXNUelzI/4I+CyXhX9OAzswYUhgguwWVwOYz6j9vJX/BrcOSrRmjnf4QP/l7HwDlze8zgcLgt7U95z6byX59IovGdxXg5IfJ16gY8edPLh3H7p5EsoHto1vICbf2nTOceHqT3mHmxglYls3mU9wSi4s/l7rV56hnZ99fVNpxyUE6eeHN+8L5TK9vRemNW0zWLd17vyB8s7OWnrvEr1rh/EUk6OWu/bvWuX8Py6gTwGnV8OoeJk3dyza9cuOWJQDkGcRVuDDW+hFsYL+8Xj2LIv/mLL6wQw5JiHGTgQVsXpkNwlxpstoz/8Ge7p88RW2727buFVJs3iu1S6AKqEd+0yHAbG08O7VOaLcq9TL7CKkwMt4SRnuIdoXmTUPS8a6p+i9Q9jNxBO4/McLHfLrkvLxP6MpJ45VsPzgqH+SSCVpuVOAreza6FrBa3/5UTgqwdycnmWd5LR3LaSmeWPZSkn26TPWbu5Kanzlu3m0acYRUTACj6o6oY96vzGdAzuNyomyucniw/Hi1hvkvPQ2FI2AnvCoPKvUZiAJdrVvcZyLnKmg9gNQOFnP+y3PetpG6Xp4iZp0gYtOrr28q7DnXY2bpb3/Gcr9Kzc5B0XtY20/ee+M6uFzS9SxLvwG8jJ5VneyTXmlZOc8gKif8H8Gj6dDzUmgeIiKeNMIrn8fLUQquQl5bOAEy6Cd7yPe9gMExaSFnjVdI6apaZszUg2llCky5hZKxTCbJiUUglA3lPeYC6WmwQJfFTKIUdd9GwiB7gvjPvzpdIhXTCDWWr958VQzMkBV/86LH0tlwjgpNypg2fyyYP44Fd75fp2LOl8rpaKv9DrtP7jpvJqEXpYgngXfgM5uTx85OSrdbVadXgLLj+RqB31OX/5xIn4IZutZ9LLlY5f3qvQDo9F8IxkiFzzhPe5y2cMepjl0ieUL16qKRZ7wckVPCYrIV5Oibh07siDSu7zYN7kqCR3ExrkSERDqmW68jMWTEf7jD21qodqFd+ZPO9w10As6Sx24RUP2ySdGPFqvdCobIfvgrssL0Oco53M232Nus0fONXDp3D3PhHwG8jJ5eEbJyfTo2REHid240Uewsks7eJW21LgeOpODmvGQ6IzB5pVYiDyvG1MTKii/XC6SBnUKgeOmGv0gPLvNWXyubMa4jOz1g+qGuStofum6UI/3h4rWyZUC+FjAjoUElhQ75477WLbCa26Nlghs9UqgAOcR748fUNU8kgBOkPQq6yPJ9rD6kZYhngiVdx0UZm7XmCVFtHDeVXvymcgJ5eHb5ysufj9X/9j6/4ovEGNcPL5wxIuuaU2z8xwsl/lCbCHamtjFOIh+udvvv/+e6Upip9gVG2GmlmNWhQd4rSrSxXyek3dAfLVS9P1coHprbEwQ1ajvh3uJD6VaptCAhtemPdNm1p0EU42WQVwYcYS/xjsbMkg7oiT9oKTJHdNvExbdWaPz8vZyBf4Qm0hfAZycnn4xknGSK+1fvsgb2QR4WTkvXJG5BGBTdtNSb0PI7g9qgIC35zKgIibKf39AySgen73rcDmn8zzRJ4w4JlBdalifq2WD3CLNQqj1IqAE6+/UHE76GDDhMr7+HI5rbiTsaZkhqddO7Tw1rlsxJ3stU7Cyp15t5ymgBSqPQg9yoYsIPnIpOLpNmO4WtPy7ZGgyMmlQE4uDz+VJ4PdiKBVB19jk+UtUl/xwK7khaHxZK9KDMVbOLUkXC4RHt+f73I47a+QUFpaM9ysjKWT8Tp4Otlj6gFQoF76XC8PmI9eppOzHnpUSJNKwELMSe5UoA+HG2dSCWUKQRSekwCZHrXAenY7kATAjFfsgkplTxi20SomGiYZ2nL4yl6vg5xcCuTk8vCRk9y+LqL9rEXXlQVQIm1PyrqWDV3KRlM9Ks8opjIAT0SeweN782NNmGnSdUAKSBzxNuiFh0dryhRyGDYqszQbsap6OTvou22yMGKN4yXaz3HQxpe6x5yEEudigEKxpxArWMCZd5LmETkDmUpP8LO5z28VwWPFoglfQ94EKxn+NOhSRenkB4GcXB5+Sidf0vFg2+Vbt65ad0G3zB/3jOUVhsekrqXGnL2sbCIYxg66VDJ/2pjLxVvnJPLpzbJnVK/fqigSTYeyB6duKkmVzoZeuvKHSBknIxzPA2NFRpNbl8Uz8Sb3JtEY7hN8GoNJz+s3r/rjI7XqDLxgTCMeplT/2yWhW/KZMOR2/9qdiNmSo9/fFrxl3l6tdf3WdfNFI3SQk0uBnFyer97J2R2LJ4gjRcmKCAtbdeOVLioPokrjSYwE09wRH1HdkpQydnX4Qh3oqKGwCiYG94W8YWLJYG9sB0CKqHxWZh/MBIpIFQJkPSFm8GjSfBDNy4aOxTZya3PxPmZjDsK2vLUzRjLLgJzSCqQY+QfCwio52OvaCntOQruDDPYpbAagRFZYe/E0N8jJpUBOLs+qOsnlsJgM2hxldoY0NTk+Njo8NNDf29PV2d7W0tzUUF9bU1VZUVZSXFSQn5uTlfki/XlqctKzhPi4pzFRkRGPw0JDggIeJ3zHyzDyH8jJpUBOLs8pdSKYh8ths5iYR7Q5KmWWPEOanpqcwGQaGR4aHBjo78OE6ursaG9rxZxqbKivq62pqaqqKC8vK8XMKizIz8vNyc588Tw15VlifCwuVnhocKC/7yNvT3dXZ0cHOxsrCzNTI0N9XW1NDVUVZUV5WWkp8QeiwkJ379y+ef3q5T8vnDt7+sQfx48ePnRw/697d//841HVvz4lPhufgZxcCuTk8pwV7W5raqirriwvKSrIzc5IT0t+lhAXExURjiVSfj5emEuYSpZmJkYGetqaaipKinLSkuK4RbdvXLty6cK50yeP/370twP7ftn980/bt20R2PL99p9+3vPrvkOHfz9+8vS5C39evX7rzr37og8kZWQVlVU1tHQMDE3MrWzsHF3cPHx8/YNCwyOjnsYnJqemZ2TnFhaXVlTX1je1dnT29g+OjE+SurdFEB+Vz3ivk1zqYE93d/cIb5TJG8zNsuiTtMXH3wQ5uTx86+TNf/thx08/7/5l34FDh48eP3HqzLmLl65cu3lbENdIQkpGXlFZRU1TW1ff0MTMwsrG3tHZ1d0LUykwJOwx5lJcwrPktPSMrJx8zKbyqpq6hsbGpuaWltbWtvaOjs7Oru7unt6+vv7+gcHBoaHhkdHRsfHxicnJqelp0swMeXaWQqHOzdHoDAaTycLnYF30Y5zcvriOhy94r5NzYbs2b9my5eLi7ncJ7m31tmX4QJT3gZxcHr518sLl5NS05+kZmVnZObl5+YVFxSWlZeUVVdU1tXX1DY3NLbhcnV2YWJhWQ8OYUhOYUJhNmEuYSizW/CzIq8dS9a58wXudJHmcd0tKilLRfLWaEkGwfgW5Y9EKYG+DnFwe/i1Pvv4dfY2sTyen/TTwyuHnwlUAlcrn5XoBRq3O/2k+BJHmtb3JLfEi5y9cU+mALtXz114OOn4N5OTy8K2TfNk+OZOgIS8rq/PeOhROja2irKysVvrCkF1yfuXqTyn8Gss4yUshE+7VQbPZA/lzOt0jdjfk7195TIkxbypSSM3QV1D5/df6Tp1b8jfupi1cwiuQk8uDnFwtlu4zIHDq4sXzBvNrPywN0/v7wxcvXhR6uvCDHrcJXiLBWT3e6yTZ56S6g4uLtt0E01Z7HCpupvUEYEmmj/lQrHljmVoOdkqXYxi52WcIyFZOi8eUIyeXBzm5WrxykjvUT1R9tOg4Yz/TAQe32a761GqYK45PbGQza+LjE5830YCUk1BCBcYj3vpFWII51VGTmtrHKBGWL54ZKM1tYnNK4rPwKQc6knOau+aAUxqfWEwHav2i4VafxXudpHgJ7Pjl2/+pPAMzSvdCEzz+DGfMFieEqliN4U6q57ChQdUSu4WM5SQ8UvBYvIwHcnJ5kJOrxWvpZMjCYvOtuq5MgAkHmzZdwR91hhPPb/1OqHHKYOu2bf+uODIbeGDzqSQa21dsfjoOWuKt+wf/qd/i8R9/sau33H/Jcbz47NZfHaa5g2pbzooqttPzzm797mgBe9ByuRVAPo5l8q4KVYx8ZTcGkLW2fL91+4HH46FHtm7ZajLNczIPJvSN+oE7ZrV36+bdXotn4EJOLg9ycrVYcJI1PepgPDDFmzeuTdukY2IiTT2iR00hbzJL9+lguagXdbK/L/+BHyNG8HGLo2Q210+wYGJigsRkB/3Dsd9NOLlTz653RPpW43S9rNdIrFTYdIBadp30laYOdc+RSn3TSdY0lfdGK8UyTqq0AoTff8al6pm0jvR1TGUr+Q7XWNrMp5P5E14eWHmT/lQuYThPzxOlk58CcnK1WHCy9vKO//zr9t9i8OEXPXL/uW3HjqMe0wMadlMw3csEuoYblpsdN/IdZbkrjEOTiAc1dMfmHTt23C3nPjmbB9W6TyddwykTypoAceKFMO1kWqsRzIUQqea5rllgBi7MJr5yvN9JX8V6gEFz2UGOv24DVKhmPZNPhAZR0/GnZo1lWvH2Fo3YWXOhMpWQdst9CSdFiIDfOI6cXBa+cXIsPkBM8FFEGz5cq0P1jntQUOIQ9GqGkgCen/79tz3eNBi00m6FKXPVWSBpuE0HnbEICgpKHmYkPGyCWsvYETv/yRFjR2CF7txz9MhO8RSxpwBJym1QJXn0t/0GRGf0leO9Tk55SuKTsWbf9JgZdj579FfNzmGd3We19NQ6Iw3qSlSCrwj8duzo7dxayT1XDNQNF3+2m/w6R9ZJ7Kb4EuTkkvBTefLlHFnz89Zh9GhFUyFPWlRf96I3TAeaYmnPlK0GBSYeukwFiM+3x1MTNFuhymzeSUtPYIRdVdI38SwofRALkKzS3KF2X19HyGDR3B2fy3udpDfk4G84lZlHhW5vfWes6FtpZ5rSWTjZXjY5WtiSbGeor+/QzMg1ty5oLVqcqZb47i5/8hcL4gpwkJNL8llOUjIsDfT1rV6b+3gp6LXPP6MR4pWTnKJsYi5JYu4P3MknFHAUnIHJB56D0W54ZSrXQ6wPigX9af6Ek/QE9RbcyWHbSNqYuTsw0x42Y1nhyj5ddzY4ida/uJYHFAv9L+vk54KcXJ6N6WSPzF8PHT16/L3thAC0vJDP+MG/lk6+pOmh2fwrdimFzkK8oEmw1ynn6Cv3Q4OCMqezpLS8ZLXrweuwKZZ3DS2fipFvhHK9yAlr8cwOYweAfn3lILP7AZPJMqaRcneb6h8ohXgLKw9TyvBpYVeOVXUS5V2XZ2M62W5sgqWAQxZOABNlhd1cLKNYWVCFJWGzZQU100AdnOVyR8cYpGEiffsUlnKyxzWIN9oYhpyfU2HCdsceL7f4JNEfd+zYodAGGed23K0CTuI5bHfHXruhXMduaH70ghl1xLohJBL7kJ33dhxwmQOW929yxnJdtKAju6ye2A8N2T7jveZKsapOXn9ABPzGH6+PDUROLsnnOWlqzcE8tDDlTFn9+N39Gi7r2R6BA/4MRsyPAkceM8t189lsB+e+OLNFPa0/nKWc5NAZ8z3fOXR8PR765CSNyWRSpiYmJshs4JAmZrGjTPIktj9J5bDoHGAzWMAkUdkM3t1hdmKKAdyZzpoiU9Ux7PjkHHYOh/r2jDqfx6o6eedqH3+yX4e4Ahzk5JJ8ZjppOMZglKn7koLvRBSLKQ3VPwxtfOpRW/EwsjHSq6VUKZPNNrXofqz+xnrAH8dSTq4IM86/7dqj3Lhqy9asqpMO327lU14fDYucXJLPcrJP+T93//LLMYeRPjM7MoSLpxY/qMYsms4QawUYnilRy2GzrWx7nuh8Rq+1VXOS2ZwSn/TZa8+/m1V1ciQnnj8per1dBzm5JJ/lZLfWGXMHh6AuqFMLp0KlUfhEpPgFzQ4YCRS7aNAHxZiTHBu7r9TJ1WZVnVwfICeX5LOcbDOznw/qNR5ToUI/FNje0nLujTDnKq3g3V6uUcihG1v2IicRS4KcXJLPK0+amMzXfw6Ymc6Av3BqXxlAl1lkdwU+ZWp6hcwzGBbW618hJxu8A7AscUOAi4tHwItpoLd2wWycazpvIBO3thv7l9nWN5ft4hKK54/6g73wdtPhGBevYiZAb6hLHBk/84uBnFwW5OSSfJaTrbq687NUzEbedooW1B0qkvdO8fWtzpbzS/H262jXkIqIPKvVG6bCW+/401hwktNpsPeg2TA37vyevd//z3tdUO+cMhP15883XmBSsp7dxmeBHbWOyxTds2tPEAVG3Q//olDHIoVd3LNLtJo75n1q958R8zeQLwRyclmQk0vyWU72uLgQac+s+54tch0wF753y9Us7qz/zi13CoBbcHGLvnHgYJLt8PxZn8KCk7MWRl31Wg5kNp1GS5eMmoNot94codQpD41yLin50q/4Os0tOll+0bSZyLul3ACVigErg76GkFJau47DaL5/B+X5vfT5FpQvA3JyWZCTS/JZTrJn8YZAHtS+bjzHSOvrHmYAzPV2j2AZRtZo9ySZyqaRP6PBYcHJUbVHQHfnLfdKDTUbA66f73iCdCcUKoYyE2/byWBOsktNGsh0gKob0WR7Ywok3sllULjADJYvm6NgmWrJmMWTaKweyMllQU4uyWc5+SVYcLJdOQo4j+/gqyJn6OUAjDvFkCO0h6FT0YI5UlenFgkwHe3HS5BzbyWNmjlxofBWHL5LdlXD19rh5t1LRenkVwVyckn4xUluqcgT4D65WwIw42aE5ZhLXComnXVHoVfRCEv9eh9GYNraZuNdcfpMLPv7lGwBigVj8AS6SCQGSyU7Nffq4n3UvxjIyWVBTi4J3zhZKR6FO1kMUGGCpYnw5NHgtIfeCOFkB+5kpXYD9kCvmVozDKjaLziZJ2qPd1gfDtQyy/qSk2QhJ5dldZ0Uuk8E/MZFRSL4WlnIu/aoRAI77HY1QLBBEwDdKYzKiNIchFZFG868k+wswz6AGlPdAiwtNXNgQ/7NBKCnK5ku1DBZauCD978UyMllWV0npfaH8Sc/vT4Xw9fIgpMTai5At5UeAJqlKRm4/capwIkXboUX8niNK+7kSHAwBXrNTfFZPNg2OmSIECrlZKqE4M/uaMaOGWuvYle6RSAnl2V1nXz437fzJ//VhLiCr5UFJ6k+2vFP1MNoMKRjxwZWrlUlQKmMd5ahGS5am2wolJuWcpmmN/xLikvGIVYjLEXHbazr3p28kuIWaoxJYlG0aOTKzoL1fpCTy7K6TopeHuVPjqkQV/C1suAkzDju2Os5C9BlHYZlXVNCugFYeZc33a/BJ33t1ouFEscOGFf7btNmgR/jOYzIAz/oDXFzTv19q8Bm2Vbak+MCP7it+Jw77wM5uSyrXJ68RwT8xnl+KU8CTNY24L2GGOMzAFzyDN7WyGqv6uW1fTJHyUCdYAJrqLG6srJ6EoDSWDMCQO6qr6qs6pyD2abK2i/ajQc5uTyr6+S9O0TAb5xRIIKvlVdO8hnIyWVZXSf1/3mZP/kHMbLjqwU5uX5ZXSdrTCT5E8v3z2+19iAn1y+r6yRitUBOrl+Qk/wJcnL9gpzkT5CT6xfkJH+CnFy/ICf5E+Tk+gU5yZ8gJ9cvyEn+BDm5fkFO8ifIyfULcpI/QU6uX5CT/Alycv2CnORPkJPrF+Qkf4KcXL8gJ/kT5OT6BTnJnyAn1y/ISf4EObl+QU7yJyM/JBIRn9G3JZeIEO8AOcmfjG3Xy+BL/P5ZSFwC4h0gJ/mTyR1/2cyX/PN/VBKXgHgHyEn+ZPQHhxa+5Nk3BcQlIN4BcpI/Gfkhnoj4jJ7NqDy5DMhJ/mR4SwIR8Rm93+UQEeIdICf5k8mDR4kp9lYDOQ0VaSJcaa5uriIuAfEOkJP8CSP0LjEV7Wqw5//+y907V4idleW64yRxCYh3gJxELKZNXT+TQsSILw1yErEEZIetpt1EjPjCICcRSzBhJXpJKvNLroGHeAlyErEEpadetAZcMSITu4gvCXISsRiy75UhmEmTFcogDiC+IMhJxGJKRYPo2KbSVNr2y65OicBATiIWwX10boAXMEMlldJ4EeLLgZxELKJNQx9feR2n4YFYyDARI74MyEnEInwEq4kII/iWRTW+IDviS4GcRLwNVUmcS4QYrIb7J57PEDuILwByEvE2T6WfEtE8A+E3zEZfs3Rplj0B8YEgJxFvIyzxVr86erbmpWdE/C4aU1A/1hUCOYl4i+o77kT0iiZnIdP5qtilmX5saORUwCD2EJ8FchLxFirqvUT0OhEKiu8ZsUnOVpUIrGcSe4jPAjmJeAPu8JnFySROi/Z9nx4iXkyni1YyGkmyMiAnEW/A8JIrJcK3CblsUkyEb8N9llIY3IuqeVYE5CTiDYYv+9CI8G24nZqCiSPEzltwuPh/iJUAOYl4HVbqpffMUz4VdUStg03sIFYJ5CTidfoVbUeJcCnmqnTv8OkE7PwDchLxOrm/FS10dV2aLr+bMn1EjFgVkJOI1xh1kHhHgfEl7ChZuTgiRqwGyEnEa2SezF2+4X/ARMamlYgRKw9yEgEdXURAdT/2QY2MT2+qZ7+rdhbxuSAnESXi7kQzRr504If1xRlVEwxBpcpVAjm50aGVCf/kNR9yHc6Nz0fLQo27odKB+reuCsjJDQ47R9BA1mc+nWxT1eNtPwR6o9bZKJR/XQ2Qkxsc7khxvaHnvJMeoh+zlkdPqLjaEBEjVhDkJGJK14PnJElG6eP66GToXfFDvXpWHOQkYphwMl4ylrf/4fQZi5m3EDFipUBOIggnORIaHz9VQIrkw6eoVLmyICcR805y66/6Egc+hiH1MwGdRIxYEZCTiCENF8xJpq52M3Hgo2Bl3tGoRKv9rCDIScSIMd4WMro/8P29z98Fp93ydNAssYP4fJCTCObgGAAlRKSc2P9oRhLvyDcQMeKzQU4ieAycCf6MDGie8T0/IkR8LshJBA497Y8KIvwkBj1F1WqIGPF5ICcROF2KthNE+Ikkiak84TVzIj4T5CQCJ/Xzkkkcss1959fW/kF8KshJBMaolfTnLy3Azf5DPA8tt/7ZICcRGCl3UldgPTvOpN01/w9ymz6Nvx17Dl8NejFM8oaeUR05icBksr28Munb1HPBW3VE/B44kaLFWNmzyy92yRJogUrBRl7xEjmJAChRcCOiz4VbYXHbZ9mxzq36wp6z2MbKnzjwJml/Jm3khBI5iQAwvrLcbHUfzmSAglwZEb+LZ0ahyvUwa7H990TOrPFl2TzgZD+1vy2VzgYolZXWv5/JpTtcEU8lTt9gICcR0CepRkQrQq7KgyASES8JNdCz1SxhjuK072LGhO9tyRsKtXNOl6XkD93t5NarXtIR/fU5+fFdiVuSHzCJ3joEOYkAR8mPmV9geeashKwriXgp6v0rocy3B7pcoqBYJAvG9R3Gfa6mQfTVfJqbYi0EHEgqk34KNAujMeIZGwrkJIJ6Z0WTSZyCB9KZU0S8mKdKgWmekqXQYhNKjb7hkB6notrlo1cPuRol4/ru01Cp+zzmrnl6oo5EB/GMDQVyEpEosfLzmk9aH/V812STNKcdm7cIHIxitVmHzEX9+O3mrbsMu72duiBHo2RQ3mEGqvRfPP3tm81bdyp2E0/ZUCAnNzzMB0bTRLiCzBRKS9QsXRwsVXXoaG8JMG3utgmnxj1M7elqH5nxdOqGbPWSSVPXCShRTY3ViOnpbh9E5UnEBoRbcymcCFeWZpcjpku1erK9VPBRYWWicR02Iexq6Wcw6Rk87OXQBdmqJfQE1Wxw+fFZvXIYzPl7ovIkYgNCMdZcpcU/Jp7IyhcR8WsMS+vhMzv33dWq0Pg5mhR7/sRh0eJpZ6sOeCGXx5k0PyQofvU5Ne3aicN3UjbkcuzIyY1Oxx+Rq9ZppsxADCsevsV0Sik+oQEzI20o2zyXy/BTM8oFTmUZCXqzBgCabM3TKgaAE6Gmn7Yxx5kgJzc41LBbtUS4CpBdbpuUEDHiA0FObnBar4UuSslWkmoJxZgPXYQEwQM5ubFhPftllZeSnPW+aNeBZkv/CJCTG5s2TbNVaAh5A1r1vbtZaLLJDwc5ubGJPdz4aTNIfgxdXjds0bp4HwxyckMzYinyJVIwUqr0tRwiRiwHcnIDwYx/9lZGNeFu2uonkzilRpIOKP/6YSAnNxCsnPw3O9bQjW99qVZ5bpCsQgoRI94LcnJ9wGltrQqIwJdoLfEJwmffqPP3foElTJW+3tkM6Gomw2TNGKu3981iXbGsBxF9AWpFhMPRGrIfAHJyfcCwl1c5uNuJxC6/88MuxVZWp96eH29n0VrVdu24X0Lzs2yGYuVssr39MHH+PMbiX3Tghf9Nq1o0BeyyICfXB0zn4y5TCaJZg/JyPVVKJj2eVv3k9MB+B/uhmaTQiUCrZih5mPO2k0MiRkT0ZWBVS13OeO8MBAgM5OT6gOGoVAZDpgEF2gHAjhDKd7ftZ1NnZq2chtkUMsPPpgVK1XLJjo5vOOktn09EX4qRoD8th1BS+X6Qk+sDhp3dIIw6+kRpRQMUSBSNuB7+1ZIKfTYH9ztzwBdzskz9bSfZFw2Xnl91FaFka95OJ2LE0iAn1wcMe9MO6NH3SDaIBm6GUBEMBDtb+YxCV6CzVfBooEM75Epmv+kkO/P2ys8vsDxNrjeNUFXP+0BOrg+YTsK5UHc3olnaAmjWEpVpdQBZ6vVJrQDPdPv8lBvg0c/p1DecZAharknncFawjHIaESOWADm5PmC63NWwltHtoLhd01MTeToe9MDMyiZxyOuBhaVNGqVA+L6vws9pFAuLQeJ8LJlsOhJLhF+aJp0HHr1EjFgEcnJ9wHTSf7j/RhMA1Xr/SV8aTBvsP2pNhnG1/cedqcAJ++OOh38DNSbm1Woe06ZaazYrHMvnpGkxESPeBjm5PmBYWvax5rvJsXkDo7gsNl6/SWyIg6/TcCKeiNaCPlXhhDfqgBEvQU6uDxiubh9XOJwNut1ChGvCVORR1e6NvFLPu0FOrg+44+Mf9wOvFQlY2wmo5mo1bicSMeJ1kJMblMg/1nyO8Q6fe2ort3bQ+gE5uTHp1NVZ+6FTjAQFybUs1H6lICc3JqFnG7+GOXI69GXseogYQYCc3JBMG9wiorUm+r5G5hfv4fd1g5zckMQ8SCaiNadP+vrjASJG4CAnNyLsh7e+zJQfHwI19pbuW2OtNzbIyY1IibQrEX0N0BvUDsXMETsI5OSGREf2XWtDrg1d4SLaKP+6AHJyAzJw25KIvhoy9G4EEOGGBzm5AfGSW2IJujWmy1LYYk07+309ICc3HjPXHL7G0lu8uHoi6gCLgZzccLAzrqUS4ddFn961gE4i3sggJzcck9I2X+ncG+yUS1rlNGJn44Kc3Ghwa/elf60zx7G6zC5HzBI7Gxbk5EZjzF6xiwi/QkYSLkls9Koe5ORGo+rQi6+50ww3S/9+GBFvUJCTGwxy8Jl+IvxKGfAUU6gl4g0JcnKDUS4a/NWvORd3Tyl6A3eARU5uLNj+p76ubnVLQrMUc8IXB9uYICc3Fq1a+nyRAmVeli58c63MjQNycmPhf6eSiL5uOBNmVwLXZJr2tQc5uaEgq0t8DVN+fAiTScJizRtyCS7k5IYiUTqaiL5+2NXml3w34rBK5OSGQlaCn5ZkHfGXV96AVT3IyY1E0z1nIuITsjWFvdd2aug1ADm5kVB7uOYTLX8kJIObdjVEvFFATm4cuNMnHIiQjyh4oJQ5RcQbA+TkxoHpK/v1zS+wPKPmBzz5oJ/DyoGc3DhM/OnBl+P4Z4ofyFRsoL52yMkNAzP9chYR8hstzmdtN06rCHJywzCkYD1KhHzH+FNxmVIiXvcgJzcMhb/n8XG3mAJdKY8Nsq4IcnKjMOkgNUiEfAnJXdigmIjfSWvpOih3Iic3CnkXn/N5OlMspBAzTcRLUyGmuQ4GkyAnNwh0n5OTRMi30DyuO7e8O/9NKZXbqb8Oev0gJzcIRbI+/J+to5dfvpr/zmkSGiX1jYxROongF5x+n1wPA5863G84M4n4baidPa5GyEkEn9CuqkJEfA4pSfZyHhEvguVkiJxE8AkeQuumJ3epsajTO0aczSInEfwCSVaWiNYB3AA5lRdE/CbISQTfEC8VS0Trgko5kfARIn4d5CSCX2DLqq+v4U5cj6u2S8zLTLbRmiFCPgY5uRGou/2IiNYL7CrZu9mLOhBQ/BxQ+yRireCyP7xpg2Wi0USE64dh3+NWb3cW5M7OrIMGH+Qkf8KKC//wZT9G/ni0DhdAJueq3X9nqwg/g5zkS7jhO2Q/eOw99fH9ZTtv8yWNbn9qrMN5mZGT/EiPr8wxww92cuRkwDqojVwKmq/EO1pF+BnkJD/S6Rfj5tFO7CwHI+tAGRGuP5q1pD2+8rX7PhrkJH/C8XL40Gkhe5Vs+XZ+geWhPzprXMIhdtYHyEn+hOb5oU5yM46s71kzuhVE49fVTQc5yZ/MfbCTo3ZS6ziZxJl5fF6vbx1VLCMn+ZMPdzL9Vso6bAh5A2qVwrWU9TASbR7kJH/ywU4ynS9vgFnEW7xE9N8/LQgfgZzkT6iO5q1E+H7KFVyIaF1DT1QSSiBifgc5yZ8wi/MmiPD92F5fb00F72DcXi9wjIj5G+Tk+mZETpWIvhIYxf5eq4G3f+Cx/yZC7KwG/qXvmnNkpUFOrm9cJL6ybnX9v2/+eVXYtXvvL7uJeDUQOLnUiM3VADm5rmHekP3K6iPrv0slrxIU6iwRrQZxm9qIS1htkJPrmuQHT4joa6HuOz7twZC76cMq1T4f5OS6RkTva+t9Xi/Ap+Or0jejdBLx2XAaLgUT4VcDcnJZkJPrGJqR5pfKb30wyMllQU6uY7pPhbGJ8KsBObksyMn1y1zY3Soi/HpATi4LcnL90i7o//XNrIicXBbk5Pol7Y+vrjT5WU6yyBNjo6NTL7vTsGZoRIRDG58joiXgMD+7mRY5ifhs2nQMvsIVJz/DyeLb23/44YcbC+2b3Lw/PF91d+PGHYt+Z+F5Jj/rs9fDRU5uEGL+PLRq7Phv3x0gwhXnN8l64go+ls9wMmHnjUePH6ctjNDmxv9/ukSI0/+i951pYZxwHBF9OsjJDcLtX4xXDTM7GxMiXHH0/+VPXMHH8hlOJv7uNR/UKt2SfsaF1H/KGd3RbYBxnwBX/WdlDhUAuTJ35JsAhhxvCXlMQllInIeI3SBkHfuvxx7TKc63ZZ7Pv8CngJzcIBzXIQJ+4xc7IvhYPstJb962Q/uO8u/XCtnP/3lR48YmkZGWEwcVTZNd/4srp0zh+g0BhS5ywB35q4cCZ8J/E7I5+1PwXMH5v5yKHrXYf+vc3exPXqwaOblBOM2nK7XS9zoR0cfyGU6mHLrp6htWzWoNb84V3uFMf/53IRJofx9bf+M8VsYM+KvvtIbwEMQa15NSshuNNov1PNv3gNR5SaEXvP5IhaKd2tArpP3JgzuQkxsE5ORHkL7vb9t/OvqIMVMdcP67bV6MtH+YMCHxvF3ZTbke4AT8zbdOSJnXvZfRFif1/b/J9Mef1Gf03X/QBC6/x1N9DmrkRFwX/uSqaOTkBgE5+RE8O2LeSyLTmZFbblVEXnWlpf3DjAlJF21Lb8p1AzvgP33zL8rxFnCuPL8ntuyWUnfsFRduj5B4Mzj/Hjtt983fNm/ZJvHJYiEnNwjIyY/g2VEXvEVjVOdoEsRdwZ00ZEDsGYeym7JdmJN/82s5cXYIgMkKPGXF7LyDOXnVbd5Jp6MJNP/fjFqam/pReRLxfpCTH8GzI3b43HSTFifzZ8X/7sV4/p9n2uaUtibVX5XBnPT/iy9Z40Q+pEhnPv7Tkx34zwf9sZexdPLeg2ZwOJII5buUocf48SevT4mc3CAgJz+C2F3m+LSYrJyjP1/e9Vc9cvJ/Oyz6+3bjqeY/hDuA7fVfXDktigdP/aDS0SOz5dThb27UR5y05XZduVMPCb/ssu91O3Di4K3sT+47gJzcICAnP4K24GJeZzrKUy3DoNAXc52uCZ7KnpMwGZkyDdwax0qsJGmsZNQDUGyk5hqZONQUVQakuGdjMBamHUamhSgZFvJe6JNATm4QPt9JcrSdre+SS2xxajzqX/Zs6cpoWMlhW2vi5NqCnNwgfLaTw55H9/7yq3LZUsWkpJtpL50MP/upjfxLgpxcRZCTa8rnOkkyP/xojpEvatAHjJ7axhEuzIwMd3WRhkf72sen2qbZYyMTbc1YKSzyikVrQx9e6cjsrK3/7Gn8kZOrCHJyTflMJ7lFp9UGsM3kFIudd/3778VauBGi0sIiT0UkxW8GBu+LHtUWdTi31Wgcom6I3N96Np8LzNQzm/5l+rlSIidXEeTkmvKZTlL9fgslsqd91pZFNvvMx0J+FsxvKD55OKC23+1/+A5J7fTIffhHGsQfuZ3u/xsu52WrLOezTq+PPPwEkJOrCHJyTflMJ8luR6KJkNrT4LLvfygMRpy0BWi6INwB4PO3oGHFfYnw9Ft3bsJhGdr4XdG2GdUjVUCVvlZCPO0TQU6uIsjJNeVznXQ9EkOEIx4yWlI/aQyGX/UHqLug0g8s3Em580UQ/R8OnLgLZsyhB8ItbcL3B4BtdO4z16BCTq4iyMk15TOdpD8+9IhY8DVq9+Xu/vtafeGXfXAnFXvmnZS9XgtP/ubEib3mzBkQFW1bcyfrNtUREZ9RiuZB3xh8ppPQdE0Q+4nT8ktIbhfj4fkBtaG3nbxaPe/kVUc25mTzjBqWd52VuLpmedfWH3SC+BL1Hd3EJaw2yMk15XOdpIed18jJczljOJhxUT5Z8r+L9wadcQeo+UOqC1ju/9136MHZSgj/7zacqLPW7P47d2oh+oplhscVlzWr4+ne9d0OvuTbXweJS1htkJNryuc6CayscwICO42HOJNmW7afvqbeGi0agiWf93Sx8mTIziejWmL1kLDTh5Ms5s0eUlJqAGba6U37gqnE0z+VT3eyYXPyFF/ydMuSvaVWAeTkmvLZTgK7p76+BW9unG5t7BkZo88OzwAwhsdZwJ3pIbPHRxgw20MCyggJWGNjDABmV33b5yr5WeXJMiLiM3IFUHlyQ/D5Tq4Nn+4kqnddFuTkmoKc5BuQkxsE5CTfgJzcICAn+Qbk5AYBOck3ICc3CMhJvgE5uUE4pUYEfAbnF0ci+liWcpLDwNfi4TI/aPErNpU0PT1D9Cj8giAnNwj86iRrRdPJNiOjUQBqqPeHtJsW3tn5449HQz55TshPBTm5QZD8xzG+5OhfI4kr+FiWcrL+1D+SuDBjocmbxXwZIn7XDAjQV04jdr8YyMkNwr19unyJ5rdBxBV8LK+cZOYUc+ajeol90h0w62BEAarvfYVc4Hanx2nLvmjWE0vG0sNC4fuPpqDjaTVvlq+I+00AUzrWrK4AO/NySBcWkiwFGHAWEst8tRrlKoCc3CCceH0FRX5inz0RfCyvpZOuAURQYWYu83iO6WBMmwm+eemsYh0747ik6nFBM5njIhVQo3rm8tWg8faoyldOThh7MtMO3TEozBS7cP0X/YHpiPu3/lT61DUxPwjk5AaBX+tdGZ9dnhx6GiAkHhLHW8e1zPxpoloJw9GE1iDoA90KepOZ39tCyU3duXbRiBlbrMz9RCGH9yyMpxeMwsIsHZsh5XQccMOx9LpMKa/BMBqztYI4ZVVATm4QNmxbCLfg2La//O2HU+l42ldmnNqj7tjhYTpTIFkAbE/p5myRVCgxTOV2KSe0a8jklQYLP8GfhZN04Lvt20/5jbDT72UDsHpKi/zki7rdHEsqZokzVgfk5AZh47ZPMib7jO1GJnlLBZQZJdErtcJcLKZS7xUAPH7YlKtRBIVGzzkdyondUn/ZLLDlj3jeszCe3E4ZG+81MR7OkqsCTpWwgMC/rpZBu6LA94/nPqQt5VNBTm4QNnSfAc9gIigzSuQybRTEbciFeDrpLt2cq1kMhYapbMzJVhOT2vq6Nt4idjgRQrXYvz5aLVkKtTBmIlNZGyyfC6yh+nTVxNWs5EFObhA2spOcvgEiXSszTGRDvfg2M0bjXS9uh7zBWL4alk4aYE4qxZGctAFKXV6Ouoy4V41lfS3VerPkamBASQfA40FpdVAPsFSfEvW4qwJycoOwodPJlxRpxGApXMRBZRo5/MbZE8qNzCyZPMhVT2C3iodDvcqxP09bdbRFlPPqXaN3H7x8+YxIFi1NuALmfI9dUja5m9bvePnyBYd+3qutEsjJDQJyEqc/sxnTbToplQlzIdJYUZLbndILvRltnMmkeiwZlZFyHISuxDpeMtjmIicpKR0L0JkwBNDrKmVfk9wI7RaSCqs7IR5ycoOwhJOMphped5bR7AHePnakvullpmwi3cfNzS1yjNh9BbehfKHekTtWPkGEi5l74eYWvfTDpNJGIlpguBxf8HEJVtZJvgA5uUFYwskJS40WbMNtccTKTTzI5g5EBFB49Jvdu3cfC1xc728i2UFEUCJbRUSLmEm4sWv3n35YCrOYgaAkIlogS/5tSwmQk6sIcnJNeeXk3DSvtAQwaa2NOwm0YSow+praKNwORfVBYHY2tYwCN/9GxCx1LlWhgjbV2zMNzI6mfryycbK1S1+hY26SCSwSmfL0VhwVKO3Nw1wske1vapsFzvgErz6F+1QkmEKtl7WjAa2tqWUSuHOk8bauudm2Diowx7EX7G1qx32fammeBFr47SQK0Hqa2qbfamVATq4iyMk15ZWTeQ6T88GkrS4+QRq3zqiUk3N1866gcfd//tNhOvPA5k1yo1AoiHe+rlLKrNE9cSuKnrZH4HIGFwZ1dgjd0mjP1WuBQffQqmv/dqaY4bd7s2gzl5t9ffNOf8qchw9vIMWwnhL+NqFmjcyYnZu/0yPT03QND+0PCP1lZzBtyDWGk3dp869BNBg33yagOVx39X+cK2XGn978k/Eo/uxXICdXEeTkmvLKyVQd4me/4GSJeHazrX1WqFZNg6R8c76UU5a35GNOkeAz7ME4keKyi5Ilg5k3TVJ1FSsmncVDXxy71JkqXgs9Ri6TIZdDpkKEvWOV9TvbbO2yQjVr2N09vCJplgKv7/jMwHTaA68sJ6lklte3zrk6Z02STUVre/X96owevXhsVUYOUol5etOyz+9y5HSqmnuWy830N5v+kJOrCHJyTSGcHNE7seu7wyf88YbxBSfL5fOLdF8ANE1Q7dxhqAyAaePILj2z848Tx8+ET9fcfATwWLgD6iScq1VCAQzl2tLl66HPwhOqVBpZRpoMSLuVnK/3HHuJl1VC8boLRnRVApAM/ZkBh4shSSIRSkWLes1Cs2XqsYeGKlUeA/hotxertUFnA/b5lOLenDh9pZ0cNzl1Qh4rPw86B2CflfQifoYeeuPkiROnwuawR+n5vq/Prdrrx8vct/t1Yf9Ss7HsNQ4z5soJoXSAHq0TJ0yHAVpFTpy0JAZ/Zd4+qTsIMOt34pQfFfsMsiekXqukzXPvA7Lv5RPnrN7KDbwBcnKDQDg5FaBx45CcZir+63rppFzuSKSMqNowkExtOFCuKnrrgh+n5OJVdQ1Nr1moVoiGcS+9YZgxMUsRz+FCuFUL7uSAlSerUK5sWNMak0vyyUC0rKjqq0n14zUziQhy5EVvXH5Ki1LugnirWiiSL+sxDRwMfyhs1AcF1/8QEfv9cm6uQhV24kPRKwfj3xzYv8JOdlhKqmioWBRB69k9WN582NV4hCK3V0FDQ04uC3tjSqBILnEmRrvk6QJsUy98HrutMDwPmM7gR+llGg81BDVbR720NJRv+tAHbWQ0ZG6H8JL3MlNNFRn3PvZzZXUFyfi5dhcNdXk9vDcQjzbR01j2Qvqchm7k+5bKRU5uEF7lXXP08RQB46WTsllAdr151bFn0syeWSd1/ubV836convzUnErtZNhzBN30tQ8SSSbC2FWzS+UmqHD2IvnpAbupNRjoLrdvGLfudCWUizvjm9ILd1FwhduXr70dO6pTh/EmZRDgRzmpC8wHG6JuLcX3Tl/86aUW1eWfA27UP78zYuHVsFJVm0TUXNEDbxRiN2YjDTHu0R+1e+C0Ue2oxR1Y/whQxfME+pj+WJOWRavbywtV/Xi1TKYe6F4/nY9dATfPGjPq4OmV2cAtDx07EnEEjtP6YaBqCkAR+Fe/LFSLPkskkhj5+cDeOm1tqbOQr+IP3FFMyFHbjRBhTkm+HtBTm4QXjlZEUw0BU7ammA5L4By2dzBTixXJ50yZu5JD741AF06nuwiwXieX9xKzWdAeyzWBY1SDjV6kQDGCm1Jd+shV+IRu0C+nmmkw4IXt+IHsJeYlE5YcJJkLo6vDuVvnusmPAf1quFzMVq9r5z0G24EmNCLLNfCMs2jLbPpCu1MU90JqLyT8OZcGyuSTr4cP1mna4/nEAr9u9uVDKRDYJznpBH2oVk6DhO4kwol7GgfXh51NkArRqEYZjz1nyjUQomtp6frq9RtVFuFN31IuGQ2b99HsIa3xWiUTeRto/R58k3I+89fETfZVE6sGVJFDZ9kv7e7LHJyg/DKyZdMmgtHlZXVjpZI5maZhVfGGzaQTTRbYm4+rvW57sLMvxbNazPhlj+Mx34nV+0KTOWKKGFysQV/XOzJumhV6nbFi1MsHDXjLxz6Ql2rPc80rDLBsIY9ODSfJmUrWpaUPb3rNBZ8K6HO6VoIJVKlB6L1SiFXvKTbwDf/YWRlslMpyVftRYmcZkeOWPyYt2x0o92W4JV2klSd91CnuGYK/1gpCmnETaNVMcHbtGWS56TYi7KyJxLh2Btj6WQRcIlElcsplC3CNuxMWbzj64CH0ysncx8G4KnfnIUSdisCGDNbyLZTqsw18MzqeIasB5aO0tt9hbFyNk63mfsjkWaO30+bth16xkuJ3wFycoOwhJOzTj98KyBwLLJcp5Ae8pvA3mQ21+sP+wa17/c52ThTyyST552sNcYKXvS4nzZdSGXDgPq2Oxoe/ZRHP/5ibhoIbWLX8qmeOwXu1XEYoYcF9iSyKR7e81KxSu9vEjjoT4Ym8c1HvU0CZhJN+iHZthpK1Kv67B7PBW8ROJ3EgmHD7zfdLWE1iF8v7BD+9oy9+VtFrc92kpt38Lv/9X82HcU+PECiagUhXKtCSru2TZ+/3RhV8+/Y1/CdJ15Lw3PyFTwnAXhOwpDbKyd7NI3w2ixmjAovM0H3V8shXK+98Z0ziQvsmB3H02gAfQ+3aPTyHuJEhPSGi7XRXAwrBuyuFBMfYymQkxuEJZzkTDRWlpfXjc+NUGGmsbwOK2ZOtQ4yR6prxqfGOXODRFUibRQvRtHrK9qxmzt3uLp1nMyE2fqakYkpYPa3zcBMXSXe/kFuLK+lAnsI7z+Aw+6pKK/HnsoaqKqbmphkk0eZQB6nwdwwjTlOgtnq8iY8jzhaVdHLBkZ/K5nbW9kwTiKtdHlyprZARbe07u10Uj6Jk2Ac7+eApZMPMsvLq3hDtN50klPAc5KdwXOy/5WT/fLKvJJ4rFQQXjZnBUnFLKTu1JYXSkEzWJa1KkE5DoDRVWjuimfiOQ3WuSy/+3XsCeyNysRCFnePeglycoOwhJN8wcqUJwOJoF7XDr8PNMZ0tygkwpTzfWP7caw8Od+xKcN/mPZErpAX83iXk/XSengbCcXv4VO8aD5jq5r22jx4HG09vOkEBu/a8V73kTz+kqzAn348tOn/3OfN5FOvHveeySyRkxuEjewkq+61etcCTCJjxaE2xUQ2lF7eYUyiqGvPd2yKUGqCAMXXOvC+w8lWEzs8mI3V47WbTIcZLAy55D6PwV5dzr4t9QVApVh4URTmqr4mL02t87U2vrrbrjG8BMtC368ikuulQE5uEDZ0OvmKTisJZTUphWRus0gME5jem9SnZmUU50evdLnIyN0NnGDmpxLdFjjZ93Hr2Cn3y7FNr63lNHQ/b2F6/eW2rrphRs3VPYpaam5dFX8cfqip5jo6GV/HydLQULuvXEGKlVFVlXLuqbZUV5MWS2P0P2/gJZnBd7pogSrqSrLuePr6LpCTGwTk5DzjpmdOCmUBDPlXYJoMBsaS6aHhROGuRvq00RDQ4wKIjCW3hderh1Pni5cIJ1KT56AhpIwRf/vcyZPXHzeZXjl98qRSXZPeRWyr2Dvskc+FbKGTFzCPqQEnT2p0YplkhZOnoxjQGlyIl5JZme79wHh09pQ9r/PBu0BObhAIJ5n9C1UwfMJKO8kHICc3CIST4yauvC3fgJxcRZCTawrh5Kiu7RwFb9NgM2hMABqFimWq2GwahY4nnywqvgt0CpWBZdkY89WRawtychVBTq4phJNj5jpGux40wXiA0F1PUtWtXfstSCRfr7u7rmVgSj767ZA7Azru7totPQjd1vPdxtYW5OQqgpxcUxbyrupnbRzkbAZHJH/3Ly2VU/JQF00e1Lhl6vSnxAg92sLVTDO2XkvWw0AwkDadx2tmW2OQk6sIcnJNIZycULjZCkXS2YNyygDdiXSg2nr1GSr0QIBgc9/DJwCVRV1JZIBH+i+nHl5bkJOrCHJyTVnIu+pYMaFHKaHDwAorOXb4WqrfC+gz8hyHeLXmUvH5AQ1DQZYG9y3f0/nrS7KyTpLSnawsLS0jRoj916EVF9P7Sl92aV07kJMbhAUn9e050CId327tCZwuzYP79/4W2G8cOgsxKk2FIrylMkaND+7fd8CaN15p7VlZJ+tu/f2X/fv3K/KmD3iL2SdRpASlBmJvDUFObhAWypMPH5KgQPBZt5UH0ELlyqHGIKDXOIQMMQ9bG/H5haf6km6+gD4r89d6cK4lK+Ekd2ohI16h4jLLYrHYXPrYdGfVIL23uhfLLlCaK2vHgTs+Tk1Ua5oe/pB11VcT5OQG4SzhpPTlom5vtfpBE1egRUinz4Zf9ekxCCJDlHz7kJJtX52D3VPBmJlUIRMym/rekbdfiJVwkuMbTkQV6v7zQYuBi+h3Ik8UNt+q5dIe/y6wRX+U4e4xnazVkuax1kklcnKDsJB3NZRR/uFeKaPPzB24HZJbfjexsGkxDCZDtGIbq0Z2206NjkHN7XsMTHTGui1fzqizhqyEk1RbD7zZFaNSzWO+L2uTuFTa81OH4+Ik/aaSNMLKAwVTpyzMp5I1miYH1jrXjpzcEPT4/lWPFzC6WssiS9kw19ELwK6PiWsdbp9tH2TBMD6YsTYiBitpdcQ/aehvoZNcX7xn8MKX4rOd5JZcOvCdwKHr2XgPiMb7mw4cOnTaj9miYE0GDXEazcZ1qKcdy7LLxozZ2eBO4s9ZW5CT65/pSOUHSv9hQOx9MOTImq+ga+znp5MdTgbnLhm78lZCqZO8aGhqapPDblSNo1HsHGDS0XsM4oVunj+ROImcRHwRyBl2D6XFrfIOaRAHPhhy1eL1e748K5F3fTVHVoUGsTpsvVoak2xpCRP2PsP59y8L3zqDnER8CWhVEVbSlySfzQKcfUgc4zNWwknGs4VceIUGb3Z23MkUBs9JB59ePWU8UxuLnESsNpyuQn+53wTD5qfcJup4+I4VSSdfUikpl5aVlVU+VaeQyJgxNoZxK7d+L5HoXOdj4WMWZpMJSg1jPWvdCoScXJ9wpntSlH+/7NlOIWockZM47bLfCGBcLmw3z2TOurrClHfIVJfkpqOexomD3h6kDIsO1BaCWA1Ys/kGv/xhl9v76pa/hJMcFq8Oh8taqF5lv1HPymXMzdFpc3PzZ2Gnc15W+XDZr2p/OHTqHH3+iVzi+VzmHJWG3QvYtDkq8dAns7JOMkfbmjC6KMypOS6HRALODJnDHW1uJ5GorBkSZ26KiU+tt7YgJ9chTRbnr+lHFrzRqXOxk9wKw1J8W2pYwdsHSmD86x3PezR+/WX//j0HiFVhOSnhPbwAo9a9hkh+gRZwcs8vSu142Of7ZL5pr1pi755z0TD76OiePcov14/9NFbWSb4AObne6PUWvaVqF//2n3WJdLLyru8MwIzvXWKqtmlt59drWueS3TR+O23vjs8PhRNk81KvLJnMhfHOI8qCLq4J+CRTbPfNZjx9GYmXtF3866BTUcLOJfHdi6t/EMjJVQQ5+QUYiVKTklVxebmS0yteOdmWQeRoJ+3xaUqbdR1nyvWksTSTbOJNghJ52cez0JfqppoLMGTugZ3XZSNtNwJV1/ebTc49lpXxGYB89bzBaF7qym3VWxj5XHN3twMvnZx67Mw7UKHGSz4/D+TkKoKcXG3IGZ664ld185Yswb1yMseAWFeLmSqaDJAmn1GgefHSYeWRGVOfqSrJQ6eux1BKxE7eeEaHBl1bBgwYn/zzuPVY8Zkf9OojhS6cPx7EKFTP6/XHl4EDKLl13y4cTwv7vZTUXXjzsY1a/WnkUAaQd1nO9uk4fuQzQE6uIsjJVYVSn+QoelY+eaGc9zaEk9SiWIOb/rGNvKn028T8OfRAvb7YYApkiJdOmvv2WgoOMV0elFdL2+O1OJiTLO6T+8kQdSGZGeHY3+OdBWBsNFmslkfkXTlP9m779aALVg4NdXqq58xzsv2BwN4fRWqZMT/v+PWk/2cOSPx8J8mt75tM9SMh58XGxuYtM3KE0dI52zPyybMZISfXA8zB2hDpX29EDbzLyJdODkpv/fv/2vS9I+9nOm3hNdNi7s9kDzQ2+kqVT5r7VdvbcKFKJKpYPYRwkk1zse2CNj3nyQjbFqC0N1SrWkxhThLvxIowq2QEXUhm9XoX9xi481LgOuOnMz1iqj3xqs2MQLHoV1W0n8JnO8mtkM/h7a8AnP6Qs1u3bj3/ePy9F0XyjWiwePzJzZzISb6HSx1Kltl/y7NhbGEdGRzGW3oSTrLG+oIUyvtIvPwtK8G4PFK8mtuj9L3APw5UTpsH5Bo7saFL8Wm+USp+Bu4kydi6D19TaizcupWTckpA4D9UKJiTC+O46DQsvdVw7PdxHyxVMh/Bf6usOey5XoqlDCw56VYyfP1TfTyf72S59POZSexTsmnkGQYwJydI2GdnTU7MzCdkHDp5hg5c0gSZA2w69q0xGFw2nTE9hX9uNmlimo6dg22wJ3EbxUSyhocHcgT18RVg5yZnaEwuh84kT9K4lEkqdu0s0gT2PM7YZLNRyLyTzKkJvG2FPjmJvQ6bzpyZpHPIk0TpYWmQk3xPkcaJK3bpzW/mETut3kocXpUns01ezsJdKWXnZMqYttWOL3IRr5gy96+yt+NAreiTApP0BSdpTnbd0GHoNB5u21Wh5lhQIG8x/ZqTOF0WAfWS3+zc/L+/4y2kwSPAoBnfDJo4LFm8/WA+38kqeVvBHeYkqNO7LPqcGrh7x/EnXO7TnTtuzheIW80vC8WwC4/uECyCZodiFoQ8mig39zz/s88csFNP7PjVkQKlJ3aciMIKytb287Vn5Q+D6DCkv0dYI2iqzTFYYodupupOpR6AhDM7fnEj04NiGszDeU7SI3/dYTwME9Y/7bCdhGqHIKEd5i9kftJeavKRBb6kkwYXjvAlJyy+kvmilqDG4uQNff+st//EHWIHEoiQ4JWTYy0vFyQdU/720nMYUXIBcDhUPm3u22Nxb5zrIVpSZvh8wUluhEg6xF5MnAtyHMqQyAfaBRlKsepCeXI2MA0gTSyPVBEVYnlBuABPXMpdhmBWw6InHvsIserp8yd+Kp9fniy/LOxnL/94Lv+45POWJ0LOIfJqdRVq1sHGnrx5+SrO30lqL7yv6KeoXlcln8wEC73RpCMygeaKScx8UaMQLenMTiOjEEubBnapfhM8OSaUENv52LRmLkLMJWjnzck6YdlQ1yPn/WzvRc6kqFiH6AkWTBrY1887Sc/WcguQDu3zvWVnf9mDUXRHOdxu//VgM6H4r2Rdrf9P0pAvuff9l/qOPpIuD5kHSvphi6Z8pL+QEr2aSuwQvHLyNTju/++pPpgLO3HJSOFiypiey0SJ2B+XrkfM5qo9w52sVTahQ6/e2Tsnjce5T4/9/9t7r6i2knVR955xz7jjPNxz7t5jn7PT2r1sd6/O3atzWB3cbbdzTthgwOScTM4555xzzjnnnHMUCBAIJCEhlFCW6uHOKQmMbdkmI7nn92CVsBAI6Zv1V9Vff1m22X573/umAaZdr2EprQt+BlaVlZLCjSjR8HTJMoRLz2gEaF91hXvmffRG4wcK91PEZ1btm4M72XvNnQ/ini62XxeV5QNgyK66QH0T8MZFmcCDdyIByH4wBfrVwvos6rggwG2t8mIsEHo6ElENAODcU7sejwMwvbyenI3PMXV0MXnYOeGYN2mfAYS6uqRxbTcm0HjEYLiFE4b7AVjXLMF7hkmcxPiHQ9b3DVgHAOCkNdmvHiBgK+jwiPZxr5n6Ok4n/5sompE/hv5LynrfiYMtdjNW0wyS9qtx6v1qTMskdyRIdRJMhJdAnSbeRcmtqW2UWtvOBi3KSgkUMFc5BY8MceUNUIw67fDIeQkKhx18ljtVFVPb21cwpXMr6d3ipyjXfuQuntjElTazqZmNkJwuj+BjHPmlTx6FH3S/1yGMJzVqACgzGW3XgS5T/CYXexW19ikvW/sCcbgwqJcFyHG2q2DD2bUNdjLIHV+jMQBAvAUeDPvZaz3MX46ws41fA2O2rc3GWYAXpIXCe+bUaEB/gHg/3LBpEZvqEQoIfvEk0O5qr3ujem3bya6nRfBPaTavFIIaq4Ze02oe0SERLHqmyoqTkndR3mg+LTrIU5Ygt6Y6q1y1ePUJ3PCRp88h3UnZ5+BO9uvUQx2h3miHVQtg1j748Zev7nWCWfWfVYvhtVPhoHUZWIuwWQE0D482yyaewMcZX6czBIQh5ssjev/4+bvz+YBq9/PtpBUoOggIXQas6mjKeGhPlTIUKMT54obMG7gbzn4A7xO/Nqj49S/f/1ZD3Hay3aQQdrLBGHKy0a6+x6KTT7COAgvuiJMHQ9ac3JxpDFP43rDqdatkE4iT27Hr3UQAQjWmOy2awbyzMx8UW9aSVgFocoSnwYSDlqWAmaW9AGb1vTuNygHF0IJYdbsSsOwtpyJNMaDTOp0CRQlj7kV95nUukQwwFVS7Fh1P7bWohOJR67Uh8zqxk74JS3ZmNNCvWvmsn5xwShGC1aVu22QAwvV6u83bEScPBZlykkuay1D+8XHeyuZr5zPHESe3nOw+bznZaRe80WnSCJa8zKaWbB9WlFqPreZHTXAoTMGAWTEAlddiUSGaDTMmNkOt1wxJlb97z9Sbp5ISdZrXQm4nt1s2rtaE9015tCX7tC0FXirItm4C+HDz3qFfHmwMmtRwN+y9AM4zdtlTdwQT+VvRmlvwqHMajUHh4sIt+tGW/oPeTzq67ztQ20xa+XjzcOjSkIQ4eSBkyEkeqUT78wexvcvbU6evAHFyO3Yd1Ha8+b47SdBp0QJ4db+/dzfcvmDZ7tR7Sl3c8dBGzigUuwJ6+odnzuexudW/nTI18CI0Pdb49ssoumDs4elzfh4RuMjP3rtUxFn2TpsL/OCi4633lTvofMG05if6au6EYct67oarP8D7JZCH7pz+3d+weMknfNwzl1YePcNftHr/Xc1h1rT+qb/qT4NWiw4+wTYaLHimIU4eCJlxktdm/IeSd8nALpZmxvURJyX9JB292F4FRZ9UNPR3Y/SWtxOW1wCmrHSACSjTeAFjHs7WZTSU9dABYPaWjS1gWXV6pbX1BCgoGa9sWMYvC0l1pe1kwClTb8fVNi9O1Y6tBCUAsNjcZuJGpqM3hLzFZcBZwvF5I+WNyxgSa2mFgVnjr8xSAZivLJ2BRv3oivJ5AChoqpA7vwpYGPyrM64QJ3eBjDg54PNQ2TK05nWrzc8YeZIvaUn4sznZEDH0vtjJvSMoU5Falocc+lu0qNFvZtu9FvlI5bpex87ciUMCcfLNyIKTqCgjXV3zRDila1cQKl44EuNP5iTRTnfwg307OVcu/cq35qZhoq+vb2DvPw7IGfq6+vWS/zhU5MtJemtCaFBonrQ1L/5QwYqkCSHAr0pah8CJO4ktC7Z4eCfwQL/Fn8zJSq3a0ff26+Rr6NS+fPnyzRfGBYeMfDk5d/ufP/jyb2dC4WnmF7H+p4pnq3V94eJkxkPhZJ0k9Re437tiK6nPsW/+ZE563N+YOHMETh4H8uUk6oHaMHtC/fd2zhp+ZRbqLnHj41jo61zM+JTFv1ULKHgGYOHI3Hm1n9LXAcBPjC+Lv/FAnKCTm4tdofe/Mqjf2PdmvC3+XE5u6mqBSckcj9whZ04+0psHIPnHRJSJst71CDpa992/3psGwrrf/qrw8J0GdqxaGehT8VmK+Y///kUmd8nwb6duHEJhwJNykr+JTr/zrXY2mnRgI/9sTtbqpIIJKU4KWdQNCPpzf1Ahh/PKfKiXEXJo8FPsurgdF/5ZrI0NeCsXfPvmSSF5c1JnBoDcf0SPP/x7cD9mWE23NOeu/vKCyq/JlRf/0sDyuZgFWs9ZrM4/+i52dUZTqzj/gSZa8r3754ScZBdpnVWJbp177V67XfPnctJOD7O9FrKTBavPPobQfC7zej0sYA9HTq4HffbJxx9/Yr7L2l9LPi18sGj18cePh6CwzuXjT8K3d8q9Cnlz0hALNix/rJlXujEAQMZX0QBEnUvM/cUD8PX+s54VdCsPdFyzIwLrG6Og8KtQAJJ+TTjwZ/oknOQ2Gf2m5pbReWgnmP+pnGQ8sBFKdXJA5V50YmJi9XNCbZhqv9GTZ2Csfg9KTPRXCdtVT7mk+3WekJxpnRin441hFVjHhTzJeNNZevLlJPrhh9eULnwSQMIqqM6AdbfzNQAUX3WO+CMJ8Jz+s27LyTWO6eVeqt/5cgCqLrrt4e8tneN3ss9LU9PYufwwz9D5MzkpbFNOe5YzAF3gmrskiYjbZ/jgS8tNlQMwAFAiHnuZmDPAmqOS/SiglsZrxwko0UqqnfCDvB87Q2HWpPVjn1XAa80Q5Wos+HjATxZmsILJnwOM1jqoG3RU0sgUdbVdxWTAyu3YSgjg1xqrXykT0AdnAWhUyeeMQP2zj9ObKt7Km5PvX1ZQdF8HywqPJyAn/6iFnXQJ/9wf8CEnmQG3C0DPbfstJyvk0smJNAdDFYPEQ1zMgflT9ZM2FtDnfkc/+fK5WuNqqg+vfRfEWY+9fdvoniWTFH5d4Yrd3LLezZvRq7kq937V6AarKTr374Usz9pevX01bIXfIs6HkzgZbLDSqVIPCD6ODIzDNYXzj5rhr3a6FPDHXGq3xoz86oB6o3KxoQNK8aLbINe3y0nUIwPxRCoGdpKd9lUMAJHnErPeMRAI9P+znhN6tRDUfGtN5BheHQOFX4cBkPBLvFzFris1cVb3bvhBo+ZD5s/kJO1yAPTvlpOrBYlK6qlFGHiOZURXNSk9PWeEP61jRhCYa5H6HqSCqSd25DqVPjBpFj9vaUcA1Xr1gKXqyyo3QYGJlJHkR8Og+GHOVsr/svONyPTcZPNoZp9uCyCGelNH/dGA4BImSkHu9CiI7NgZ1c7pl4qcZIVZ9kKSzsTeSnlTgSL5cnL69hPx6Hzx5j3Ik1Fl/apiFf0ltPr5jNrf/qkGVFw07Hb+X0Ykrs0P0UsTajoVZepaB6yND3FsTq5PVnpd+Nml5xCmWV/iT+SkoONWEXQjcVLY/uv7//tfPzhfC/9VJ5T+zwcffvhNOGfSNIkBwh2xdZoDgBnshk14kNpTZeIyZhO5DuJvpva0qbuhEkzgDZa0ICsawGoHbV3acVb//LcP/+Xf/digF3KSFObJBMThnnzzKJFq7Pxrzs9FODNiJ9lFamXQL8DK/O5OHby6zl/u6xx/xWSBnMWu2k/Fv+6ypt409Mef0j71rtUSEI5cfkdB7YtmQLL9yy9G97yJoPynj4KpC/qnz5gt7GGa+xUcj5Nc8njwzV+MG0jMg//GUvgTOUlzt4Kv3Fv9JGd9ydkPD5eNA2DQ1GeZSCRtCuHzJ0G482KB4gBghbqvxpx65/S7n3kO2+Zugsy///X0mVOWw0F6sJPrLmY0QLEI25qaxXiYooiJaoUA9Oi1AmKIJ5sW8OXpdz6PFYeoffq5zwVm0yInWUW300RPwCJVmcGZyIyIr08/ekX5CvlykosjiDt+Hg4naqwMj8ATIULMCBq3AL1o0vjkKm6dD5gL4zghwA2PiA9fPBhH76SQz1tMuPmVYdbI6laI9DI7D7PaO38iJ1fOJcF+7BhPRkpGkdB4MkHcGHtaxQFhjiv1Wv1gM9BtOcW4amx0Aj9nnccEqRpQewxLiYX7SQE12JIGlrSCt0xb9HbeBEx3g1HQq90G5hz91sv1MkbLLKPFH8hMN/vn8tdFTm4mK5RD1wTRuWPTKvALEuDHhmZfsQIjX06eDEftJLfg4j+++/iffs58VlBOCtz+kAlJcz/8eZwUtP4mOsLkmZOCpRXJ5azfPE7cGDOD+skwe9KUcbpw7LENuVG7DxCji6Ztchmg3qweAL+UzczH02A0sDnxYT/If5S3dbFc9LSFuoFBXW9u5+VM0KAQuJaqNwMaH0XDEzu8yoCx3Ojt88cgpvVKBfxc/Wq4jUmvBKBUp1j0H68GcfLNHLWThT/8t3fU/TxdRO/bq1ntPsjayJ/HSZK/sejsoB395DbD9967euPGDbORUb1iDvAzJW4W3L1o8Nhucz3y0o1zWn0zRuk0QM5RvHb2Zil3wUfhzh3/ObTjhcuXovD8xiRRKbB5R1M8pHnM3aplp+/v2Ki7MYYf//zEQc8ZGiYKS+1bANkrHt0IhcBiJlQLAE7pf167c8OgY71C6/oNhfQ3HaGCOPlmjtJJQZ+P6ZMffs5kAJBpTASz/sZRJGhEFGls3wAAOdjYqQ3QGie4YKxhfQVxcldMXBYLIc1JYoaRlqampvsUsXqGD7pqGYAapx3f1MkFJC9Nqw5AqR6DQlBKkpZOHdQvzuqe814BYMZZKxgPeJ15olW1jRbouwCYy+kECy4GBW2tAm6RkUXtcD30Q4UtFVCo09+4VOCxlZVALJ0G65lmOpqaTv2AlaepGfMmJREnd8HROTmZ72d8QznMzQV6l4XRRvhVx7MXzgZTmYU3L56zQFFzrl48b7e0aJxKB4n6EzVwfcZ9c95G0pA3vg2UNHaJoPrrUVFDmpN7ZLN3VNoWpDfTs91P7gPEyTdzRE5iOzMtr9wOWAS08HsJVZVJ1snr2Y9rQcL1hnndPMCs6pjUqgC0ir4FmywGSDOfbnwqOlZ5n1y5VSmXlJwJl7yCXbIWoC1ejDi4k5s91g77OkKTP3SQrYKIk2/mKJykzje4nPvRrY/OgyLVgH/9r3ff/TKAQw8IwIAxq/A51+jxBSrAWCdOLtIAxiqbATIsphvND+Lkvf/5rlxy5r8nSV7BLul8nCPuow7u5KLxJ0nief69IjjIFPmxOnnQfbknRPthO8mjjwad+8W6elFc7IoUrl43OwtJSLALXAFLQcG0RZPTP2Xw+ZO6p88WCJetcxgg/aBOXnwyK5dMfBwqeQW7JO1rrFiIVzvJ3eXeLC5+8U354kcB4uSbOWwn12IenDdO61raml0nRlqLo60Nn+BlMG0fxATzTTneeXww25jhXbFgl8cShhlMNx3IyfPWkoa88c3expMkz8eS1LZXOkkJDNvfKPGYOE4n/8/3v8slX3z20ik5+4dU8OiigW/eyI7cAGKEmfhNYCU9aQdZN0pQsRjAiEgcjSMAUkjuvJkXg66nNHMwJ3+zkjTkjS/9JY3d0aKXIklN3HKSFHbj998v+Dw7S6jUoer5iLRb7fffrZYAGDD+A3q7rY7LiFdxnE7+L1ULuUTh430N9KXArnbU1DHyaHs+LZ7gryXO4hXMml1VueC2hne/o6oesoBxuqOqEYmlZV274aKsOlmje5B5V5W/qcolSv+RJnkFuyPwwlaptC0n526dNbLQfpK23TcuP7+mJGww17F4quUyBjK+VoDebtXoQzxrfT8ca+z63O5u+WHolHhy/YDwemJtdJUsRYe6PAe9JX8rBXDE4p4rFoBZ63uGLQBMmt0z7YZC2vAHfqXlhJmCBcmj9kOD7j35xHlPmwhopvclrWdOKqdC/6booje7c5PrBaRIn8AaHhB0+LkWi5LA6ca6kK795/3YGSpwAc4yuz74yyfHsTp5kNjrBGk5hPEkH1UWZnRVIf0w8m8RXk2LgSShdaeTcLZrgekCXuMfqpGzod//+PHdIc6k2U8/3KmCw1yKw60K6CYui56pDKeqFpgdJB45BI7VyT/tWghuNN/yx6thqIPMkCPsBk+17a2nW06ilW2aest9s1mER0Zrwg7rYTBnG0VIcF8DxSmimKX61+8zeuEDH7JuJ/b0dpnbQkPLkwRx8s0c0MnNtU7bcxc8+td3XeoMYb/wlbS3r3tbTmKU//2vpz96Os/D6nixAXeNsD7iGEHMdB9dJ4vfESHO9b9O/zWGCUq++vdTp0+pje2YfzsJECffzIGc5I8E/PIPx7LJN2Y5IhwCnWoxktbOftK2pW8g1XJoyTJWAJjx377/7tfx/PXAr9933Jr22Rjoy9fM5OfeTu7t61866WgGcfLNHMDJ5ci7N0xjq3du3kE4QtxNnu1ne348OaBZNWeXALh1Sn558bphAKxW5NhFwgskSwUD0L98u0BqlvJBdsMdGoiTb2a/Tq5nGjw0cE4dktxFOHJ41x2frTw+cxKed+1Wrpu3iQesxHskMKwbiy8ZBSDZCq56tWbuBH3TqqIXM1ux+4TDVhGIk29mX05S61wMdbRcWo+itg6CdATD15MlTYhtJ2/9avDUTNFraUk/HPBa7ig7eTzyxWfoGJg/rRG9O7W25k+f6hq2gsRrbYiTgDy+ImD1pkZHRZfvyCzElsdFRUWJagk9j2B5YHsxYWH45e0wqMyoTPj1jCVFt0N/XUpFVI6ozl1HdMYBUnH27iS3N8ND55JOxUlkS/6J4Xhb7FhJ3nKSFH7r/LlzOstgI60B+kzEX7tbUJrHp/hfOhcqmXXrVjt3TnsEgNZQmZgZP2En++wKuasq//7JZ59dSXmWPZHx6ZnPPvvs5gsZUDAFWtsn/qVZ4CStLQQrvj999pUjQTDv/O0nT1o5rOJrn/0YRBLy+5Q/+c4Lt+8ea49OcubbEnTOK6ft4jRlhEOFfD18x9z2lpNyx4k4KaTTJdejfociLlbDlUCnVFx9VvcyVqGVTqdHuc+yiSvLDMBcQBHgx9NmZ9N0G5kUHuBvbNICVHu5gLGIwkPDiDUq/P+c+rRJer1RLiU/e4UUqYlejaylN5lmswiGzuQe46R9O7IXJwUkdJHptxdip1lI0HrcCAfOlkuaMIiTb2SHk4KUDElrwKmYi9UOgoyielptH4EVqwrnOBU7drSo3Fdq4SZ/+a7qhBBQfU5dNdPtqPCbA3iXstKf/6camhX33ZmHKED0KIJ9FjKgWBHnabtKZUIvTH2IS+EDgn8QZV45AOBt3PedQrN7J7kb7VY/XPfpWkKC1hOAEmq4c94UcfKN7Owng7f2joud9IVHhi1wtTAxccqwBL5Pp/J+8O0mpquE5hnZoUDkrZhy48ddWRaTAKuTtuR2p2E9Vz2oRF1viTO9sj02n3Nwg4NgbqqqKKFj2DKFSTeyZaJMIvedWbxrJ6c8rl5zzOuXfu42wlGzcDtpZ3I/4uQb2XJSOKR07v0Pzj1qgmtwPnNSOGRRBf83TNZ33/3xx+8KVayCG+2A5/SUBWruFxOdLKHxpH5rvv00WDHJAvn2tA1H73WQe696R5jIT1frgZ64U/GHGC7U+fp9pr4AwGzgpftFhCMeT6Kjbtx+GlR8iNu6EPZG+w/wwTvbIE6+kW0nUW5GZ383dhmEHXnmJK/BaLuWYvpZRVNTMygeLdEYAatWHtAlUDtr0CUCgEGrJthJnFkWN81iZUEnhQkGbHOeDeyF6coZ8POOe5mEjnIAI8vEPZ1IrQq3t8vs3Xdq2y6cXMu01NYzCjmU/SMI+4MSpfLcxhnEyTeyI3YFEVsZUM+c5GfpNUu+CGKfiA9y5ZUaoADWwl0IFnWzBxyhgHcActJxDmD0M2An57WSmWDQ7pmT5ExNcTlqAJZM/EWl/wpudNaqZAJuoA48Rt0Xb3KS3BBqpa7k2ia5i3AyDCmlPjeMR5x8Izuc5BXD55nAiJ2EK66sPbXfPlE57vGg6JZXqj8NGM5WHND4oIDg4wJAiUFrtskE6L6ZxEuxopAdAjdAkUIFHAXDMDKN4DEpbxILhZJGgehJGgB5Sp3ZOnUApNzdviLsldc6yRgq9lO/oFXz8mIpwvFS8uPz5+SPnhF/iuSOzjOHf6yadHb2k9v02RZwl1X1Owb6Yu+UbK/XRt0X7yrlFWlOwoamN1mZj4M01bx6c8WOBnWv3th/xAsy1Ls30tSTOg3U5rnL6/D3Chov2g8OjWA3IoJaB6I124ZdYwZqXb1xi2YOA5XGDvveEfxqJ7nL/cnqXz/OJMhC+sefHFqwwvPHmU/8NX5ALok8ffCz4HaHVCeHvSq4eMN3Tp0+fa3uWYZAivaw6JZXZQ714pTIz04/hEafZPe/fOTl0ceJ/fBLD/0S0HJLbZYW+tWpW6OCNXfRWgg38cO/vHf6cx8yxfvvp38q5nGbb5z+0GJZKOxROP2ezty+vXmFkwIGoVznp7tx0+vPfnOEE6NbP/b5GYO5f/2303LJv/4FI3kJR41UJ5kEmpCHHeru7p7eCkAhyMviOW0hbRXedEoZ6kHDQhF7+9eITEAZHsDhaGATPcMCG8Pd0DWFu0iE/1+4NtHf3d2H4QPCQPcY9BSc6e4+KIwFfHR33wH2qUp3ktli/c01//qZAx8DjXAoJFyY2w60REy8Ew19ruSQ0FMn2k8+R/WjH2AuZ0nuywrSnBx1vv7QIaUJKeUhKzCcFbZOLJcwekZOd+R0nex48jlGI11h/Lt2dJmywEtOoiI1Hpu452/PSSGcPD1GL9ZmHnnnFWeuyjrd78iOk7LK805ic+wMtXQDZWL3K8I2AQovFvycff++uBaovHH74xMdT8oFO5wktyQ5KV2075LcRZAVWLqPJa1tqD4XzsolFwNFNS6PAalOstHtTY2NuzxYcX2gqbFPNN8txK6JFzgZo82N7ctCQB1ubuzAHdGKxJaTtOn6kEe/69fKWGiNANGvs8djRRAgpDqJ0vw/p06f/jpiN/souOlfnDp9XXQsNko5RDzd2Xr+L6e/TeKB0rPvnP6+8IjWJJpPT0I/nTCZpPKlUsEyE1mLlEH89eQ0QeBE2emkYOtzPWRgNTA5WeJWLOTzmFzok89kiSa02UzYLyEb/hrgcUVfW48wGUAtwt36pt8/2YvyZgQp1hWoObKQF2zbhpqjPD8Xfmg0nx7lEspUv1WOG8a+VMQcQSa4bXzs0Qt3pbUKJd8X6B1O8vKLJK9l0CoO+pfkG7IQavkPfwHa+O/fwDWpR5W/eALFi1WX/q43B9h5oaJOcS4wEb6B/hjd2l+GigqDsPyiRevEDJco+OaIaP+vMKc/HviVjyGVA2SVsfuRktbxIeQ1+GYuyPVAZmc/Gb6Vgz5oFQ/9O2aROKWl5No6E2QaqPewBoz6+/g/9Ztr0TT1euI+xx/tEPVO408+ungDzlOfcApWjBL5QbX+6rd7aXywZvjpH4rFR9RNgu5/vuoUUb27MS/CScAPNTmJMz4wFf6JM/veAigDbDkpnLbV+PEnTes++MVMav2orq392AM1a+LLAana0MBNJ5ya+pQMsPVzQVpEUHM/Zys8qL56zeCmShug53j0aIWInFx89IvxY5Vy5szdn4wU1RqOKLBs/zd/ZFekTMO77HkilR3oRR7Jk3LcU247OaJ+9eNPrz4RVVmc0vj48vXr5iNg2iyNDkJ/t/LzOOs0HmABB6tkZ0cewOrEbpnWl7EE8A+dSEMpqwyDOFHSBi6+CzA81aexCT1gzVb/IOdOvYamM1KzA2jHtaMG4Q0IZ/+RLmkeM+sl7inz8ttT7oxdQ7ei/yHLaHHEOWlexgbxX3/99fd/RE96mcFOEm1tuYBgHL8zs5jj69EZoFSQ8Lta5/Yka9lD0XldvELFI8qlaj79/CYgEdTRkoBqpMqHTLAZaQCXMj8JVst8Eo4rO/Xw2eEkPz1LMvYbspBU/5s0L2WBOLNZIFjA00Oe0gBnddXXigmGFBO30hjJRAAYdjHDNu+9f+r//RdnOHjdXOMDfpYhmk4Sgs1U6yPqJ6Xlu4LZQHtLs3bJHYQTBXc/4sSm3xgFnlmzL2Tayg07nBQyt2oZDZoFiwcCE6bFTNBilUEfVothpqt3E4rsW5MVqxcDNNuErE2RwTku08RG1VwuZWWp644DRsBm8IfdykldtpGUDt9GUqNZxhGlP0h1kjMbYtpyXPkWCK9l5ItaSesEWKvySkTJ6ZhyZ+y6zeDTLSfNSpiAWX3nw9MG4wJSzM8fXcnfIAZ++bfL1Ux2dpBoLWQl5OcPzyaJqs+RNCI4wjJvIr3gwkffuq0KNlLOf/RtgGhj8xEg1UlGU1BWivxGLW8TlMTHJ5l9TCr0jJ+Wz3VKqU5SJyUjZPokHmpstqVmwPMpWH9TuJgGrjithQX4M4PiseNqYWqFuCAkc3ieL5zvYwJabWoRPCdKqkothndKHgnS+8nlOfLMvstTIhwiM2oxJ7pyTC7wSJ+Vy4keqU6+CkFXI3wMmWwg1UkEmaHpu2NZnBSyGK8IUXE1ngmLR7U6fpTsxUlC/HXnF08DOTkQJ2Uaetz1VUnzKKF0Vg6+av6AUuSTvrNQhrywFycXrG9uF5Y8eRAnZZoRg4ijn2sTsDvsjXNeedg2vcwjeUb+pNxT7CpTIE7KNPkXxBXVjhTGQJCabvbzhfF2gitxj0PLXfh6GE7y1sgC9s4zIY4FxElZhh9w/Rjy6hi9cZ7eZa+Z4yDl+6ZNydtEj3QnBVw2m/36Tl/I33qpwv7H1vVZ20cY7EDIYXNeMR0t4L14+dreKbZLECdlmUFTv2MIGgWb6Kr40lfGrtAnkFrlljwvZ+GrVCeXXb/76ssvdScld6VCykyW5NFt5IeH/6ogZS1KkPj7l+e2E36eg9MV/EJeKic1c28XVsRJWSbu/vCxxIybXSklr90bRCjxSZSzMaVUJ4dVLnoGBOjYvS5TlTcxKukomYsCXrWUzpYeresQ4Gm/46TnZ/CxfS9EHAI3n+eL874JxEkZhm/94IjKS7zARkvC650E1GLP5Em5Cl93OMnv6dve0wzvUx7TcaYBTpa+LXxWWZu9fiQBAHaWvts4mM/1i+6fGIQe6KifCV2DCiwdM1ag6D7FwBH64mK2qAvkdytEQzelyo0CUGRg4DwPKP318aZpyzmGcRSw3EkGuQamuZsAoPz0vUig7vwP6RxWurFB3C6XWxAnZZgJfQ9J64ghN8cXv2EPLbnUNXlRnqTc2U9GxEoaQxahcBwZpzPHKHxy6RfDEfaM/dXLN1K5rFK9yxe9Zkp+uehS4e/KwnjevHSvGpf3+OKFs7EcSuqt82ctUWAmQnS4HDlYdMQzMauXWn7/j3NfhlOx2tesz110tvjtj/zNCv2+7icX/9Do4KwG3Lz8Y8BS8XcfRC9kKl44/3vy7jZcIk7KMGGax7Sbeb0uIu9N+4Bw5f5JU3KUZrftJLG+QFOnqE50tLLEyTLbkeHHhYBg44FLd8KBvhTGjH4lmE5qLfijHJACA1fi/AkgP2k8vBWAANO1QYV44Zi2y9aocPFptGSSmhySDUCx8Tjx6kXKuvndfpazFbHOosMxAICW+o1Yi1nQcLOe7RfInQuBumQP893VDkCclF34GjrHtCljoy2l/DVzPGI4pW6pcjSm3HJS2PXru//yL+/+VA7/6hInC637qq7GTg7ZGy5UulZNYYWcariYg4BV+qgTrAUHDT/NYwEhH2zOTE442GIboWsjJ0BnqzLtgnnW1qLx5uLkcLTpJM7EGWz4RRL5Qa6kOsuuSM++GRKgm+i0TpUo5pH9fGmAMT05ZmWPOCnvTCtD19tjgTnXM/7m3IS1Us9EtNyEr9v9JAuLcnSdwzLg2bKt2FVjsOK9/zx95pTGEifjx9Maq4x0I3iXKq/SdATgQwI6lHPhaRlBzdenz/yX5XKxUj8AScZb2yWXLENEQQWPJ2i7c/r0XzXRK64xgOQfT+QEuZFqzUdo/u9/7kfZtD51+vTpv8URfb3pgvK/nz7zjvWr14B3gjgpu0QbHNceVj5jg7aLHnCtyDtxWl6SB3aOJ6PganUwQxZhTAC4/lpTtSrxrW098xxAHWj18UFXmkHaAXal+RjABwcNmRbATg5pejW2PrXD1mv2A16wzqLoKQCgxYsqJK1ntE1ZmbQ2+ptOrbjFApJfzBonUOQkIHRUBCbOu5jXtXYMEugevsxeDb+mViOHN8YiIhAnZZf79nubQz96aEVumfKyTrnDSQF6fmve1RK2s0U9lDGqXgfFsCkrhU0AlJivdCnVgKWEwjLLUYAPCp538aOCooic612Abai/3v8gDczq2onKSUIIxx7Bp69nP2weV4kAfC/DaVE/KXGyzrw+tQOAtIiVeEccwHr30D2CBNXX+wFdy3h3e08QJ2WW+Stbs4Wyw2q1T7ycbN3a2U9uM/ro4wdKSncDFgA9WePh9fuZxGqd+0ra1dy1iJtK9+1bi/UHwaqnG7XTVFn1Ttao+e+KHsq6mPXYu/euQFEtOkmcbMAp1buvpPAkmURzO6tkb/W4H2MdAtZcQ/AcD5u1Cr2W1HtKj11HuPOeD5TOqY2wgy4k9Jv8ruipaLjV074exElZhZOsI4PlV2iF7knykWYn1Uli0pOHCgo+K1CTGfdQOZcPuBlPFOAxJtFRwWIQTBWtAFoT1IOW/nohVQh6tBWS6mvxgBb20BDq++YStnJ6KrUVVNOggGHETiG4P3eBXN0OGPXtdH5jNWOqmLARrKBZDP3vuL2CMaRXr2vyeoemQlp93e5qXCFOyir0e/6yuK2cXOSeNvcKKYXCNw82d/GQw0Gqk7tnsvXI6gi8CcTJk2cVI2XcKJz7ukDSlC1Wy73ipNUfFTLXlhYwa28YAvPodPFpHEfOwZykNOpGndRiLOLkiTNhHCgl6WozQxmeCZRBaPlemdMvLZwK19uTYpKSC/o2Xqsce3GBLgdOChp/uQgFqycD4uQJw541/XcHKetWS5ohu5s5P342qj0TZ1+cfeWOe99RtbayjhpkAsDni7zj80S3AvGNCNrQAPF4+p+D9ZPUyQUpqcbwrqujv6IgTp4wPXZWBhFS+smBj1tPKnZ6I8Qij3jUC59NVre7XkRNTUJIIY47mhTTQgFgPjMgewoIUdkRubOctRk8f3N2drmzHS8PTkoF52rdU1925L8+4uQJQxwZDYl+eTqBnnb1xfPSZQhyvlfGCwf8MHujI4c5zPa4tHF0grqaezttvcRCxbmSsJJnYeRSj+/OHWARCouGqyqXj99JYg3c5KZeF9WUHzO5HgcNe3u1tToBYOS/sG+LWCo6BvZFlvLqN7ttPO5fLt15MWJWFx/+QT6IkycOMzACnpt/nmnTQFku5kmsdk/EPOcWqz/IPndiIC2spKPIJzTNKWSgNiq1tKahtyUyprGyeaYovGVzOSa2PSX5pbD3aNjhJMnqt0zo75ytp/LQeZ6/6PlQVTedQQtSehC0wR9wbJM8SsKsdZCk9RyThl50DJaflfpcDiLF1erwY1nEyRNnPUCKk9U/9sr0KiCpyDdlaqdcnCHX23r+3p7Zk61hUcPYZO/SnIjk0s5JVFNwaG3nDK44sHFzOSq6OTb6uW87Orad5I9F/PxrMQDLTyLAhEkCJd+kHyQ8GB/3mkIF9xND8zdEj4LoDA9PI4AF12jAross70JxALMyPGMZ+h9qVmyqeSAkZkpy7SrU4TaES0qSU4MdWiLyiIA9U5XbymKWh0U1s8H8aGNs8gR0xZpJiOoUAl51WEThVg7QbkCcPHGkOcmK/nn7oyKbMErdk6Z3XDY4Q+539Tx80ibZ7YGF65zGqLy2qhC3tDEKusDTO3N2ozK0nbsSG9uWlHBMe0u2neTkuUX55sDz2yWAEGA5FxWyBCqVKzr9ZjGRdX0+W5nlnE7FTz/5IIm57BrHab3xmeJ1Vyq94NKnX/sTASXhi39oqUSwh02+/eKbYBaz6vYnXziJxhtQZ2v6959SGBvuX930RWX/8fcP73Rzk9UVf35PCyPE+v3jc62BjepLf//wu/I97PBBnDxxpDk5buEtOkBfhiGUuMUvPAtfWf2hriXjk8ss0BpUTOU2hOTPrjQmJ+SOU+br0mKqRvMjeniYkIjWlGN3EvC4/R7ZQNhmVg/oMWrdjrEboNMgYzwgNzeqKbUFPS3eQUXyCmZRk0wnV1xTZh0DVvpvmNG7H8aQqp7E8hqvpNDyFaJXY8JwIFRvdlzFn9Cq6QfXs2M4/ZS9XmjQSrW6OcMdt8wHM/Yh5IzL0ZspF2tpQQG45ZSEIed0sOpvu4eSzoiTJw7JJ+SlOZ7sO93HMxNyAAglfinPdolsdoZFimel+iNDGwfC3auGh7uqUiOqZofa62OSWnMCsoYbLDyb4qKO6aDZnXM8g27ZgFdk0AgYsapNumFU0GWQRc3/5vfiRv8m3VMWokUnAWmNRSk0GVtxj6/X6wF8V7e1So1RQLO1XCo2mAIY90A2ZW2Tk2g51qrRBtheWvB2Spqb5hLAmWRiXfVpgIdf56D9gkgZ+q1gwLBu1iIRGsRSOWskDiHOag+lsxEnTxxySMyLb5jQ7aIcHDHHqnBNX9gSjNkbESbOBl0ucnYLsQ4baklMSEzJbW1PjsyMLxxrCXUKizDwb0uOP6ai6jud7IecFDZB/SQj9kmnLdRPdulnsDa6+ntjc6Oikj1KRA+a0Pnskw800SseEdnKIwAE+CxnqkwDEGo/Hm8xBwhBAYIlky8+fefOaNnjHgBSDOFkJqqfExMQzVMXgt2hbrP8xqcffhpESfcYB4NW9b2aCaLnbbv/6cefWO9hsRlx8sTh4QgvCjht5iBpyTSEcp9ElGRMyZmtKBNve2DPpdrYhvVQFgu8HBN68PN5bp6JfRtrdR6ukZHV0w3iIhxHz4tOgjHTMkAMMpuJCMeCmseiAV6NX79HmzAhBG6vOD6JjbY0nF7xiC6B+kcQ4L1aqIUCPB/L6UyRkyELgcaBcXoGo7WafUAYrS1y0ttyA8xrJiyG+XKFPSYWsQFaIevpvlOg37x+xDgF/tlzhgaxEUY2ezhiGXFSFklWl48TeSmFnomTYsUEFMyiZJmAjyrJhbN50MUpjQQgmCnObIWGbITG0o4JPAW7LD5x9ch5yUmMaiyYNYsi5zwdBSm3RqHfYiayesmriRsbCvfcY4rRAEQYTa24JQ+YFAKihjWl4X4tQGs6U1uVu0GvdmS/Vg4Aznfn+h7mAoKxKbwZkm5/axp0KRUSgr35wizNEbBoFEJO956EnGxcNggEoDu74F4tYLgiTso7Jkpb9ZhkHHKxa+qCuKcUSBLqIHh0GpyYxqNTNiFhuXQKE7oRMuksnkD47FFHzE4nu22gLosea2SnbzvJm3bUtTeOpEJXlGj3DWaejZWPKLOVYHvTNdhYaQhjHUlOUbQKv2dLX3RStlMz7gY4+4cOlorhSz63bJLvX+rH+zy20dJphF8Hzf6PICfD4EWSpxNH2Kfx2M/7sf1qvNMY6NapoWca2lkbRPcYPHQP1Nwu5rMLECdlkGU1uQhdYVaq/BJmj8myvbHTSVRmC/QvM/zHR3CCQK/KjwHweiE+oxR6AXY3csU9fbvKD3b1EVNrmZWA5nsjwMCdDhZNf7wHZ/VMKfzoUVTLH7rzo21h4SBYc/zxOvStEJvl0SG/miyCjaJcDmAn/nExqiEV15C3BFBxwwJB4q9ng1ig5PZPgTVRLy9BvxLESRkkQU9qepdMwir2SH95l4gMsNPJPcKc6+kuMog9nnHvyyBOyh5CDTPRgfrywXqFZ9Lc8Uyl7okDODlr9MEH30Wf2HuAOCl7LN/0l7TkAkKxV5wM5ssfwEkWur9v9OSOrEeclDn4mVq1kqZ8QM33yJK9nvIATp4wiJMyB0fVTZa3hEiBUOsZL3PFmBEnEQ4NzNlkSUtu2CjwTJa1anaIkwiHBadANGEvX1CKPVK3MnpkBKlOUvoHOQDwUGO7mylez4iKqpe+aXmx68VsuY2B5/ICNgb2kHb+HIiTsgZJ248gacoRuAqP+D0six8DUp0cf/j7CAC0QOtdzeAQQz//7LP7NVJ36LRHzUhaW0zoN0taIga1qiStvYI4KWtM/VAmackV60W+GceUXb47djgppG/Vypu++6+BNEAPsqVCxqHm6VBYQt/AoKmcpVnY0s1ZFEEA2CTReT+AFnujnk7PNSkTAO4yam4dCKgMAgrHW59b4QI6gQ02F1BYuBcloBYYgFOnkMYANBQKLXZ4WK8YiyJBP4CMXaaBTTRqkQ54NMoyahXOccKjFpnwBC9q7uV9soiTMgY7/+awpClfbFa5JR1TWY9dscNJQUqGpDVi9fhBC2CG2NOFaP3Tn4dyhP1uztc+8ii/fsoFD1jJp0+rDgnHQupFr6PTIBbyhhrmQuXXnj/zvjme5B9u9u7tQtdPLrYKm3xRrNTvz1ytEwqntc98EcOfU/lfP9bT/E+fOZMkinbHDFwfnDZfBaNm5xRKNuI+OfNVjGApyOH2uxdrgBCt+94/8nicnI/PnHJ+SUrESRlj0dxbDkNXGEKxR/yc7KTZ7ewng8MlrQGPWJ8grCDEgYmzMsiP0EhjNX2g1+5/1bA4/GGxsEgrsdTYZpyKXoNfBjdZWXR1JM6z+zR96sO1CrBWjzIq738RVajtiy836+6yjK33DSQtWHjUhmhmkQtvhGPjNXKq7IxEJ/mO3HqUl2kaTe85r9e7kKOSVu9oPLhseCuz8KrJxrxPTFWUS0OtenS9n5Y4S28HiJMyRuePLbK2qrBb1gu9U6dPKiHtJbacFA4pnXv/g3OPmuC+b8CttE87hxbuSB9VLgBsF52Fll+iwbheGCDoZKy4OwDQZyLeTQlFLPH6W3vNV7qgSNY/GuNkhgFBV9Agxm2hxq6z1GgJcKeptXehn+Nnx5h92glGJuHyZtXw9wzfduOBTCNUz50UAGaGABi1q8FaPqUAH/OFRp1JwBlFz/cDQLZ/6aQmxEnZgpN+TramSvYCpdIlBSMrV5RtJ1FuRmd/N3YZhH+xAeeyjViHjnjn9WbVVgCydEfbjOpBr1udAGNWOG/01RONez+KdyJDTsZpL0maYMBO/f7V5GXn2A1BkgNDEO+/WGM9iA5+oh7PBgUfXdNQ/+Hx0rBBLTTy0FK7qSjaZzKsXQZAndFgtwEkObdcX/36w06MSwIdxPlOZKqhRE/bbKR+/1auqLkDxEnZYs7e8eSSug4MocwvcWfhrJNkR+wKImIkjQGnYt66jaen+3qTSgsAOXqjbVZtoMepnLdoUjBv9t2dW0oug5LH8jKVe+DblQHauMmlW5cvpiw5pzN4cRYb/Fi/xRqLUbBoeksln1D8zcVb93SziEMGdaz8m9fv/PGwE/62YR3IySLNgW7rOsCoVLx6+9z9zgX3HAaI8p7IVBc52aZ06daVa4iTMk7J5XaZy1LbA5vFbrKSPLDDSV5xmeR3GnAq4oFc1fNu9BHVEsDx1J7tsGiROJmP8Q2GekdJySyIkaduVAA2At2xKfpzYMomGeOcSt920roHswxAlfVQvT6k0NIMd8igc93UGoAao0b4u4fuhgAQ+WSy17IGLLo4AlBh1rLolgU56TFfqToF+FOD/qocMGyWJvphO0CclCl4wb/spRKo7LFW6pq4o5rdCbKzn9ymzyaPA6jOp56ysKZmDema8bQ2yKAumxLegl4GP1ezeMBbv3FzRXwOETv/ZmxfX5BO+WaJRsp41M3IedtEGi/KmMyP9FyotGgpcK4Yig4jzhkH9pXqeFDH1RPnXNR7euwe1MPfPXjRsKPCLmKj17gS4IJ06sds7tajHdMYINRxuV87pifTOilBoXI84Hbyi/NiiJMyxay1jTx3kxD4Ut9E8WDphJHq5LBXORvqwnTtNgUT6n/92Ich6LLvAP1eNbwlmzzAiPrrqXOlrLFg8VoIYOV/dvr05UoOwBqf+cE7InjGK5vBS3Gg8JNDlxqcx1fdPzv9cEAoGHpy6l1rjACrd6Wq6fKpO0kWlfA3Tzx1v/Ou+4ZwwL4BCDqvn74R61mI9svfBAl+WF7rrVM/pDLGVU6fjXKMezGuaD69dfQsggyQo1onO6sJ+4NZ4paJloELi1QnmQQq9Pfl43FQV47pGSRB0TaOAX2VJuTioHE8pbd7igUYy2TJm8Aa6u6ehiQWYvsH8VQCi7AhEJJxfCGZyKXj2YAw0D3Lhf53vrsPD8U4y5Nk1mz3JAUn2nnJxq9N9kJfZuLo0J3ZnrENEpm9RhGA9TUu4E13j9AAD9M7tL5GermfRJyUISwvveFMVTmAUOWdIAO5r1KdlAva/iNd0kI4eTC6TyUteYZc6BE/deLdvfw62f1Pl/33m7+OcNjk6O43b1mm2Ch0Sz+M/ZRCJlXKway7RH6d7Ph3WwedNDmfV3hr0NOQcmKzHLJa6xM3L2kfAGJNzoubL3aP/DrZ9B4ap30rev8vHeHwIN+2lbTknc0izwPvEtmcLzIzE6XE7Av5dbL59DgAlQ8tOuWoUtpbS75OhaQl91AqPA66S2S10vWh2f61kmcnxwAQYOy/j9tDUViEI0Ggv5cT0WQcfLFHHHyixv7Bd6Tbuoi2WOwLOXcSAFKjqvYQMqo8WUi/hcj74uQOyPneWaiDfKQ2SYuZ/r2SO3tH7p0EYDTovDMSv54knPJHok0+bwvrdR6JkrNE9oVAQCv0E2WB74u3wElAzNbRESXPIpwMVCO3t2v8sF7knXSg/ZT0At8/t5MA9NlreCKjyhNj8ecMmdkQfDhQij1TZg7QU1JyvLokzb3zdjgJmNH37EQ57QjHD6fy8v4n/mUUYoVrwtL+x8gbmW6irYj74i1xEoB5Y/XkOUkb4VhZtXTfKjXx9rBW4neAciDUkpB+SXPvvDVOAnbeBZMhpuQOwjEy/HvFWxa6wrArXJL3vU7JHKxdkDT3ztvjJOAs2N7IkO99tXKJsOi3KUnzrWKtxDMBvc+LDZ9K3H/38BY5CQVR+YqqyAau42bJxXq76MRbBanIO+kkrjZvlZOA1+n8IFr6KQkIR0XTtbq3NGeDVuqSdgLV7N4uJwEgxBjowyfAIxwbSWdXJa23DlyVf+LssY+V3zYnAWg1Uot77pgghCMF62zyFs+s1QbmHvts/tvnJOAGPnSTvzPX5JYSxeqTL5ch5DCOAjZ7KdM6ZobK3JR84bBh8qWsgb6FTgIwpKVQipQgOB6E3pdP/mxmZmuEh7vH4ePpE2jw00VTNy/J/cPG3T1Fygbqt9JJQE2+5Dqz/+ILCLtnxdxY0jpBCK7XVNU1jwAtXW2Vx080tCR3DxuNC7ekZJ+9nU6CzQGb6/m7O9EW4UAU6xRKWicIxkCzffRIGJ+YnJA0jwLPG8WSl7ADyMn9J7CfKC2vcxKAhfS7xkhdkKPHQlEG9skt6Nqf/Jh2PxQ9LJK0dgA5OSlpyhmDZ0YlLekIqmyU4yRthKNiTdVc0jpJMIa28nl+UPajrfPpdgA5eVdfLrn1H2/qBpcCVG33nwmMsBsqdPIlrZMEY2hz8hNN+yHzFU7+cFku+e7f33y4Q6WySbYcH8AmBxgaL0taJ8lb5+SQpClndL1+PCmGFnAvYOQtKhUjazD+cJW0TpS3zsnXD8tklt6/7uYXF/TceVwjn++XHCCoUZEyb3j8vHVO1pJlmw2KpPE8pX/dRT8JgJAQf8ONKJ+zcjIP29z+EIqGH5z9Oynk0Ih4kpTkQAGXK0p0FfJ50nJtdsLn8fabE/sKJz//5CNZ5uNPPvn0k48ld3Zy6rddbm6ntelcKX8LN93KANSvo2Xiard/JzdGakuLy7vWXtJuY3RCtMjDmJ/Bv+HDg5tA7XfS4hVOdmclyjKpSWYqycmSOztJ69t1os5IqJodkpZ++HBbLtZIms/YLLjx26+/XginS+5LhzcQOS1pHgL7dlIw5KZh4WRmnrHwopSjLr6iOcSF9IjWN1x3Gr2jxyXNvfIKJyUNWWWtKiO84KBHGwqKTJXSkPj1sFl3dHg5dCV6fK5la2tmkf/6Nw3TcohXyX07yau5e9E1xk3dsIDMXh3rnd6A4nHsUN/cJmi7fj29Y3RNMOmk7t80iN6EHrvS3znLgB6wPNw/SxGycfOoKcImdrjV+bZRu+T59op8OjkZZ20Sc/ASTHOWT3yQEgSHzNzPuS9vIF8Lt4X9SDVdBwtRjulQVEdPdvTtBIAS5+jfB2gds1ww1bGBH1oXP/4w2LeTnGpl0178bKae6ximyOaheRWNOxGpoxI8BXoVfjPSNMknz3kqaxnpeAwA4UKyzkOvHi7AZhs/dqglYzJ8ffzrhuIMNG5fM99vfqp8Osnpd/MePox08gpVo3JkrfIw4dV/KyUlYy3chghFJtHGawTXf/zj11gGq/TKTz9ZL9DzL/z0syNu3iSDDuKMp2oMDjHPev9O1mq5QRf8SSuj6r5crzvnrXrmY59oGfg0UgZU/rCw0bLpm/FXNvYzfBgxu5BhY29pHjREm8yyu3PFqrvL4rFrRn2KjpaT2lXr/R4OIqexa0lOawb0Jh8cgsXZmIOdzYLwHKvuVlISBoghj3La23Nt4kk5SlUg/EbrvH4uWC/umNApA7jCvnmrHAZItpypf7r/AzVe4gBOathOCgHaxTi/uarI7tLd7AHr3/T905vXexVvpvaGa+QN+KhHzNUYmmWWWLqMzsXoxKP7K9OtL97OqzXQLlsfctHKnAq+Yb7f1yKfTgrYHD7rcGZNGe2q2gOvn3pA2AO9N4ul1D7a8P3ffzl9+nMfJjXQfxkMPY1G2SVh12h8tFnmCpEuWLDKZYBUq5kG8/0fPPUSB3JyAnLS1SS3PDHE5Ob9bFTglx/eDOlh9zxSrFtOVk1p9zbJpaJDzDxCjMOooPSJR3dNrJfJjXs5tRb2/fxOc8suSqaixZ8rdj1U5oK/dT+UPhcBIu97aWEHMUS5bGhonARwNsE4sBgQSpsxePdsAeANar13oRxgrPJkykktFwz0uXDSi3K3Skm10c4m9no8Pv8gaLr9sWbnarJ6Squ3ZSmLmGpu62UUxwfNata5Aa6xKbba+fX2XuPcGu2n/exiNcv9HkSAOAl9YKqMVJG6IIfDqqfOhqS5k7Vwa4Kose4ZugqmHEM4YLI4wRv67I0Wx/rUztsWsAVhRrLiZLWKxSid2GD5NOzxw5peL/X41ZnOGqMvrhc2KKp1YmOVk9rcNWPn+z2fhiSa+S1uFGh7pBpYVHb4qmfWWDoPcFr1HufOx9013e9BBIiTMMP+d0yR434Og0alYmm7xtfCzMRVpZhxGn0g+1YxKmUNbIbHj6dSATkwF23iz2HoK6MaZcJJbtXd2zGVqfYm8bXmN/0DHlyJGEnxTrK6pFLVcOdR61LEg/g2p+t6yZ6KLq1d3ubxCa4O5c1Wmn7eD64mlZvYdLEWgh+YJ+j/qo84eSBYEY+fvjUHfZ8k0eel1jzC+2qJN9HxJwzuGFxxwmOdHhkahs3O2SoaGkViKMnXlXwUVaeqdfZ/8NRL7NtJQbf5I0t3a7PYCUKBmZmeokbedLqF3VPbtPkhK4chfL59yWiCqamrsXEpeb3ex9rEvXQVl2NrqqtkUNYaGDnCZve4Gtrqawb8uXIGjoBFK43Qt7Ka/rGy4aAmNQ+UWpO2lQ3Qo33BGhqtjetdUGuAIhSNC9rQuGHN+5JbTgFuPOMQ58D37SRYrY2PCI8qmOcL50vjEnKLx5mEhtigAjSf0NBMYEw3o9ZGW8ozUhvWgHCjIz6iliDkzpfHJRc0zC30DBL4gNGTnpBT07vfSQrEyS14mb+atyHH/RyMKu0cmdkEt38nuRtLM5MoPPRKuET04hppE7qozE6s8gGPQuUKmFQWl8kgLS6JjqGhoVFwngNvDY0h0dgs+iYX+rbNZfQqlbHfQvCIk9sISI53096+89mOFc8HsjMs37+TJwzi5A42qi7dH0EK2+0fqoGupCUDIE6+FfCGfe5GImnp+6ZWJ1XSkgEQJ98SiBk6D5slbYS9YqMjC4V4JCBOvjW0WKiHyOd7eeLQH1hLWrKA3NaSzEKcfBFBjKbF8axV9gW7yiXuBVIvWsIWlTRJUxbAGDrJ5zCkRBlx8iVG1R9kLEnaR4jg0V9/kEu+eld6eG9tOStpyQJLRgZD6Hn5Ax18r1TyEnbwZ3cSgPTbLqNHvlbJ+dJb0pIzcO9lSVrPQb8QIGnJBCumvxuYyx8WFhfOlklewg4QJ7kTT8/nSkumPkw4X8rUZ3j3kN+X5qSg45aUcy5OjhXT86YutnKHk+OVs0g/KZXV/Aemb66pfiA4X/tKWnIG/v1sSWsndHcrmUpOhGLXQTxa7sAuB91BxpPS4Xe63Qjfb3rUrnjLnMT/kixTp3u+bWf4SBp/bpZiVc0Oce/QS7xdTvI7fpKthV1kLeStpNZEL/roRpVvl5OkAFPxFklZAWNoc9QzAkcD4uRr2Qi8535kR1a/XU5OXsrdlDRlAySP521lQEW7aFXSPmTeKicFdZ/KWKnct8tJgDj5DFrCJWf0kWwWOQQn8SjU/HNF91jb0yzcdfJRzVBJcxIfqH1El679chhOCk9iNyji5BvZHNa9XS6lPuKBObCTggGld8986b/xrKrmdNF2wYlJc7tFSfOwkeZkp3KWjG0If5WT/DcUIRUKtkQUrLWWD0ygnrvo8Y8+Xw9xchfMJT0yPYINDwd1Ulj6rW5RbcRNw+3zOQim+pOSJhh8qHZU66vSnEz7cllmKgyIkeYkZ6m3qaG5Z+m1cQ8ZxxA3WOPJPvFZDSTxPQAY6K6GhsaexZcPPaEubR/CxcYfdGYJcXI3sGstFNIP/WS8gzq5YPRLOwC8lmoymDY8dz2STnb7539WHuRmX/tDpwuMquvNAVCjcP7+APSZib18J04ngw02Ey6cd8ZInmC/SHGS6PHwKEKJgyDNSUK6trKGtlnq/Gt6O+5Yx4pYMNp4e0FIVIfoeDuYyQiNR5paT+PF5b52QO9OrNkSFZ3bdMBlWsTJ3THnrWN32GdXH9BJQfHFYElYteqi6nL39zxC4kcfOk62aRrb/qCDntDQQ/OLVVUNftGaEBb+8quF3n8z5JIS7qnrnvc6YIEOKU4266YeaX7FPnjmpGBzQxxXC+b9H1kFBrl5Zi9A/99YMwX1l+SesmYoCBIsNTfMsTlL/X2T7W14QO2r6CTxSSNptkGDLCCcb2hAA9Bh98QiNNTNvXZtZaQbxeaMVrbBVfoIXSURNhn4tXU+l7K2UqzlMCWkD1T3UqBr+WR11RSbj0fvaWCLOLlbKrR0cw53DfqATvJjf0iX9E340rFm9XctqWQlLRwYbpiI++br+ikN/fnVe7dxoOmsz9jjz3tA8j9bCZuvPgUg7ELiwa7kUpwMvnZUg9d988xJGqpnTtQx8tCxfsMc1myCSwOHXOlimzbHoXWHPHWvo/IJZa72uQtzOT5RVXXta6zBUCOvLhqp2tPGv26di82xtMnEcjoC44c53M7A7J7SoKDq5YkIXadKEm+9ztvKyiJroqVvkzra0hZzTbWOMBBo4tdB48ym21plL9KmWqBLwO5BnNw163Z3QkYk7UPhoE7G/ZgmCZgY3QmKn5x2pGDvq6AAptr+t3d+bpnSMJhvvWzFBBhlzbTL57Cg9R0LRszvqULQccHoYBeXl51kPH0oackOW04K6DMVCVV4DmQlDx0fAg2yhbUe5TPVybFRoTkzI6kxcbGFE4S2iKiwmOZia+vMttz0sbHcaF//gvbGnPTc4PDxhRI/Zy/PwuXO4Jg+NqfeI6fa0yy6tyfBxc49sHapOcTPx1o3tiOpiLpWlVSTr2Xf2prg7u4V2j1XGhMbk96Gw02Ki8DvEsTJ3SNsV1Fr2VMU8noO6mTar/ESJ2s+OtfbpuhAhpxcIFm+47bqdaNhSsNwvuyShwBgVDRTFB6SQNs7lmT/s9Db3Xn4TjbpJ0hassOWk6SmEGMlo8Qh6DXz0HF+/dBYsS+ktMbVI7fAybKqMTihorYXNZ4W3j3aMpBuGDy2kB1QXRhZP9zR1dtaXlnrZdvSFhDR2B7o39fmpWcbE+cT2tPs4NKKq3aNa6vzDW6I863tSrSObQzJoBAKwpp7fFJH0nxyewqcM1vjIwqqm8fJXMaextqIk3tAgA/6NWDp0OZ6DjrHM6CsDZcoplMogT9ngKY7juTlu2rYMUXNJWB3pRHuJweu6NPB7AP9/Evfz4Pa/7Rgp5+PAKD+vKWoNOm+edlJT/Uj3kOzD7acxCTpXPvlklkZ1Ffx0XH+g9CXuvzz8/X1QmPMjCoGMsOji+eJHVFpywIeq8a1gLJREpQTHzEp4PNYmKqEGHOrxkrvYvpmtl99vevd25ra7g3UkaDERWqFXxOfmOiWGhi/wumOzmoMz6MRi2O6x6OKxmJDJwRjfgktxbHhqd0bex1oI07uCXKLsUKTpH1gDurkZsh/BdPBmKHJRPLZVKrNP9tTsHcfY+a0nswPfvtZy5Sa7vyG5o0RVvrZhBWzb4qJDv/DRjjwSBvPsLtVfrDryktO8lV1Za/MxpaT1NHCAEvfWhR80jk6PnAM+lKjU0ahgaZnsFf0CGUyxzu4bqw2OgcuW94WVMumlgdnREWKrnb1Qe5ehlYNpd41AJT6V5X7O0dXVvWRwHh0AYFWFtQHuBnOsb6pVDCemt8YWbyJL4jpnYwuHYuKWALooLix+YYQr/TRvZ6kiDi5RyYir1sfUl3hgzoJVkMufvvDp9dLN1D3T5/94S+qOJbjf13KTfj8058//C53WFFtVjhi/v23f0SvgYGHp37T/P+s2MxGpS++uVV6wPM2X3KyVy1a0pIhns3xcNCd4jMPeHORHj085nKqQ0WLg01CdnLeFGmmNT04rqI2Jm6WgkGXBNRurhcE5McHD9JwmHpX2+hkc5O6Gu8MzEqiT1N5UKo4HBgMz8ExKjxKCagIr4LI6MnVcs+kOr/E5cHwoO6R4JzROP8OYrtbwuT8QHFkQO4S2M5C2BWIk3uFlWGkUyBpH4wDOwm4Re6uvm1QUN0Z6J9XVk8HM7Fhw7gsj8jSmhlSUys0gpoMcsukAnbaPfOEuI/cWEDY5uFWe9BMwZecdDOWwaNWnjkJWBvigTcfHfY0c6w3xzdmajY+rLQmOb6rr6imLiOtoT/Fu6IhszQ1oIFByguuLwrKrysojLb2LW9wNa3viwrKKvSOGGsKiBenSQ2EZeJ47V6BORleScOloTkFfoZxrZ7OlRmOfv2j/vED+f6xRQkuBYMV5U1FCQULzHVJEsLuQJzcOzMuqh7b6TIH4OBO7hZWyLca7tfuNR3SUPhFJ9m3nGVtcRJih5NbCFeT9YwcHOziRjcZQ+k+7kFlC1NZfq7+FUukNj87h/CW+rQu5kZ11iQq00bHrbw9w8MrMSSsj9AVZmIe0E4eTsqZEvV4k5mVa0JcqYOmZcwwdTbVyc7Dr2k+x9reKzhtbj4msGGoyNHIKQO1XBPm7pExSpzr2lOWBuLkfki/ZVVx8D31x+ckWPK88PvV4sMqA/CCk4LBWymSpiwhxUlA74p2sXGO7odGv6z2ANfsRSGzL9w+Gur91qp8/RpI+KEFLmt6eIM/6qnqMyHEpHok1fSvCBmNPr51NLDaNyxOoSMMTdOEAJdpH9bLAZy+mPCyPhIHneWf0TlC2WjL76EspLolzQDBQpaTVzOTO92BOHn0EJ0evJxhtVeO0cnD5QUn2V7mh53idBhIc1JAxy3MoldEGz1pmPk1KIpnLM+tMKH/2cBgKAI+ky0UsJgCQOtKzJ4HfMLCKoUJPYgK/Sc0VNhkiuMBHpMFWS1Ym8fCz7S5iiUzhYBLxBAYLAGfRqQKuYQFPHQF5BDQC1ToR0hC512COLk/WLXnVLsPuIf3bXFy/VrYQUeoR4E0J3fNamEAnH93IiBO7hPeQsDNyD1d/l7ibXGy75yU2ocnz0GcFE6FOhZLPXH6GECc3DekisfXWiXtffGWOEkNNYDX/GSOA/WT1Jlx3EltdEGcPADtbk98D9BVviVOLt5Ilq1CPBKeOclfqEktmZYWXwuZq/BAcScc0hpjx/w0D7903Hu1EScPAjfVQG3/a5WcLyIkLTmD90GmpAXT9n2XpCVbbDvJR6cZ39NNnGYLARDwxL4JoBuhQChcH2zHQo/gi6ZTBfANsaV2eseFlt5cOA8/GEJ0w+OJHiqUVCsQfQv0BOKvHg6IkwdjWE05er9bhHl/XPGVSxz/Wi55CRCUyCcnNRnyerac5C1nOARlJAamjLEAc3FqkQH4LCoGQ90kLBL5jNkJsnBjbgaegWUtz+CEYC7aq4oCSKipFdHSETk/oAWDgQIBNmkJzwLk6Uk8F/A2V1DwhCpgL6Hg+VXy9AT2YHMLO0GcPChZD+0a9xfd8O/859dyyd//o0HyEiBGHqceMFXviNhyklzjHjQqXCuOacTjGuLD4rtJC901aQl51QVxZRjSVP/qal1cVOEcd3MkIzRngtZnqRQxhSqICk4bgweU5EyLkMSETjpzJCu1cXayLDQgf4KIrk8ODa3C8TdHs8JzJtYx5cH+afAe5sMBcfLAoLV+ztrXFB3nGy+uXIJ9P0fyEiDKvjuMnKYjYMtJdIR/Kw0IFnuHlnoDbKwMYnprQl2czJ5YuRq7VY/Wpna0els5+rSvjyY7mtnFj7aa3vdrL3OxMzLKwEIBKSVNy9zWImwYm6JuWdCd72uhZ5/ZX2VvaPjYvml9Ns3VwrVytDrAVN80fFr0Uw8BxMmDQ65UMJvZxyQd56tASUvO2NhxrhYlWHG7hpRsseXkqLdodMGnb6yPlzfUh0aUZHh7FydrOuQmh6S2lEYU5XhmdDeh0Gl+WbVxLpU9YR4F431V7QUekYNQWEpJ0A2tKwzMGw7WTJhaaKttKoB6yGzzkOJA18yR+rCc+tq+8Y6GhnJ/t+7DGlIiTh4C/GH3H0P3HsC9FfOuPXqxhzeSOlS2nBz2ipNUnuUstrbWBAdnZ8QUEGd80zGoouTG8vjaurjcvgnyhLthYn3U0/yRkoKhNVRzW753WBf0yjYSbVvARnx4W7TvGGCPtzYVBvmVFgZ2sweSk2szI6HOcXNtvKO5yt+pQzzrc3AQJw+F5UxNfXiz7J54K5xM+A19iFOOh8mWkxO+oVM8AHj0jY1eP8MnN61yc1KbqDPhJfiZwrSmksSRpTzrp7EzYy7XH2mrGZWNFOQOLlVa6yoqeA9woSAo3WsQkGODm1OiUYBU5qT1SMWprCJhlDOUkVaeED4DgJBY6ar1RMHs0GafEScPiTYnRY89jvLfBifpLncOq3s4bLacXE52L2IAMFXf3lPgGRZp4JCXnd5GHgsvXRnLS28ujevEDlXFB9Z0ehsFZSfFdI1l53W1xbjE+On4iJxMsOsA2BD/tsx4FHswyDfZz8yluDJlhN6bllmTEDQHNjH13j5JESYWHaKfegggTh4WG/4PHVok7d3xNjjZYxwuackcW04yeoM9q4f6E6JqmpO9S3pjgzKSkxtJo0EFSyM5KY2lUeW9rUPNkcX92XG1Iy2lk6jsmOysgOC2Rr+gDjh2jdGO7yr1Tx/OiJzebHeNGGyN8MwriRugdSVk9pb4lAzW16dahff3hzm0sig0DhQzCDfJdPYmmcahkvYX1SNOHh7DerqpS5L2bngbnAy4L4O7mcVsOSmk1rtoPdK0yV/AFxtquQfEZqZmtq6PR5ZixwuzWiuTW5q8DMz8ujdQmbZ65vGzuFJnj9wQTXNvvxjYSWquibWFSdz0cm7sDB8VrG0ZEBxYXJY8TOtLKZofD9HXsK/qCDc0D/Tw7lls61mFt4vMtk3g0O3DxIF6eOJ27yBOHiKbsb87w3N1u+QtcJKj+UDSkj22nASAUBdo45mPFgBUmm9cVd/gwPACk9A9RcVPjMxPDy6jstyDatcAbyDGOaSRxJwuKh5rjwpKq+9dhIah7KmKnKjYAS5ztIcIGN3R/lkNbZOTA6vs5YFJOr0j3D11emMkwS+tvAWLKqmCD3sSLA2hSctDMxtTPQTEyYPCWVteXFwkvKHcE2/jlVOs3FkjhZJ1yZ03Is1JAUOcbMla33JbQH+WkcAhLkn/BYU0+vawjk179aZ/ARH6dukDQO7GiwUqWLRX/CWeOdmvEyxusOkyN9PzzEnAo5OpcFgpYNMZPCFfIBCITuoRQg2BQChgU+lwMix/k7rJFwIBhy3gM+ksvlD0hxLy2YxNuPuDi+oI4K/D3w89DE61EzCoLOi5WHQmTyBcbe9egf/0fA6Pz+dwBVy4pOw+QJx8hrD18rvvvffuvTccArsYViRpSQGXfVVnYZcfT2lO4kND8dCNoMdl6zTHNf9ni4HtN6Bf8L1bL8/wsb28t8r6ClqcxQWhpNGt+N57D3ql/n6zQZWS1hbVbq+obf7MyQDJbDM9PlDmknl2OHk8bMwuPrsyHgDEyWfwS29alZYWBru9PiODiX7dQYvMLpv76ZL2G5Dm5JKtLTwkFZKnt0qw4s0jJS0gKPvdpbS01M3xpUO+uIZGWElTWKH5yt+/3sS5tDTOqFpy9zkYc/DFYCe58CFA0njm5B0TUXfODv7s6cFKxh4Bx+4kh7p5GEoiTu6AX2EC124d024AeN8rj1qhmCf16jUvAuDGXrkRSAY1ZetgKWUcX9MjfvwrWIjW1huWtF/LDid7SiTbnbAuLrBcwtk8LBgwvqw+QI344LtC4dDDyzeS+cJKxQHoP1uMu2fiTazbQf+9K24YAKgRdxxV3TD96SSAL+wcVnhHfxaU3bsZAcWig6aXVXsBLaVc1DVu2OpAT860cV4GLTcv3ygErN7sGAWDvqrbGgNgrXwYDOtd0YSiBEb8lWv5gtH77xiiQZv2ZeVSOLLbwbaTU3dEO1vQ9qoKjkg/CXYZH70JxMlnQE42QzeNam3roTe0bin38pv0NTQ1S9YbtLU0dKpo/g4YMKBSOW4VJX78K6k21EzaxUd0h5PFHpKGxElBjXIvJlBNX9kZlfnd1bpuw/v615R7QKUiHCqWaPQ0nL8aPNyvfVXzbiCBlnZP3fUbveUs9QUw/TR+Ru9T58UajUcqClkUbJCa/mP7ZUZpq+jj0qotOkFgsgXbpqmgf0F3gu33hbPZpSeuepdtVyeNM+f9dXXVvRZYJRpqD+6UjWt/5rbYZqaif0N18vnr/5aTgmCTfvh2Oa48wmn7RDhZ4fidPCQQJ58hqLypHhTkZRaK7dSOBQsPvFe9HQBAta46eEIf5Lb1CK9lMKJfP+WSJPmGV0LxeuL25iXkLSdJOUHKlz3D+uAwcMvJRv3BOut+wMtbobimg844IVi3jQM1F/UCg3y1/FfbLkPxcdRtNChSLBkxjAT0W5pLhcYYMOuQBlqeLrOfPmWAcOX+euseIMjb3kuWYdUubghrUqDP7NN8vsfH/SD1Rh4oezw6Y1dcZrAMhNWzw5bQk1s5kmqscKC2gAfGNeue7yi3nGTf8pJcevghDvLi5NpIV99rimbzNmmsTQIZvggJ6STGzq5vc50imT1jk9aZ8AwPdU3KpZdD3p6fexkejcqCn5NLpbCFnOWBtn7MS5uKECefIaz6/vSXX34HfRKz7HsBM9p2tNQhu2oWCFOccmvmAQiGnBw12I2TALQrqZavSdqvYstJtNqXp/7t8x9T4HnPHU6O+geVt/EAzhrqlrG15XE66aDuh/e+/PJLgzXQrloG1iKcKGDJKLjcEIqlwwPQBZCTc45pwmrDKexT6Hu6HlcOBgWWtz7zKcNJ1K3BLFSWR2iVM2N0cCDTewpUG0xO2xUOeMaXdrNBmZJTeYWh8Ui5CQr65WrL/RWbnp/JlTgpQP2aIboPRbvBcuKkcL3CzdQmT3LoqxRIYz0Ly51j8Aumj9ZN73jc5lRjjyRTi9TZOMMCgNZbOSv+wg54yy3Nrz5GC1PfioWfe6GpA89bzrXTc6t4cRiPOLkDfoVuPpvN5gMQa9EPOLmOEyDz64/Mp3m8xM8+tZvnhfqsQCOu3TkJ6CFXAtDPf5RfZMtJIZedYoeHf+4OJ3UHwcCj936qZeGtowWLT99/78xPBaDqQQ2LzeYBfvvTFoDxdqYAol1YNhTUgojAuQLTZYCyTxNWGUzO6oQBMK5VBUaV3vuxavtCXKwverO5tM0JrTPvnf6jgZHssA7SPSdAJeSkbQ4YVXjvatVm/R+n3vvbR7qTZcYoAcrgb++98/kLxZolTjKi9OHhLQxdtp0UCrfcQuV7uwd4eyRN7JCNRRFPl7KokGezuTEdK6Oz0H/TF4qCWqCvbtBF7wx3sSoc3pNHp/LBWll4GRnw51KCRqDvEvWKAiZDdPHjE7qjotGQwWTRohaLAt0IOFurIpxiPW/Y981Cq8g5ZnewW0BW90trZ4iTz+BXGEqWAwps2wHdz2aSRyWg4v3muFT8ZHTwUpQ7DtQ/rJnelZNgs0f/Vu1rNzvvGE+WBkrSsLAu7qKLbKPuAI9JWq0w7sHaJW4mKXatNJmlgaqH4uCT127eCsjR1hsApRNWZ9oGgK8XOk8fC1oNMkGVIYpgATnZ+LCKCz1FlVHn1udvztAF/tzUpbSHq41iK43KxE56jIudzOZvklYa7RqqjSuwK2gsO99kkeZt14nNVW+W2k/iFCK2RJRxJxkE8dqrkF7iFNaOHomyzMLRlhZZ7NUFIm22rrBkmLq5OFBdUDFLaXfQSZ0aXhAwxkszfGxqaIsNeUWDVCFzrjHV3zZhlTVdmd+5Tm33Cl4AzBb/sNHlmuxWHJcx11Vb1LjE5a6050TZ+k7Tp6uzyyZZvNW2wspxGh2zTBVZz59z/tVskAe4Y4633Geppe4JrUs7i/+IQZx8Br9cr1jc6tby4fbdCMMkQAOrvIih2DzAzYzBxmp2cMJ/q5xxThQ/6k0sJNywf12u3Q4nN/CSCynW2QVeaRE26PVXJa2AMdMRnE08LUJpDeQppoPK+w0iv3htZs2AF3+1hx2vWof18iIt//p4Ne1yOzfmTg6o1Jth2+gtkjx1xmsTsGDSeDtg5UerVEMj40fes15aHJCgWMFIslsHae7joEIf7ifr/SlgxrVtziUGgNAQbJHRPMXOlQRCP62V2k8OfVcjugtBD7KXYScpIzUjoqsKZy7Br5PBZ/cEh7dMlhbi1xvzOqdzbQw1AoZReS4Gmmox4yXq17zLk9spA/66xiaW1TO59tpq/gO0mbin2nrm6djpKDNNh7qNpTDHfkDODinvzTZRcijBzibYmKuZ5K6s5NvoGhkFTU3HWKjrxE2u1LkYWCShVvsHcKKfT6o2uec5xge4PCONUDQxzcApqf/lESni5DP4xWr54hYt+8qPX5rNsavu/XzWfIRSevvn320mOVMGHz2wuVUzaQN9ZHcFs8ZGYWc1qRfY4eQ2eLP/+ubnn1Ub6jX65h3P/nw5l7FpeTat4dZ39z01wrhl12vFTjbrNQAwb//pD5fTaIK2+//QvWGPR+l9ettWLRW0XtAeHzH67rsHjawFp7M/X8qmb8QViaXCJdz4+edLrihexYXvlTxV0ymxFiSQ6DgCStXHJp9mLVh+8fOjfCqvXfWH764W0uovaY/WnP9ay0oh+/n+XuwkNUFpu8IAzcfi0EpfHBZbThJbom00LNIHoYsGvSssDl7bXSsLyepMjF0iFEWWjzXk5Xu4VzeFGDmGmXk01/mYJVf4l86m2YfEezuUTlbnZ3p5FU7WuvrEeLlmjFR4JaT4RQ9v5Ls0cbCxcT2FITGJYcHNnU4moT5WAd1dvh5xIfbhEzO5OWm+IcWNKX5phZWzxIVFCvwGMKcK3GwTZwSbw2lunulzi8GKhlYhrS9tCUecfIZwvnErA4aWb+s5Bf0RS22dqjmAkW/r2gBd6HpdAzubsetdWyk2b2ba/7H9K0tjSHOS1epjb2sbMrrctAaG/GxD1oCwK6Zto9LJd7BnkL9QIe53BSst8Khz3s02ExqNMCuc0zpnNsGIu19H1xRYy0tZAv1ujuXQbzzibxu0Bhg1W3vgSWm2tmHQp5Kcbx8y1jHBnuhkgakeElhoXCd3zIIRe9tYqJvm1trZVbIBLj8ZS0+zj+wbnX5+IlHs5IxqzHbfyB3sfPVc4wmx5SQmQevyTxdMS/FQh9kclgKHIdSW0KSOzNQVYkViLXp0YCTFr7AyJqCdVBFVN1ib2t4XUdAdEIOjlPuUogeGBrJCUuozAweoTTGpNRG2lb1xLiXk7qjyuaGY3IEg+8qBDPv0Jt+4ucXCkNIizwbWWGTU5GrXUE9maHJ1QWY3CkWUzLLxZyrLU3wSxuhTZcXJoSmji5keUUFOQT2SEGkbxMkjJkfdNPcVH1dpTsoFYicbf3xDEuIJs+UkdSDNSc+5dBYKEmmd0Wmwk+S64JSu7AwcsTypZSbd3PC+Xl59WsoUuyW5brAuvXMwOqspIJ0F2kNrJ1Ls9B8ZJ1Qlh0+D0cz0MqcLjw3VjEtpmMLUgqLktjHXaxrGGlopzTFF6+t10XkZ3l1gNS1+ZiHJXlPROG++L8jCt35rFpZaHpCfYevRNF8SXJjs6N28vopenspyLXoxAwpx8qjBuTwIkV4nXL6dZMbehvtq2WV7PMnFNue0UeGpV85UdMAI9PvXx6W0DcQnbxAyo4sqghw81HXyGrNzpikNKQ095amdg1E57cEZLNAamFnh7eymaZRYlxGJAgNJqRU+D60CfSI7WYxaNxOf0uUZT2WnEL+g6o6k8rXVqviSHN9ugEmO6mry9rRXM85fXamO9k3sl+Ro4VMMXSxvKMR2Jz51M7mpnLIMX6vbPXNfHIkjTh45wvqbhnUbkjs7kW8nh/QjdpGrdII8m+NhYsaWxANqUrZL1uRwqrFJ1vxUqPdAR0BQXGRI2ViKc25lesYEpSahvrcksqY9pHgiIXJwIsslLMGzcDjDM6mrMqRxJtcvuTUnqGmmo2mGy2/R/dW4nbeSFNw6O9Aw2B1bRMCWxjTUB5bM1gUGV2Z41gyleCX3TY/P1sTUrmyy4JrM61Wetiq/XA7qrfSxUzx7J3psYmplMie8+cUwCnHy6BEQg64GS9khJd9O5p2XxQPudvDMSSFnU/K5502luVjq3/71ju/QUpKmpZ11cEGmtUmgq2tOWWra+EZ1XMNYvnlwrk8lsdnZwNzWKSfXzNDHyz1lZjTI3NLSKWeuO9DV0SN/QQiGdf6uMwxYnRFOtj6ZI30x+fjloqg+VIKVha19VHeBgXV4sFdie76zs2f80NLwKAEa3HNwE/1JBtZVeOg2ztS5Hl0fYKNvX7gsGetvgzh5HGy0KN5rfUnKZ07yeVzuy86+GQFP/G18rnieQHJ3+/4RATvJCbgl293kDid3wJ1OsTU2tfNNHaH0Bdp5pdZOj8eYOYfmdw+2tWE3RxsncF3hqXXFozxcuol1ZOHUeOxT+8j89g1ylYtVaN4AA5fvqOdaQ4SGJKkOyVDsTiy31XQtW1xs7KGs99YvMbr9LPwzWgijodY+6YVts5U2Bn4tFNLAkHgtBIDV2jZRLeDlpk48bTDS3CBq6qW3CnHyeBgOVnR7cSy/5SQ7+cq3X3+jtffDqUh+//harQeAGd2vb9dDJtZc/NoYPqkW9ehrrV3tTNknsJPDZn6Sj5msItVJwF2bnZrH4XEUPmsVtUCicTm4qdkVyuYmnc4VMGlMHn0VRyYzoeBmemaVwuUQoJsNukBInYdumUIBeXZiAU4A4JFx61yoC6bMjs1TeVwag89j0DhQmDy9RGIIWCsz8yQKg0uG/pcm5FIo8FklMHwaQ/Rn49E3+UIWdnIC9/IEIOLkMUErMFB64U+95STd8Bc7X1ctr1fsIH4l60WOnr4q7ivLwW6+FrbtgjFHB19dvwUw76Tna+Rx4GOkXw3sZOydsRdjLhlDupNyAOLksTFkre3z3Gk3206aOkMXyza1RplyjA0AAAy3SURBVF5fYlgKmR1raBJGBoSWfG+zbKhvxYQYBq4D0Ghr6PV8V0rpnoa+bJS3UksBJGsfzlyjEDSZlwuqr7eBZu3so1MG/34usLkv490k4iTCLshWMy3dkRGzw0kWAN2GnVznrzR8J1IuX/r5lyL20JVLml/9UctdT7h/6Y94QpvBxUs/2r98DMCASSh8Q3X2FK1M99gVCZquV4EWzfQjdPKDgjVDL8kdmQVxEmEXLGnfSHxWLGfLSYalYnplgXciiW9zDw0w7k2AG2G3Nva5gXDSyJ9U7jIEOgInE3P5oER5SPQNO0kybIYGSRM+uvDxc7R2I9tZgPfwLwkLOsKzk/Efludo9EnuyCzSnBRu4tHTM/OvdJVDpbE4bO5LlzPW6ixGMqUl4EmOnFxDzULPQ56fQs1DA0/Rl7iiYygZK7PTc0sklpBLRM+Is+r2BOLkscKpemAyujVfueXkpsOpv777vnIbg+FhiIe6vHlUv48DYVQlCRDCQxa9gqHOkSfkYFCoWM0R6OGCtclJjGQbiaBDOxJ6z8lOp55M8wGYvPZBKEnInrA6ozV1hGcn4z8qttKUtGUXaU4yBrPi4uIS60R7GKVAXcQSltBbk6RbCOljRYmpHRuQcAJi/xB8C5hzVfHRdTjGRG5cXGxKE7xXdm1wRFRScKkuFfpa2TxzsTwuqWTq5UmcN4A4ebzw5px+iJZEoNuxq7leF3q+waBkPdCJDgQFv50+/YETadSiDKxGhc6Y+oryDSbvnDnzl9vjUGvT//RpVXHKraBH0QP+3AmIaE+rOegZlwccPNYbjCrRlS65e74+75q1D12e+kvasosUJ4Ur8Rr6jnZP3UtfcTjh+iR6ui6/44XMGu58roediV83NLin1FgHzsNfWynxtzF0LUd3hzhaqCr6z0JP3uwcOgwLOJPhaWt0x6ITX2+r65bQL7l87h7EyeNmtVxHXbxQ8Ww86cgAgGSSsBziwgLDau7NlQ6OhFGrcrASEbrgGgJveiVYmlc0+2jAy/R8dGPjsKiv5ZRrxm8VM0jTEB+M4Ko76GOKAWs2xq8M0A4M6YOzLm2Stuyyw0k6QRyb8OcC9eNqqwsC/PqBcDQzuQ263PHG89LbqYDWlZbez6QODNS4qHpP0cbyInOnOJuzE7Ce7PmG4sJIz8RJAMZcL1vDM9rC1YbConRvv7bZpsoUI50ULADY4NtWPfCRh4Te6vxgNafhxVz7oKZhUcnXPYE4efz0+152gvu+551cVk/GBzuzQOOteoA1d1wbtSwDK+GhhFibWTDoW3U3AYDgO3Dsug23zTAXvh0NwwAQYDDSkUQDOBtXbJLaJEAbmL+YRnl4kN//fwLFm4RlmS0nBWxcb0UPFU6n4M3FBgzTGMR891buYqqhpl/PJheTZqARPEYZDtHXjZpZqq/L1D9v3D6bbaWgm7ZA6qqDK3NwqRQufzLBt11ILzVRCIArbAo2SXQhLce+ii3gTMVnL3CF9AZLRU9RFXyhULhan9yyMRXtnDJJ3PvBpIiTJwA5VMOscYeTxp/eVVW9ZjNFc7dggHndP9Rd9fUxg/oFYNnPizzj/Ej1us+k/yUlR5M77TuTPgjm/+uOpqpV+3yArupD5XL6iO0j1YcOw8JFu7uqNwy6jy6VZ/1v/x3eGCLjbDlJnygNtgtuWoQG2IKFaOvM7r7muIixxez4kpKI+BlMRVJKVm51Z1Z4RUFkSU1WaXGwfexgb2FNWVRw7TphCR6WwxXPwXBk+CizP9nbIhYN3YXLqANiqjP0Nm60pnTwweZkmq1l5IDEwInUSjK/y+rGbZtM1J7HEIiTJ8KQuXrwMvjRR3SHU2Hw4N69J8OAW1fGBoIG3YdpnXlEbNEooDTXM0Hf03s2RIC2u+fRWDq7UzRymqbCvXuGzQDnfu9+MvQ/vdr3DODiIBMm93QbxI85Eoh/++4o04QOiS0n8WXOT26qBnZAQwAhJlTJyM3axL9zo8fcuqDMzqCmIyoPTVvsLrK3LMqx9YiML2soymxenaxsrAxzynuWecVfSPKvwWOrq5ui0rZqR+BLgjLmgLA/OXMK+mlNdXkR6SOiCR0BpdQfeh96A56aW1ll4PZ6cUScPBnYob95N3wsp2enE963PbrA+NDYcpJQ6aX7QCusE7ojxIQ9sXLRueuPF7Zq3DazVtEvqwouhYbkpDLdm4amWq5RiRWNhRmt5PlMTwNV05LtAF2ILfXPXCK1plY2+gWNi/cob7SFJc1wwGZVdD0RsJviG6q8A9tE38EeT0+ENR2ao016ew2+tiiTFBAnT4oVmwf/Y/vUAfkC/36OpCXLbDnJXOrICEwbwUNhJX8hxqm8v8zCY5rbaWoYnR6fM1IdWA5dXzbKLI3D0lKrypJLGwqyW+dqA6PDrGy3nRRgKuPKsUJ0hJqqxvl7olIFQmJzavGsAAhWM2NGuQAf80hL/fz1UFEtXVp1bAUO+sHQT2TF+XTtNVcfcfLEoOX+W4ikKWfAuXWyz5aTAPCwo+Lt17zZSL8ZwCv3Spkd9vcvby6vW+wOS+ycme4uD/SpaK7sbYjPq81NKGiOsMiuDrDNXmfS4VlTHibRKriTuDGTY6d9/6vLMQvMTS6h2Nm7HrvOZo9HRi9CnXGRjeH9b876znFZfEBIDumiQbZOz6O7Q+Om97oYgjh5ctD+7idpyRmi/ZMyzzMngVCyh403F+0LjYSXklwbZgtCw8K946bmc3y8wqLy2jM9osL8S6uTippLgsOqYk0D4j3ts7FLKHhIudmic9szraRnhYJDV1p79BGx8xsj9oq2sflNq/SBiCSo3+RRcNgKG5f6NTyaCpbjI8Y4gNufkRDl71VGFqX97AHEyZND+K143lXukDsnt+DjqgtmIYG6E5qI6FJfl5BaAmMyydY5oRc3kuzrGtM/1dQ1PZCe2NUY7B6akdeBHe+HF4c3Oxy1XTyCRRXL16oaoQ5zBD8ZaGzv5ps5x0BVNksG14Tq+iXqYO08f62uZkUA+JiqUBvX/MU9z38jTp4cW2shcofcOilkLi/AApEn59nC+Yr8ng0AuKOFxWNswBwrKRze5OLwNPJY/wq+u7B6BkukLMCVtQAX216Uk1Es8pOBWWHSsfPk9YGyvKy85lUuZRkvqUtHx2AZ1LbiaS5rdYUJd46E5gxJocE9gTh5ciBOHilSnARCHg+OYoUcjhBwN9ZFOcFsMhleVYRuoIEfny8UsDZ5fCaZwhEI+GxodAiHvpsU0tq6aGwp5PGFfA6bx2dR14kkKkco4G91hNB/Ceij3SvQA8Rp6gIakbLnXhJx8iRBnDxSpDl55HDWiaIu8iAgTp4ciJNHyok4eRggTp4ciJNHCuSktAqesg/i5MmBOHmkYIwc97xNSiYoVC6VtHaCOHkcIE4eKRgjcwxVHkl4iPSTJwXi5JGypHcnLj9b7sjL0z5XKHkJO0GcPA4QJ4+UZZ1frXxc5A5Pz8vfFUhewk4QJ48DxMkjZUnvdnyRpPORIwoKtH4rkryEnSBOHgeIk0cKRt8Ytb4mdxCJkfeQ8eRxISA8X0uO81WwpCVn0D7MkrRkGYyO1sA8Wg7xv4H0k8cEv9mkU9IUw/nGAS+XjJ2Rh/2TqxZ3vMJD5I6wMOUrFZKXsBPEycNH0HTh11ZJWwz/l395Xy559/+W9qGRNWgl3n6BAXJHUJBzAFwy9EUQJw8dRupDE0W4WM4zuN8/ypRLov5N2mS9rCFYG6gsKZc7ysoap6QVBUScPHTY7XmNhs/3k5yvIiQtOYP3kTyMJ98yECePggFdcVnkLTify6uTf8uQtBCODcTJI0DY84KTvF9vxMglvv8pbbIe4UhBnDwCXnJSGPbDp3LJZypHeOAsgnQQJ4+Al5wEPDpFLqFunQSOcHwgTh4Bwm6tZkkTAWGvIE4eAcIujSZJEwFhryBOHgWkPoKkhYCwVxAnERBkC8RJBATZAnESAUG2QJxEQJAtECcREGQLxEkEBNkCcRIBQbZAnERAkC0QJxEQZAvESQQE2QJxEgFBtkCcRECQLRAnERBkC8RJBATZAnESAUG2QJxEQJAtECcREGQLxEkEBNkCcRIBQbZAnERAkC0QJxEQZAvESQQE2QJxEgFBtkCcRECQLRAnERBkC8RJBATZAnESAUG2QJxEQJAtECcREGQLxEkEBNkCcRIBQbZAnERAkC0QJxEQZAvESQQE2QJxEgFBtkCcRECQLRAnERBkC8RJBATZAnESAUG2QJxEQJAtECcREGQLxEkEBNkCcRIBQbZAnERAkC0QJxEQZAvESQQE2QJxEgFBtkCcRECQLRAnERBki/8LAUGOkXyM3yIA+P8BfAPfSdtn7OQAAAAASUVORK5CYII=;" vertex="1" parent="1">
          <mxGeometry x="2040" y="1210" width="915" height="887" as="geometry" />
        </mxCell>
      </root>
    </mxGraphModel>
  </diagram>
</mxfile>
